ISO-10303-21;
HEADER;
FILE_DESCRIPTION (( 'STEP AP203' ),
    '1' );
FILE_NAME ('PinDesignAssing.STEP',
    '2025-09-04T03:44:45',
    ( '' ),
    ( '' ),
    'SwSTEP 2.0',
    'SolidWorks 2025',
    '' );
FILE_SCHEMA (( 'CONFIG_CONTROL_DESIGN' ));
ENDSEC;

DATA;
#1 = PLANE ( 'NONE',  #114 ) ;
#2 = DATE_TIME_ROLE ( 'creation_date' ) ;
#3 = PERSON_AND_ORGANIZATION_ROLE ( 'creator' ) ;
#4 = LOCAL_TIME ( 23, 44, 45.00000000000000000, #7 ) ;
#5 = PRODUCT_RELATED_PRODUCT_CATEGORY ( 'detail', '', ( #85 ) ) ;
#6 = PERSON_AND_ORGANIZATION_ROLE ( 'creator' ) ;
#7 = COORDINATED_UNIVERSAL_TIME_OFFSET ( 5, 0, .BEHIND. ) ;
#8 = CYLINDRICAL_SURFACE ( 'NONE', #23, 0.0008499999999999999526 ) ;
#9 = CIRCLE ( 'NONE', #109, 0.0008499999999999999526 ) ;
#10 = ORIENTED_EDGE ( 'NONE', *, *, #141, .T. ) ;
#11 = DATE_AND_TIME ( #150, #53 ) ;
#12 = PERSON_AND_ORGANIZATION ( #82, #166 ) ;
#13 = FACE_OUTER_BOUND ( 'NONE', #78, .T. ) ;
#14 = CC_DESIGN_DATE_AND_TIME_ASSIGNMENT ( #68, #2, ( #112 ) ) ;
#15 = ADVANCED_BREP_SHAPE_REPRESENTATION ( 'PinDesignAssing', ( #70, #169 ), #25 ) ;
#16 = DATE_AND_TIME ( #88, #72 ) ;
#17 = CC_DESIGN_DATE_AND_TIME_ASSIGNMENT ( #16, #116, ( #89 ) ) ;
#18 = DIRECTION ( 'NONE',  ( -1.000000000000000000, 0.000000000000000000, 0.000000000000000000 ) ) ;
#19 = ORIENTED_EDGE ( 'NONE', *, *, #141, .F. ) ;
#20 = APPLICATION_CONTEXT ( 'configuration controlled 3d designs of mechanical parts and assemblies' ) ;
#21 = LOCAL_TIME ( 23, 44, 45.00000000000000000, #167 ) ;
#22 = ORIENTED_EDGE ( 'NONE', *, *, #99, .F. ) ;
#23 = AXIS2_PLACEMENT_3D ( 'NONE', #172, #80, #43 ) ;
#24 =( NAMED_UNIT ( * ) SI_UNIT ( $, .STERADIAN. ) SOLID_ANGLE_UNIT ( ) );
#25 =( GEOMETRIC_REPRESENTATION_CONTEXT ( 3 ) GLOBAL_UNCERTAINTY_ASSIGNED_CONTEXT ( ( #110 ) ) GLOBAL_UNIT_ASSIGNED_CONTEXT ( ( #38, #137, #24 ) ) REPRESENTATION_CONTEXT ( 'NONE', 'WORKASPACE' ) );
#26 = APPROVAL_STATUS ( 'not_yet_approved' ) ;
#27 = PLANE ( 'NONE',  #32 ) ;
#28 = DIRECTION ( 'NONE',  ( 1.000000000000000000, 0.000000000000000000, 0.000000000000000000 ) ) ;
#29 = CALENDAR_DATE ( 2025, 3, 9 ) ;
#30 = PERSON_AND_ORGANIZATION ( #82, #166 ) ;
#31 = CALENDAR_DATE ( 2025, 3, 9 ) ;
#32 = AXIS2_PLACEMENT_3D ( 'NONE', #81, #98, #41 ) ;
#33 = CARTESIAN_POINT ( 'NONE',  ( 0.0008499999999999999526, 1.040949779275250184E-19, 0.01359999999999999924 ) ) ;
#34 = CARTESIAN_POINT ( 'NONE',  ( -0.0008499999999999999526, 0.000000000000000000, 0.01359999999999999924 ) ) ;
#35 = CARTESIAN_POINT ( 'NONE',  ( 0.000000000000000000, 0.000000000000000000, 0.01359999999999999924 ) ) ;
#36 = EDGE_LOOP ( 'NONE', ( #22, #19, #160, #93 ) ) ;
#37 = AXIS2_PLACEMENT_3D ( 'NONE', #35, #146, #18 ) ;
#38 =( LENGTH_UNIT ( ) NAMED_UNIT ( * ) SI_UNIT ( $, .METRE. ) );
#39 = DESIGN_CONTEXT ( 'detailed design', #42, 'design' ) ;
#40 = APPROVAL_PERSON_ORGANIZATION ( #95, #63, #170 ) ;
#41 = DIRECTION ( 'NONE',  ( 1.000000000000000000, 0.000000000000000000, -0.000000000000000000 ) ) ;
#42 = APPLICATION_CONTEXT ( 'configuration controlled 3d designs of mechanical parts and assemblies' ) ;
#43 = DIRECTION ( 'NONE',  ( -1.000000000000000000, 0.000000000000000000, 0.000000000000000000 ) ) ;
#44 = PERSON_AND_ORGANIZATION ( #82, #166 ) ;
#45 = COORDINATED_UNIVERSAL_TIME_OFFSET ( 5, 0, .BEHIND. ) ;
#46 = PERSON_AND_ORGANIZATION ( #82, #166 ) ;
#47 = EDGE_CURVE ( 'NONE', #51, #119, #103, .T. ) ;
#48 = CIRCLE ( 'NONE', #86, 0.0008499999999999999526 ) ;
#49 = ORIENTED_EDGE ( 'NONE', *, *, #138, .T. ) ;
#50 = ORIENTED_EDGE ( 'NONE', *, *, #47, .F. ) ;
#51 = VERTEX_POINT ( 'NONE', #33 ) ;
#52 = DIRECTION ( 'NONE',  ( -0.000000000000000000, -0.000000000000000000, -1.000000000000000000 ) ) ;
#53 = LOCAL_TIME ( 23, 44, 45.00000000000000000, #125 ) ;
#54 = EDGE_CURVE ( 'NONE', #119, #173, #104, .T. ) ;
#55 = CARTESIAN_POINT ( 'NONE',  ( 0.0008499999999999999526, 1.040949779275250184E-19, 0.000000000000000000 ) ) ;
#56 = DIRECTION ( 'NONE',  ( 1.000000000000000000, 0.000000000000000000, -0.000000000000000000 ) ) ;
#57 = DIRECTION ( 'NONE',  ( 0.000000000000000000, 0.000000000000000000, 1.000000000000000000 ) ) ;
#58 = ADVANCED_FACE ( 'NONE', ( #131 ), #163, .T. ) ;
#59 = APPLICATION_PROTOCOL_DEFINITION ( 'international standard', 'config_control_design', 1994, #20 ) ;
#60 = CARTESIAN_POINT ( 'NONE',  ( 0.000000000000000000, 0.000000000000000000, 0.000000000000000000 ) ) ;
#61 = CIRCLE ( 'NONE', #64, 0.0008499999999999999526 ) ;
#62 = APPROVAL_DATE_TIME ( #143, #63 ) ;
#63 = APPROVAL ( #26, 'UNSPECIFIED' ) ;
#64 = AXIS2_PLACEMENT_3D ( 'NONE', #139, #84, #28 ) ;
#65 = CC_DESIGN_PERSON_AND_ORGANIZATION_ASSIGNMENT ( #96, #69, ( #85 ) ) ;
#66 = FACE_OUTER_BOUND ( 'NONE', #36, .T. ) ;
#67 = LOCAL_TIME ( 23, 44, 45.00000000000000000, #45 ) ;
#68 = DATE_AND_TIME ( #29, #21 ) ;
#69 = PERSON_AND_ORGANIZATION_ROLE ( 'design_owner' ) ;
#70 = MANIFOLD_SOLID_BREP ( 'Boss-Extrude1', #159 ) ;
#71 = PERSON_AND_ORGANIZATION ( #82, #166 ) ;
#72 = LOCAL_TIME ( 23, 44, 45.00000000000000000, #102 ) ;
#73 = CALENDAR_DATE ( 2025, 3, 9 ) ;
#74 = DIRECTION ( 'NONE',  ( -0.000000000000000000, -0.000000000000000000, -1.000000000000000000 ) ) ;
#75 = ORIENTED_EDGE ( 'NONE', *, *, #138, .F. ) ;
#76 = DIRECTION ( 'NONE',  ( 1.000000000000000000, 0.000000000000000000, 0.000000000000000000 ) ) ;
#77 = APPROVAL ( #148, 'UNSPECIFIED' ) ;
#78 = EDGE_LOOP ( 'NONE', ( #147, #75 ) ) ;
#79 = CARTESIAN_POINT ( 'NONE',  ( -0.0008499999999999999526, 0.000000000000000000, 0.000000000000000000 ) ) ;
#80 = DIRECTION ( 'NONE',  ( -0.000000000000000000, -0.000000000000000000, -1.000000000000000000 ) ) ;
#81 = CARTESIAN_POINT ( 'NONE',  ( 0.000000000000000000, 0.000000000000000000, 0.01359999999999999924 ) ) ;
#82 = PERSON ( 'UNSPECIFIED', 'UNSPECIFIED', 'UNSPECIFIED', ('UNSPECIFIED'), ('UNSPECIFIED'), ('UNSPECIFIED') ) ;
#83 = APPROVAL_PERSON_ORGANIZATION ( #71, #108, #145 ) ;
#84 = DIRECTION ( 'NONE',  ( 0.000000000000000000, 0.000000000000000000, 1.000000000000000000 ) ) ;
#85 = PRODUCT ( 'PinDesignAssing', 'PinDesignAssing', '', ( #94 ) ) ;
#86 = AXIS2_PLACEMENT_3D ( 'NONE', #140, #57, #123 ) ;
#87 = DATE_AND_TIME ( #73, #67 ) ;
#88 = CALENDAR_DATE ( 2025, 3, 9 ) ;
#89 = SECURITY_CLASSIFICATION ( '', '', #142 ) ;
#90 = ORIENTED_EDGE ( 'NONE', *, *, #54, .F. ) ;
#91 = ORIENTED_EDGE ( 'NONE', *, *, #99, .T. ) ;
#92 = CC_DESIGN_PERSON_AND_ORGANIZATION_ASSIGNMENT ( #44, #3, ( #112 ) ) ;
#93 = ORIENTED_EDGE ( 'NONE', *, *, #144, .T. ) ;
#94 = MECHANICAL_CONTEXT ( 'NONE', #20, 'mechanical' ) ;
#95 = PERSON_AND_ORGANIZATION ( #82, #166 ) ;
#96 = PERSON_AND_ORGANIZATION ( #82, #166 ) ;
#97 = DIRECTION ( 'NONE',  ( 0.000000000000000000, 0.000000000000000000, 1.000000000000000000 ) ) ;
#98 = DIRECTION ( 'NONE',  ( 0.000000000000000000, 0.000000000000000000, 1.000000000000000000 ) ) ;
#99 = EDGE_CURVE ( 'NONE', #51, #174, #134, .T. ) ;
#100 = PERSON_AND_ORGANIZATION_ROLE ( 'design_supplier' ) ;
#101 = APPROVAL_STATUS ( 'not_yet_approved' ) ;
#102 = COORDINATED_UNIVERSAL_TIME_OFFSET ( 5, 0, .BEHIND. ) ;
#103 = CIRCLE ( 'NONE', #164, 0.0008499999999999999526 ) ;
#104 = LINE ( 'NONE', #175, #118 ) ;
#105 = ORIENTED_EDGE ( 'NONE', *, *, #47, .T. ) ;
#106 = CC_DESIGN_APPROVAL ( #77, ( #112 ) ) ;
#107 = CARTESIAN_POINT ( 'NONE',  ( 0.000000000000000000, 0.000000000000000000, 0.000000000000000000 ) ) ;
#108 = APPROVAL ( #101, 'UNSPECIFIED' ) ;
#109 = AXIS2_PLACEMENT_3D ( 'NONE', #107, #97, #155 ) ;
#110 = UNCERTAINTY_MEASURE_WITH_UNIT (LENGTH_MEASURE( 1.000000000000000082E-05 ), #38, 'distance_accuracy_value', 'NONE');
#111 = CARTESIAN_POINT ( 'NONE',  ( 0.000000000000000000, 0.000000000000000000, 0.000000000000000000 ) ) ;
#112 = PRODUCT_DEFINITION ( 'UNKNOWN', '', #154, #39 ) ;
#113 = DIRECTION ( 'NONE',  ( 0.000000000000000000, 0.000000000000000000, 1.000000000000000000 ) ) ;
#114 = AXIS2_PLACEMENT_3D ( 'NONE', #111, #153, #56 ) ;
#115 = CC_DESIGN_APPROVAL ( #63, ( #154 ) ) ;
#116 = DATE_TIME_ROLE ( 'classification_date' ) ;
#117 = PERSON_AND_ORGANIZATION_ROLE ( 'classification_officer' ) ;
#118 = VECTOR ( 'NONE', #52, 1.000000000000000000 ) ;
#119 = VERTEX_POINT ( 'NONE', #34 ) ;
#120 = CC_DESIGN_PERSON_AND_ORGANIZATION_ASSIGNMENT ( #157, #100, ( #154 ) ) ;
#121 = FACE_OUTER_BOUND ( 'NONE', #161, .T. ) ;
#122 = DIRECTION ( 'NONE',  ( 1.000000000000000000, 0.000000000000000000, 0.000000000000000000 ) ) ;
#123 = DIRECTION ( 'NONE',  ( 1.000000000000000000, 0.000000000000000000, 0.000000000000000000 ) ) ;
#124 = ADVANCED_FACE ( 'NONE', ( #66 ), #8, .T. ) ;
#125 = COORDINATED_UNIVERSAL_TIME_OFFSET ( 5, 0, .BEHIND. ) ;
#126 = APPROVAL_DATE_TIME ( #87, #108 ) ;
#127 = VECTOR ( 'NONE', #74, 1.000000000000000000 ) ;
#128 = APPROVAL_PERSON_ORGANIZATION ( #12, #77, #136 ) ;
#129 = SHAPE_DEFINITION_REPRESENTATION ( #156, #15 ) ;
#130 = CC_DESIGN_PERSON_AND_ORGANIZATION_ASSIGNMENT ( #46, #6, ( #154 ) ) ;
#131 = FACE_OUTER_BOUND ( 'NONE', #135, .T. ) ;
#132 = CARTESIAN_POINT ( 'NONE',  ( 0.000000000000000000, 0.000000000000000000, 0.01359999999999999924 ) ) ;
#133 = DIRECTION ( 'NONE',  ( 0.000000000000000000, 0.000000000000000000, 1.000000000000000000 ) ) ;
#134 = LINE ( 'NONE', #162, #127 ) ;
#135 = EDGE_LOOP ( 'NONE', ( #50, #91, #49, #90 ) ) ;
#136 = APPROVAL_ROLE ( '' ) ;
#137 =( NAMED_UNIT ( * ) PLANE_ANGLE_UNIT ( ) SI_UNIT ( $, .RADIAN. ) );
#138 = EDGE_CURVE ( 'NONE', #174, #173, #61, .T. ) ;
#139 = CARTESIAN_POINT ( 'NONE',  ( 0.000000000000000000, 0.000000000000000000, 0.000000000000000000 ) ) ;
#140 = CARTESIAN_POINT ( 'NONE',  ( 0.000000000000000000, 0.000000000000000000, 0.01359999999999999924 ) ) ;
#141 = EDGE_CURVE ( 'NONE', #119, #51, #48, .T. ) ;
#142 = SECURITY_CLASSIFICATION_LEVEL ( 'unclassified' ) ;
#143 = DATE_AND_TIME ( #31, #4 ) ;
#144 = EDGE_CURVE ( 'NONE', #173, #174, #9, .T. ) ;
#145 = APPROVAL_ROLE ( '' ) ;
#146 = DIRECTION ( 'NONE',  ( -0.000000000000000000, -0.000000000000000000, -1.000000000000000000 ) ) ;
#147 = ORIENTED_EDGE ( 'NONE', *, *, #144, .F. ) ;
#148 = APPROVAL_STATUS ( 'not_yet_approved' ) ;
#149 = CC_DESIGN_APPROVAL ( #108, ( #89 ) ) ;
#150 = CALENDAR_DATE ( 2025, 3, 9 ) ;
#151 = ADVANCED_FACE ( 'NONE', ( #13 ), #1, .F. ) ;
#152 = APPLICATION_PROTOCOL_DEFINITION ( 'international standard', 'config_control_design', 1994, #42 ) ;
#153 = DIRECTION ( 'NONE',  ( 0.000000000000000000, 0.000000000000000000, 1.000000000000000000 ) ) ;
#154 = PRODUCT_DEFINITION_FORMATION_WITH_SPECIFIED_SOURCE ( 'ANY', '', #85, .NOT_KNOWN. ) ;
#155 = DIRECTION ( 'NONE',  ( 1.000000000000000000, 0.000000000000000000, 0.000000000000000000 ) ) ;
#156 = PRODUCT_DEFINITION_SHAPE ( 'NONE', 'NONE',  #112 ) ;
#157 = PERSON_AND_ORGANIZATION ( #82, #166 ) ;
#158 = CC_DESIGN_SECURITY_CLASSIFICATION ( #89, ( #154 ) ) ;
#159 = CLOSED_SHELL ( 'NONE', ( #58, #124, #171, #151 ) ) ;
#160 = ORIENTED_EDGE ( 'NONE', *, *, #54, .T. ) ;
#161 = EDGE_LOOP ( 'NONE', ( #10, #105 ) ) ;
#162 = CARTESIAN_POINT ( 'NONE',  ( 0.0008499999999999999526, 1.040949779275250184E-19, 0.01359999999999999924 ) ) ;
#163 = CYLINDRICAL_SURFACE ( 'NONE', #37, 0.0008499999999999999526 ) ;
#164 = AXIS2_PLACEMENT_3D ( 'NONE', #132, #133, #76 ) ;
#165 = CC_DESIGN_PERSON_AND_ORGANIZATION_ASSIGNMENT ( #30, #117, ( #89 ) ) ;
#166 = ORGANIZATION ( 'UNSPECIFIED', 'UNSPECIFIED', '' ) ;
#167 = COORDINATED_UNIVERSAL_TIME_OFFSET ( 5, 0, .BEHIND. ) ;
#168 = APPROVAL_DATE_TIME ( #11, #77 ) ;
#169 = AXIS2_PLACEMENT_3D ( 'NONE', #60, #113, #122 ) ;
#170 = APPROVAL_ROLE ( '' ) ;
#171 = ADVANCED_FACE ( 'NONE', ( #121 ), #27, .T. ) ;
#172 = CARTESIAN_POINT ( 'NONE',  ( 0.000000000000000000, 0.000000000000000000, 0.01359999999999999924 ) ) ;
#173 = VERTEX_POINT ( 'NONE', #79 ) ;
#174 = VERTEX_POINT ( 'NONE', #55 ) ;
#175 = CARTESIAN_POINT ( 'NONE',  ( -0.0008499999999999999526, 0.000000000000000000, 0.01359999999999999924 ) ) ;
ENDSEC;
END-ISO-10303-21;
