ISO-10303-21;
HEADER;
FILE_DESCRIPTION (( 'STEP AP203' ),
    '1' );
FILE_NAME ('TrussDesignAssign.STEP',
    '2025-09-04T03:42:19',
    ( '' ),
    ( '' ),
    'SwSTEP 2.0',
    'SolidWorks 2025',
    '' );
FILE_SCHEMA (( 'CONFIG_CONTROL_DESIGN' ));
ENDSEC;

DATA;
#1 = ORIENTED_EDGE ( 'NONE', *, *, #1157, .F. ) ;
#2 = EDGE_CURVE ( 'NONE', #898, #450, #764, .T. ) ;
#3 = CARTESIAN_POINT ( 'NONE',  ( 0.7999999999999535261, 0.3067999999999999616, 0.01359999999999999924 ) ) ;
#4 = ORIENTED_EDGE ( 'NONE', *, *, #83, .T. ) ;
#5 = PLANE ( 'NONE',  #612 ) ;
#6 = DIRECTION ( 'NONE',  ( -1.000000000000000000, 0.000000000000000000, 0.000000000000000000 ) ) ;
#7 = VECTOR ( 'NONE', #306, 1.000000000000000000 ) ;
#8 = CIRCLE ( 'NONE', #903, 0.0008500000000000000611 ) ;
#9 = ORIENTED_EDGE ( 'NONE', *, *, #638, .F. ) ;
#10 = APPROVAL_ROLE ( '' ) ;
#11 = ORIENTED_EDGE ( 'NONE', *, *, #43, .T. ) ;
#12 = LINE ( 'NONE', #407, #7 ) ;
#13 = ADVANCED_FACE ( 'NONE', ( #1271 ), #157, .F. ) ;
#14 = DIRECTION ( 'NONE',  ( -1.000000000000000000, -1.489033026589601422E-16, 0.000000000000000000 ) ) ;
#15 = EDGE_LOOP ( 'NONE', ( #208, #825, #1168, #1047 ) ) ;
#16 = VECTOR ( 'NONE', #1256, 1.000000000000000000 ) ;
#17 = LINE ( 'NONE', #318, #80 ) ;
#18 = ORIENTED_EDGE ( 'NONE', *, *, #510, .T. ) ;
#19 = DIRECTION ( 'NONE',  ( -1.209839334104054653E-16, 1.000000000000000000, 0.000000000000000000 ) ) ;
#20 = CARTESIAN_POINT ( 'NONE',  ( -394.6832437104829410, -296.3141328276422541, 0.01359999999999999924 ) ) ;
#21 = AXIS2_PLACEMENT_3D ( 'NONE', #679, #185, #585 ) ;
#22 = CIRCLE ( 'NONE', #1252, 0.0008500000000000174083 ) ;
#23 = DIRECTION ( 'NONE',  ( -1.000000000000000000, 0.000000000000000000, 0.000000000000000000 ) ) ;
#24 = EDGE_CURVE ( 'NONE', #294, #168, #162, .T. ) ;
#25 = ORIENTED_EDGE ( 'NONE', *, *, #690, .T. ) ;
#26 =( NAMED_UNIT ( * ) PLANE_ANGLE_UNIT ( ) SI_UNIT ( $, .RADIAN. ) );
#27 = VERTEX_POINT ( 'NONE', #278 ) ;
#28 = LINE ( 'NONE', #722, #377 ) ;
#29 = FACE_BOUND ( 'NONE', #473, .T. ) ;
#30 = CARTESIAN_POINT ( 'NONE',  ( -0.006799999999995661078, 0.2932000000442371856, 0.000000000000000000 ) ) ;
#31 = ORIENTED_EDGE ( 'NONE', *, *, #1020, .F. ) ;
#32 = AXIS2_PLACEMENT_3D ( 'NONE', #674, #1167, #1175 ) ;
#33 = PRODUCT_DEFINITION_SHAPE ( 'NONE', 'NONE',  #408 ) ;
#34 = LINE ( 'NONE', #719, #626 ) ;
#35 = VERTEX_POINT ( 'NONE', #455 ) ;
#36 = APPROVAL_ROLE ( '' ) ;
#37 = CARTESIAN_POINT ( 'NONE',  ( -0.006799999999986011678, 0.3135999999996101906, 0.01359999999999999924 ) ) ;
#38 = FACE_OUTER_BOUND ( 'NONE', #1218, .T. ) ;
#39 = CARTESIAN_POINT ( 'NONE',  ( 0.8067999999999674321, 0.3000000000000113687, 0.000000000000000000 ) ) ;
#40 = ORIENTED_EDGE ( 'NONE', *, *, #470, .T. ) ;
#41 = APPROVAL_STATUS ( 'not_yet_approved' ) ;
#42 = ADVANCED_FACE ( 'NONE', ( #257 ), #271, .F. ) ;
#43 = EDGE_CURVE ( 'NONE', #382, #1036, #381, .T. ) ;
#44 = CARTESIAN_POINT ( 'NONE',  ( -0.3999999999395992822, 0.006799999999999970998, 0.000000000000000000 ) ) ;
#45 = FACE_BOUND ( 'NONE', #129, .T. ) ;
#46 = PLANE ( 'NONE',  #513 ) ;
#47 = ORIENTED_EDGE ( 'NONE', *, *, #266, .F. ) ;
#48 = EDGE_CURVE ( 'NONE', #445, #1258, #86, .T. ) ;
#49 = DIRECTION ( 'NONE',  ( -0.000000000000000000, -0.000000000000000000, -1.000000000000000000 ) ) ;
#50 = CARTESIAN_POINT ( 'NONE',  ( 0.3991500000000000048, 0.3067999999999999616, 0.01359999999999999924 ) ) ;
#51 = CARTESIAN_POINT ( 'NONE',  ( -399.3904807307744704, 0.3000000000490103957, 0.01359999999999999924 ) ) ;
#52 = ORIENTED_EDGE ( 'NONE', *, *, #577, .T. ) ;
#53 = AXIS2_PLACEMENT_3D ( 'NONE', #81, #991, #88 ) ;
#54 = CIRCLE ( 'NONE', #779, 0.0008500000000000174083 ) ;
#55 = CARTESIAN_POINT ( 'NONE',  ( 0.4008500000000000396, 0.3067999999999999616, 0.01359999999999999924 ) ) ;
#56 = CYLINDRICAL_SURFACE ( 'NONE', #1180, 0.0008500000000000174083 ) ;
#57 = ADVANCED_FACE ( 'NONE', ( #669 ), #477, .F. ) ;
#58 = VERTEX_POINT ( 'NONE', #664 ) ;
#59 = ORIENTED_EDGE ( 'NONE', *, *, #239, .T. ) ;
#60 = DIRECTION ( 'NONE',  ( -0.000000000000000000, -0.000000000000000000, -1.000000000000000000 ) ) ;
#61 = CIRCLE ( 'NONE', #224, 0.0008499999999999970253 ) ;
#62 = DIRECTION ( 'NONE',  ( -1.000000000000000000, 0.000000000000000000, 0.000000000000000000 ) ) ;
#63 = VERTEX_POINT ( 'NONE', #874 ) ;
#64 = ADVANCED_FACE ( 'NONE', ( #74 ), #70, .F. ) ;
#65 = CLOSED_SHELL ( 'NONE', ( #544, #64, #13, #418, #134, #383, #1055, #248, #95, #495, #1112, #924, #1061, #523, #651, #794, #845, #1139, #139, #359, #1076, #1149, #42, #272, #228, #1233, #57, #1217, #697, #345, #885, #146, #1215, #538, #741, #748 ) ) ;
#66 = ORIENTED_EDGE ( 'NONE', *, *, #464, .T. ) ;
#67 = VECTOR ( 'NONE', #237, 1.000000000000000000 ) ;
#68 = DIRECTION ( 'NONE',  ( -0.000000000000000000, -0.000000000000000000, -1.000000000000000000 ) ) ;
#69 = FACE_OUTER_BOUND ( 'NONE', #923, .T. ) ;
#70 = CYLINDRICAL_SURFACE ( 'NONE', #789, 0.0008500000000000174083 ) ;
#71 = EDGE_LOOP ( 'NONE', ( #379, #175, #25, #47 ) ) ;
#72 = DIRECTION ( 'NONE',  ( 0.7999999999563967013, 0.6000000000581379167, -0.000000000000000000 ) ) ;
#73 = LINE ( 'NONE', #1050, #1067 ) ;
#74 = FACE_OUTER_BOUND ( 'NONE', #211, .T. ) ;
#75 = ORIENTED_EDGE ( 'NONE', *, *, #594, .F. ) ;
#76 = EDGE_CURVE ( 'NONE', #781, #1105, #683, .T. ) ;
#77 = CARTESIAN_POINT ( 'NONE',  ( 0.8067999999999528882, 0.3136000000000302990, 0.01359999999999999924 ) ) ;
#78 = FACE_OUTER_BOUND ( 'NONE', #805, .T. ) ;
#79 = ORIENTED_EDGE ( 'NONE', *, *, #280, .T. ) ;
#80 = VECTOR ( 'NONE', #1200, 1.000000000000000000 ) ;
#81 = CARTESIAN_POINT ( 'NONE',  ( 0.8068000000331494448, -290.0378168014422613, 0.01359999999999999924 ) ) ;
#82 = VERTEX_POINT ( 'NONE', #462 ) ;
#83 = EDGE_CURVE ( 'NONE', #168, #63, #467, .T. ) ;
#84 = AXIS2_PLACEMENT_3D ( 'NONE', #698, #291, #588 ) ;
#85 = CARTESIAN_POINT ( 'NONE',  ( 0.8068000000331494448, -290.0378168014422613, 0.01359999999999999924 ) ) ;
#86 = LINE ( 'NONE', #1262, #1230 ) ;
#87 = ORIENTED_EDGE ( 'NONE', *, *, #572, .F. ) ;
#88 = DIRECTION ( 'NONE',  ( -1.142876642996158112E-13, 1.000000000000000000, 0.000000000000000000 ) ) ;
#89 = ORIENTED_EDGE ( 'NONE', *, *, #803, .T. ) ;
#90 = VECTOR ( 'NONE', #1220, 1.000000000000000000 ) ;
#91 = DIRECTION ( 'NONE',  ( -0.000000000000000000, -0.000000000000000000, -1.000000000000000000 ) ) ;
#92 = FACE_OUTER_BOUND ( 'NONE', #796, .T. ) ;
#93 = EDGE_CURVE ( 'NONE', #681, #1105, #881, .T. ) ;
#94 = VERTEX_POINT ( 'NONE', #593 ) ;
#95 = ADVANCED_FACE ( 'NONE', ( #1283 ), #1004, .F. ) ;
#96 = FACE_OUTER_BOUND ( 'NONE', #884, .T. ) ;
#97 = ORIENTED_EDGE ( 'NONE', *, *, #906, .F. ) ;
#98 = DIRECTION ( 'NONE',  ( -0.8000000000000009326, -0.5999999999999987566, 0.000000000000000000 ) ) ;
#99 = CARTESIAN_POINT ( 'NONE',  ( -0.3999999999395992822, 0.006799999999999970998, 0.01359999999999999924 ) ) ;
#100 = ORIENTED_EDGE ( 'NONE', *, *, #367, .F. ) ;
#101 = EDGE_CURVE ( 'NONE', #1231, #445, #404, .T. ) ;
#102 = LINE ( 'NONE', #398, #1183 ) ;
#103 = VERTEX_POINT ( 'NONE', #783 ) ;
#104 = LINE ( 'NONE', #85, #843 ) ;
#105 = CARTESIAN_POINT ( 'NONE',  ( -0.0007427100226999800749, 0.3067999999999999616, 0.000000000000000000 ) ) ;
#106 = EDGE_LOOP ( 'NONE', ( #276, #496, #128, #962 ) ) ;
#107 = DATE_TIME_ROLE ( 'creation_date' ) ;
#108 = EDGE_CURVE ( 'NONE', #370, #263, #226, .T. ) ;
#109 = CARTESIAN_POINT ( 'NONE',  ( -0.3991499999395992648, 0.006799999999999970998, 0.01359999999999999924 ) ) ;
#110 = DIRECTION ( 'NONE',  ( -0.000000000000000000, 1.000000000000000000, 0.000000000000000000 ) ) ;
#111 = VECTOR ( 'NONE', #142, 1.000000000000000000 ) ;
#112 = VECTOR ( 'NONE', #1170, 1.000000000000000000 ) ;
#113 = ORIENTED_EDGE ( 'NONE', *, *, #644, .T. ) ;
#114 = ORIENTED_EDGE ( 'NONE', *, *, #24, .F. ) ;
#115 = APPROVAL ( #904, 'UNSPECIFIED' ) ;
#116 = CARTESIAN_POINT ( 'NONE',  ( -399.3904807308099976, 0.000000000000000000, 0.01359999999999999924 ) ) ;
#117 = CARTESIAN_POINT ( 'NONE',  ( 0.02039999999999508873, 0.01359999999999672582, 0.01359999999999999924 ) ) ;
#118 = CARTESIAN_POINT ( 'NONE',  ( 0.4067999999999581950, 0.003400000000397085387, 0.01359999999999999924 ) ) ;
#119 = ORIENTED_EDGE ( 'NONE', *, *, #785, .F. ) ;
#120 = CIRCLE ( 'NONE', #1075, 0.0008500000000000174083 ) ;
#121 = DIRECTION ( 'NONE',  ( -0.000000000000000000, -0.000000000000000000, -1.000000000000000000 ) ) ;
#122 = ORIENTED_EDGE ( 'NONE', *, *, #1102, .T. ) ;
#123 = AXIS2_PLACEMENT_3D ( 'NONE', #575, #961, #1159 ) ;
#124 = CARTESIAN_POINT ( 'NONE',  ( -399.3904807308099976, 0.000000000000000000, 0.000000000000000000 ) ) ;
#125 = FACE_BOUND ( 'NONE', #945, .T. ) ;
#126 = VECTOR ( 'NONE', #529, 1.000000000000000000 ) ;
#127 = DIRECTION ( 'NONE',  ( 1.000000000000000000, 0.000000000000000000, 0.000000000000000000 ) ) ;
#128 = ORIENTED_EDGE ( 'NONE', *, *, #658, .F. ) ;
#129 = EDGE_LOOP ( 'NONE', ( #703, #655 ) ) ;
#130 = LINE ( 'NONE', #527, #1214 ) ;
#131 = CARTESIAN_POINT ( 'NONE',  ( 0.3991500000000000048, 0.006800000000000368250, 0.000000000000000000 ) ) ;
#132 = CARTESIAN_POINT ( 'NONE',  ( -0.3991499999395992648, 0.006799999999999970998, 0.000000000000000000 ) ) ;
#133 = ORIENTED_EDGE ( 'NONE', *, *, #948, .F. ) ;
#134 = ADVANCED_FACE ( 'NONE', ( #894 ), #498, .F. ) ;
#135 = DIRECTION ( 'NONE',  ( -9.306456414717465676E-18, -1.000000000000000000, 0.000000000000000000 ) ) ;
#136 = PLANE ( 'NONE',  #351 ) ;
#137 = DIRECTION ( 'NONE',  ( -0.000000000000000000, -0.000000000000000000, -1.000000000000000000 ) ) ;
#138 = ORIENTED_EDGE ( 'NONE', *, *, #1286, .T. ) ;
#139 = ADVANCED_FACE ( 'NONE', ( #1198 ), #900, .F. ) ;
#140 = PERSON_AND_ORGANIZATION_ROLE ( 'design_supplier' ) ;
#141 = PERSON_AND_ORGANIZATION ( #847, #855 ) ;
#142 = DIRECTION ( 'NONE',  ( -0.000000000000000000, -0.000000000000000000, -1.000000000000000000 ) ) ;
#143 = DIRECTION ( 'NONE',  ( -0.000000000000000000, 1.000000000000000000, 0.000000000000000000 ) ) ;
#144 = LINE ( 'NONE', #1212, #1245 ) ;
#145 = ORIENTED_EDGE ( 'NONE', *, *, #971, .T. ) ;
#146 = ADVANCED_FACE ( 'NONE', ( #92 ), #301, .F. ) ;
#147 = FACE_BOUND ( 'NONE', #525, .T. ) ;
#148 = DIRECTION ( 'NONE',  ( -0.000000000000000000, 0.000000000000000000, -1.000000000000000000 ) ) ;
#149 = CARTESIAN_POINT ( 'NONE',  ( 0.0009572899773000139757, 0.3067999999999999616, 0.01359999999999999924 ) ) ;
#150 = VERTEX_POINT ( 'NONE', #506 ) ;
#151 = ORIENTED_EDGE ( 'NONE', *, *, #704, .T. ) ;
#152 = VECTOR ( 'NONE', #540, 1.000000000000000000 ) ;
#153 = AXIS2_PLACEMENT_3D ( 'NONE', #528, #322, #929 ) ;
#154 = FACE_OUTER_BOUND ( 'NONE', #205, .T. ) ;
#155 = EDGE_CURVE ( 'NONE', #82, #158, #308, .T. ) ;
#156 = DIRECTION ( 'NONE',  ( -1.000000000000000000, -5.272107559733450248E-15, 0.000000000000000000 ) ) ;
#157 = CYLINDRICAL_SURFACE ( 'NONE', #491, 0.0008500000000000174083 ) ;
#158 = VERTEX_POINT ( 'NONE', #809 ) ;
#159 = AXIS2_PLACEMENT_3D ( 'NONE', #409, #692, #1088 ) ;
#160 = PLANE ( 'NONE',  #1150 ) ;
#161 = CARTESIAN_POINT ( 'NONE',  ( 0.8067999999999528882, 0.3136000000000302990, 0.000000000000000000 ) ) ;
#162 = LINE ( 'NONE', #1147, #560 ) ;
#163 = ORIENTED_EDGE ( 'NONE', *, *, #93, .T. ) ;
#164 = LOCAL_TIME ( 23, 42, 19.00000000000000000, #1038 ) ;
#165 = CARTESIAN_POINT ( 'NONE',  ( -394.9712437104984133, -295.9301328276780509, 0.01359999999999999924 ) ) ;
#166 = DIRECTION ( 'NONE',  ( 1.000000000000000000, 0.000000000000000000, 0.000000000000000000 ) ) ;
#167 = DIRECTION ( 'NONE',  ( -0.000000000000000000, -0.000000000000000000, -1.000000000000000000 ) ) ;
#168 = VERTEX_POINT ( 'NONE', #998 ) ;
#169 = EDGE_CURVE ( 'NONE', #468, #1171, #188, .T. ) ;
#170 = VECTOR ( 'NONE', #1151, 1.000000000000000000 ) ;
#171 = DIRECTION ( 'NONE',  ( -0.8000000000000004885, -0.5999999999999994227, 0.000000000000000000 ) ) ;
#172 = AXIS2_PLACEMENT_3D ( 'NONE', #691, #1087, #696 ) ;
#173 = CARTESIAN_POINT ( 'NONE',  ( -394.8272437324328621, -296.1221327993241630, 0.000000000000000000 ) ) ;
#174 = DIRECTION ( 'NONE',  ( 0.8000000000000009326, 0.5999999999999987566, 0.000000000000000000 ) ) ;
#175 = ORIENTED_EDGE ( 'NONE', *, *, #1152, .T. ) ;
#176 = EDGE_CURVE ( 'NONE', #103, #910, #1012, .T. ) ;
#177 = CYLINDRICAL_SURFACE ( 'NONE', #21, 0.0008500000000000000611 ) ;
#178 = ORIENTED_EDGE ( 'NONE', *, *, #1165, .T. ) ;
#179 = DIRECTION ( 'NONE',  ( -1.000000000000000000, 0.000000000000000000, 0.000000000000000000 ) ) ;
#180 = DIRECTION ( 'NONE',  ( -0.000000000000000000, -0.000000000000000000, -1.000000000000000000 ) ) ;
#181 = VECTOR ( 'NONE', #1123, 1.000000000000000000 ) ;
#182 = ORIENTED_EDGE ( 'NONE', *, *, #1259, .F. ) ;
#183 = VECTOR ( 'NONE', #813, 1.000000000000000000 ) ;
#184 = VECTOR ( 'NONE', #620, 1.000000000000000000 ) ;
#185 = DIRECTION ( 'NONE',  ( -0.000000000000000000, -0.000000000000000000, -1.000000000000000000 ) ) ;
#186 = VERTEX_POINT ( 'NONE', #483 ) ;
#187 = EDGE_CURVE ( 'NONE', #82, #400, #196, .T. ) ;
#188 = CIRCLE ( 'NONE', #84, 0.0008500000000000000611 ) ;
#189 = CARTESIAN_POINT ( 'NONE',  ( -0.4067999999999756255, -290.0378168014880202, 0.01359999999999999924 ) ) ;
#190 = DIRECTION ( 'NONE',  ( -1.000000000000000000, 0.000000000000000000, 0.000000000000000000 ) ) ;
#191 = ORIENTED_EDGE ( 'NONE', *, *, #327, .T. ) ;
#192 = LINE ( 'NONE', #892, #926 ) ;
#193 = VECTOR ( 'NONE', #766, 1.000000000000000000 ) ;
#194 = CARTESIAN_POINT ( 'NONE',  ( 0.7795999999421496796, 0.3000000000000113687, 0.01359999999999999924 ) ) ;
#195 = EDGE_CURVE ( 'NONE', #689, #1223, #1291, .T. ) ;
#196 = LINE ( 'NONE', #600, #982 ) ;
#197 = VERTEX_POINT ( 'NONE', #105 ) ;
#198 = DIRECTION ( 'NONE',  ( -0.000000000000000000, -0.000000000000000000, -1.000000000000000000 ) ) ;
#199 = ORIENTED_EDGE ( 'NONE', *, *, #925, .T. ) ;
#200 = CARTESIAN_POINT ( 'NONE',  ( 0.4000000000000000222, 0.3067999999999999616, 0.000000000000000000 ) ) ;
#201 = DIRECTION ( 'NONE',  ( -1.489033026589601422E-16, 1.000000000000000000, 0.000000000000000000 ) ) ;
#202 = EDGE_LOOP ( 'NONE', ( #297, #52, #1138, #433 ) ) ;
#203 = CARTESIAN_POINT ( 'NONE',  ( 0.8022666666064424135, 0.3000000000000063727, 0.000000000000000000 ) ) ;
#204 = CC_DESIGN_APPROVAL ( #115, ( #286 ) ) ;
#205 = EDGE_LOOP ( 'NONE', ( #656, #75, #1195, #59 ) ) ;
#206 = DIRECTION ( 'NONE',  ( -2.165853281167054930E-13, 1.000000000000000000, 0.000000000000000000 ) ) ;
#207 = DIRECTION ( 'NONE',  ( -0.000000000000000000, -0.000000000000000000, -1.000000000000000000 ) ) ;
#208 = ORIENTED_EDGE ( 'NONE', *, *, #302, .F. ) ;
#209 = EDGE_CURVE ( 'NONE', #536, #586, #353, .T. ) ;
#210 = CALENDAR_DATE ( 2025, 3, 9 ) ;
#211 = EDGE_LOOP ( 'NONE', ( #660, #814, #1113, #1173 ) ) ;
#212 = DIRECTION ( 'NONE',  ( -0.000000000000000000, 1.000000000000000000, 0.000000000000000000 ) ) ;
#213 = LINE ( 'NONE', #117, #935 ) ;
#214 = AXIS2_PLACEMENT_3D ( 'NONE', #877, #573, #694 ) ;
#215 = CARTESIAN_POINT ( 'NONE',  ( -4.647212664621076371E-14, 0.006799999999997863309, 0.000000000000000000 ) ) ;
#216 = VECTOR ( 'NONE', #91, 1.000000000000000000 ) ;
#217 = ORIENTED_EDGE ( 'NONE', *, *, #891, .T. ) ;
#218 = PERSON_AND_ORGANIZATION ( #847, #855 ) ;
#219 = ORIENTED_EDGE ( 'NONE', *, *, #1030, .F. ) ;
#220 = DIRECTION ( 'NONE',  ( 0.000000000000000000, -0.000000000000000000, 1.000000000000000000 ) ) ;
#221 = DIRECTION ( 'NONE',  ( 0.000000000000000000, 0.000000000000000000, 1.000000000000000000 ) ) ;
#222 = DIRECTION ( 'NONE',  ( -0.000000000000000000, -0.000000000000000000, -1.000000000000000000 ) ) ;
#223 = ORIENTED_EDGE ( 'NONE', *, *, #464, .F. ) ;
#224 = AXIS2_PLACEMENT_3D ( 'NONE', #265, #752, #166 ) ;
#225 = VERTEX_POINT ( 'NONE', #908 ) ;
#226 = CIRCLE ( 'NONE', #726, 0.0008500000000000174083 ) ;
#227 = PLANE ( 'NONE',  #1089 ) ;
#228 = ADVANCED_FACE ( 'NONE', ( #396 ), #684, .F. ) ;
#229 = LINE ( 'NONE', #635, #184 ) ;
#230 = APPROVAL_PERSON_ORGANIZATION ( #427, #1242, #826 ) ;
#231 = CARTESIAN_POINT ( 'NONE',  ( 0.0001072899773000169504, 0.3067999999999999616, 0.01359999999999999924 ) ) ;
#232 = EDGE_CURVE ( 'NONE', #1105, #781, #649, .T. ) ;
#233 = VERTEX_POINT ( 'NONE', #709 ) ;
#234 = DIRECTION ( 'NONE',  ( -0.000000000000000000, -0.000000000000000000, -1.000000000000000000 ) ) ;
#235 = VERTEX_POINT ( 'NONE', #1107 ) ;
#236 = LINE ( 'NONE', #1027, #90 ) ;
#237 = DIRECTION ( 'NONE',  ( -0.000000000000000000, -0.000000000000000000, -1.000000000000000000 ) ) ;
#238 = CARTESIAN_POINT ( 'NONE',  ( 0.4008500000000000396, 0.006800000000000368250, 0.000000000000000000 ) ) ;
#239 = EDGE_CURVE ( 'NONE', #1213, #225, #213, .T. ) ;
#240 = AXIS2_PLACEMENT_3D ( 'NONE', #897, #474, #996 ) ;
#241 = VERTEX_POINT ( 'NONE', #50 ) ;
#242 = CIRCLE ( 'NONE', #402, 0.0008499999999999970253 ) ;
#243 = PERSON_AND_ORGANIZATION ( #847, #855 ) ;
#244 = DIRECTION ( 'NONE',  ( 1.632680918418112539E-14, -1.000000000000000000, 0.000000000000000000 ) ) ;
#245 = DIRECTION ( 'NONE',  ( 1.000000000000000000, 0.000000000000000000, 0.000000000000000000 ) ) ;
#246 = CARTESIAN_POINT ( 'NONE',  ( 0.4000000000000000222, 0.3067999999999999616, 0.01359999999999999924 ) ) ;
#247 = ORIENTED_EDGE ( 'NONE', *, *, #401, .T. ) ;
#248 = ADVANCED_FACE ( 'NONE', ( #415, #45, #430, #1021, #125, #1228, #422, #641, #442, #436, #29 ), #842, .T. ) ;
#249 = CARTESIAN_POINT ( 'NONE',  ( 0.006800000000020079913, 0.3000000000000113687, 0.01359999999999999924 ) ) ;
#250 = CARTESIAN_POINT ( 'NONE',  ( 0.3931999999999788997, -290.0378168014880202, 0.01359999999999999924 ) ) ;
#251 = CARTESIAN_POINT ( 'NONE',  ( 0.3931999999999788997, 0.2932000000000698492, 0.01359999999999999924 ) ) ;
#252 = SECURITY_CLASSIFICATION ( '', '', #1133 ) ;
#253 = ORIENTED_EDGE ( 'NONE', *, *, #24, .T. ) ;
#254 = EDGE_CURVE ( 'NONE', #390, #1083, #775, .T. ) ;
#255 = CARTESIAN_POINT ( 'NONE',  ( 0.4068000000001461558, 0.02040000000135933078, 0.01359999999999999924 ) ) ;
#256 = DIRECTION ( 'NONE',  ( -0.000000000000000000, -0.000000000000000000, -1.000000000000000000 ) ) ;
#257 = FACE_OUTER_BOUND ( 'NONE', #901, .T. ) ;
#258 = ORIENTED_EDGE ( 'NONE', *, *, #964, .T. ) ;
#259 = AXIS2_PLACEMENT_3D ( 'NONE', #762, #264, #171 ) ;
#260 = CARTESIAN_POINT ( 'NONE',  ( -399.3904807308100544, 0.2999999999999545253, 0.000000000000000000 ) ) ;
#261 = LINE ( 'NONE', #173, #622 ) ;
#262 = DIRECTION ( 'NONE',  ( -0.000000000000000000, -0.000000000000000000, -1.000000000000000000 ) ) ;
#263 = VERTEX_POINT ( 'NONE', #131 ) ;
#264 = DIRECTION ( 'NONE',  ( -0.5999999999999994227, 0.8000000000000004885, 0.000000000000000000 ) ) ;
#265 = CARTESIAN_POINT ( 'NONE',  ( 0.0001072899773000169504, 0.3067999999999999616, 0.01359999999999999924 ) ) ;
#266 = EDGE_CURVE ( 'NONE', #1068, #832, #1278, .T. ) ;
#267 = EDGE_LOOP ( 'NONE', ( #970, #100, #927, #773 ) ) ;
#268 = ORIENTED_EDGE ( 'NONE', *, *, #1102, .F. ) ;
#269 = CARTESIAN_POINT ( 'NONE',  ( 0.000000000000000000, 0.000000000000000000, 0.01359999999999999924 ) ) ;
#270 = DIRECTION ( 'NONE',  ( 0.000000000000000000, 0.000000000000000000, 1.000000000000000000 ) ) ;
#271 = PLANE ( 'NONE',  #1124 ) ;
#272 = ADVANCED_FACE ( 'NONE', ( #330 ), #1122, .F. ) ;
#273 = ORIENTED_EDGE ( 'NONE', *, *, #169, .F. ) ;
#274 = DIRECTION ( 'NONE',  ( 1.000000000000000000, 5.272107559733450248E-15, 0.000000000000000000 ) ) ;
#275 = AXIS2_PLACEMENT_3D ( 'NONE', #1093, #1080, #179 ) ;
#276 = ORIENTED_EDGE ( 'NONE', *, *, #1043, .T. ) ;
#277 = DIRECTION ( 'NONE',  ( -1.000000000000000000, -2.165853281167054930E-13, 0.000000000000000000 ) ) ;
#278 = CARTESIAN_POINT ( 'NONE',  ( 0.4008500000000000396, 0.006800000000000368250, 0.01359999999999999924 ) ) ;
#279 = ORIENTED_EDGE ( 'NONE', *, *, #827, .F. ) ;
#280 = EDGE_CURVE ( 'NONE', #450, #617, #521, .T. ) ;
#281 = PLANE ( 'NONE',  #946 ) ;
#282 = VERTEX_POINT ( 'NONE', #1234 ) ;
#283 = CARTESIAN_POINT ( 'NONE',  ( -394.6914037104858721, -296.3032528276401081, 0.01359999999999999924 ) ) ;
#284 = DIRECTION ( 'NONE',  ( -0.7999999999564767483, -0.6000000000580312243, 0.000000000000000000 ) ) ;
#285 = ORIENTED_EDGE ( 'NONE', *, *, #187, .T. ) ;
#286 = PRODUCT_DEFINITION_FORMATION_WITH_SPECIFIED_SOURCE ( 'ANY', '', #624, .NOT_KNOWN. ) ;
#287 = VECTOR ( 'NONE', #1141, 0.9999999999999998890 ) ;
#288 = EDGE_CURVE ( 'NONE', #1223, #1257, #739, .T. ) ;
#289 = CARTESIAN_POINT ( 'NONE',  ( 0.8067999999999674321, 0.3000000000000113687, 0.01359999999999999924 ) ) ;
#290 = CARTESIAN_POINT ( 'NONE',  ( -0.4008499999395992996, 0.006799999999999970998, 0.000000000000000000 ) ) ;
#291 = DIRECTION ( 'NONE',  ( 0.000000000000000000, 0.000000000000000000, 1.000000000000000000 ) ) ;
#292 = ORIENTED_EDGE ( 'NONE', *, *, #711, .F. ) ;
#293 = LINE ( 'NONE', #486, #423 ) ;
#294 = VERTEX_POINT ( 'NONE', #342 ) ;
#295 = CYLINDRICAL_SURFACE ( 'NONE', #172, 0.0008500000000000174083 ) ;
#296 = CARTESIAN_POINT ( 'NONE',  ( 0.4000000000000000222, 0.006800000000000368250, 0.000000000000000000 ) ) ;
#297 = ORIENTED_EDGE ( 'NONE', *, *, #209, .T. ) ;
#298 = DIRECTION ( 'NONE',  ( -0.000000000000000000, -0.000000000000000000, -1.000000000000000000 ) ) ;
#299 = ORIENTED_EDGE ( 'NONE', *, *, #978, .F. ) ;
#300 = PLANE ( 'NONE',  #571 ) ;
#301 = CYLINDRICAL_SURFACE ( 'NONE', #520, 0.0008500000000000174083 ) ;
#302 = EDGE_CURVE ( 'NONE', #27, #370, #723, .T. ) ;
#303 = ORIENTED_EDGE ( 'NONE', *, *, #785, .T. ) ;
#304 = DIRECTION ( 'NONE',  ( 1.000000000000000000, 0.000000000000000000, 0.000000000000000000 ) ) ;
#305 = ORIENTED_EDGE ( 'NONE', *, *, #925, .F. ) ;
#306 = DIRECTION ( 'NONE',  ( -0.000000000000000000, -0.000000000000000000, -1.000000000000000000 ) ) ;
#307 = AXIS2_PLACEMENT_3D ( 'NONE', #99, #790, #190 ) ;
#308 = LINE ( 'NONE', #994, #1207 ) ;
#309 = EDGE_LOOP ( 'NONE', ( #1117, #860, #97, #1281 ) ) ;
#310 = EDGE_CURVE ( 'NONE', #27, #235, #959, .T. ) ;
#311 = DATE_AND_TIME ( #1001, #872 ) ;
#312 = ORIENTED_EDGE ( 'NONE', *, *, #176, .F. ) ;
#313 = LINE ( 'NONE', #255, #1006 ) ;
#314 = DIRECTION ( 'NONE',  ( -0.000000000000000000, -0.000000000000000000, -1.000000000000000000 ) ) ;
#315 = VECTOR ( 'NONE', #135, 1.000000000000000000 ) ;
#316 = LINE ( 'NONE', #542, #680 ) ;
#317 = ORIENTED_EDGE ( 'NONE', *, *, #978, .T. ) ;
#318 = CARTESIAN_POINT ( 'NONE',  ( -394.6832437104829410, -296.3141328276422541, 0.000000000000000000 ) ) ;
#319 = EDGE_CURVE ( 'NONE', #82, #94, #229, .T. ) ;
#320 = ORIENTED_EDGE ( 'NONE', *, *, #195, .F. ) ;
#321 = CARTESIAN_POINT ( 'NONE',  ( 0.0001072899773000169504, 0.3067999999999999616, 0.01359999999999999924 ) ) ;
#322 = DIRECTION ( 'NONE',  ( 0.000000000000000000, 0.000000000000000000, 1.000000000000000000 ) ) ;
#323 = DIRECTION ( 'NONE',  ( 1.000000000000000000, 0.000000000000000000, 0.000000000000000000 ) ) ;
#324 = EDGE_LOOP ( 'NONE', ( #89, #66, #992, #503 ) ) ;
#325 = LINE ( 'NONE', #1224, #183 ) ;
#326 = ORIENTED_EDGE ( 'NONE', *, *, #337, .T. ) ;
#327 = EDGE_CURVE ( 'NONE', #263, #370, #413, .T. ) ;
#328 = VECTOR ( 'NONE', #167, 1.000000000000000000 ) ;
#329 = FACE_OUTER_BOUND ( 'NONE', #1289, .T. ) ;
#330 = FACE_OUTER_BOUND ( 'NONE', #412, .T. ) ;
#331 = CARTESIAN_POINT ( 'NONE',  ( 0.7999999999999535261, 0.3067999999999999616, 0.01359999999999999924 ) ) ;
#332 = ORIENTED_EDGE ( 'NONE', *, *, #426, .F. ) ;
#333 = APPROVAL_DATE_TIME ( #1009, #1242 ) ;
#334 = CARTESIAN_POINT ( 'NONE',  ( -0.006800000082648693933, -290.0378168016017071, 0.01359999999999999924 ) ) ;
#335 = DIRECTION ( 'NONE',  ( -0.000000000000000000, -0.000000000000000000, -1.000000000000000000 ) ) ;
#336 = LINE ( 'NONE', #717, #126 ) ;
#337 = EDGE_CURVE ( 'NONE', #1231, #1036, #1040, .T. ) ;
#338 = CIRCLE ( 'NONE', #399, 0.0008500000000000174083 ) ;
#339 = ORIENTED_EDGE ( 'NONE', *, *, #731, .T. ) ;
#340 = AXIS2_PLACEMENT_3D ( 'NONE', #471, #206, #277 ) ;
#341 = DIRECTION ( 'NONE',  ( 0.000000000000000000, -1.000000000000000000, 0.000000000000000000 ) ) ;
#342 = CARTESIAN_POINT ( 'NONE',  ( -0.006799999999998362910, 0.3102000000451425876, 0.01359999999999999924 ) ) ;
#343 = DIRECTION ( 'NONE',  ( -0.000000000000000000, -0.000000000000000000, -1.000000000000000000 ) ) ;
#344 = EDGE_LOOP ( 'NONE', ( #589, #607, #582, #1199 ) ) ;
#345 = ADVANCED_FACE ( 'NONE', ( #716 ), #136, .F. ) ;
#346 = CIRCLE ( 'NONE', #1285, 0.0008500000000000174083 ) ;
#347 = FACE_OUTER_BOUND ( 'NONE', #1187, .T. ) ;
#348 = FACE_OUTER_BOUND ( 'NONE', #15, .T. ) ;
#349 = APPROVAL_PERSON_ORGANIZATION ( #141, #1086, #36 ) ;
#350 = ORIENTED_EDGE ( 'NONE', *, *, #266, .T. ) ;
#351 = AXIS2_PLACEMENT_3D ( 'NONE', #1221, #143, #541 ) ;
#352 = ORIENTED_EDGE ( 'NONE', *, *, #492, .T. ) ;
#353 = CIRCLE ( 'NONE', #1254, 0.0008499999999999970253 ) ;
#354 = CARTESIAN_POINT ( 'NONE',  ( 0.0009572899773000139757, 0.3067999999999999616, 0.000000000000000000 ) ) ;
#355 = CARTESIAN_POINT ( 'NONE',  ( -394.8354037324331216, -296.1112527993238928, 0.01359999999999999924 ) ) ;
#356 = CARTESIAN_POINT ( 'NONE',  ( 0.7999999999999535261, 0.3067999999999999616, 0.01359999999999999924 ) ) ;
#357 = ORIENTED_EDGE ( 'NONE', *, *, #492, .F. ) ;
#358 = CIRCLE ( 'NONE', #240, 0.0008500000000000000611 ) ;
#359 = ADVANCED_FACE ( 'NONE', ( #38 ), #943, .F. ) ;
#360 = CARTESIAN_POINT ( 'NONE',  ( -399.3904807308099976, 0.3000000000000113687, 0.000000000000000000 ) ) ;
#361 = EDGE_CURVE ( 'NONE', #1036, #1258, #546, .T. ) ;
#362 = DIRECTION ( 'NONE',  ( 0.7999999999563967013, 0.6000000000581379167, -0.000000000000000000 ) ) ;
#363 = ORIENTED_EDGE ( 'NONE', *, *, #834, .F. ) ;
#364 = ORIENTED_EDGE ( 'NONE', *, *, #361, .T. ) ;
#365 = FACE_BOUND ( 'NONE', #1078, .T. ) ;
#366 = UNCERTAINTY_MEASURE_WITH_UNIT (LENGTH_MEASURE( 1.000000000000000082E-05 ), #516, 'distance_accuracy_value', 'NONE');
#367 = EDGE_CURVE ( 'NONE', #35, #718, #431, .T. ) ;
#368 = LINE ( 'NONE', #1065, #579 ) ;
#369 = ORIENTED_EDGE ( 'NONE', *, *, #564, .T. ) ;
#370 = VERTEX_POINT ( 'NONE', #238 ) ;
#371 = FACE_OUTER_BOUND ( 'NONE', #710, .T. ) ;
#372 = VERTEX_POINT ( 'NONE', #1029 ) ;
#373 = LINE ( 'NONE', #482, #1134 ) ;
#374 = CARTESIAN_POINT ( 'NONE',  ( -0.006799999999998362910, -290.0378168014880202, 0.01359999999999999924 ) ) ;
#375 = EDGE_CURVE ( 'NONE', #197, #1096, #917, .T. ) ;
#376 = ORIENTED_EDGE ( 'NONE', *, *, #882, .T. ) ;
#377 = VECTOR ( 'NONE', #19, 1.000000000000000000 ) ;
#378 = CARTESIAN_POINT ( 'NONE',  ( 0.7991499999999535087, 0.3067999999999999616, 0.000000000000000000 ) ) ;
#379 = ORIENTED_EDGE ( 'NONE', *, *, #609, .F. ) ;
#380 = CYLINDRICAL_SURFACE ( 'NONE', #275, 0.0008500000000000174083 ) ;
#381 = LINE ( 'NONE', #1277, #515 ) ;
#382 = VERTEX_POINT ( 'NONE', #118 ) ;
#383 = ADVANCED_FACE ( 'NONE', ( #1241 ), #844, .F. ) ;
#384 = AXIS2_PLACEMENT_3D ( 'NONE', #534, #1240, #836 ) ;
#385 = CARTESIAN_POINT ( 'NONE',  ( -0.006799999999998362910, -290.0378168014880202, 0.000000000000000000 ) ) ;
#386 = EDGE_LOOP ( 'NONE', ( #1071, #633 ) ) ;
#387 = CARTESIAN_POINT ( 'NONE',  ( 0.7991499999999535087, 0.3067999999999999616, 0.01359999999999999924 ) ) ;
#388 = CARTESIAN_POINT ( 'NONE',  ( -0.3999999999395992822, 0.006799999999999970998, 0.01359999999999999924 ) ) ;
#389 = VECTOR ( 'NONE', #1054, 1.000000000000000000 ) ;
#390 = VERTEX_POINT ( 'NONE', #443 ) ;
#391 = VECTOR ( 'NONE', #1266, 1.000000000000000000 ) ;
#392 = AXIS2_PLACEMENT_3D ( 'NONE', #744, #1034, #921 ) ;
#393 = PLANE ( 'NONE',  #214 ) ;
#394 = ORIENTED_EDGE ( 'NONE', *, *, #987, .T. ) ;
#395 = CARTESIAN_POINT ( 'NONE',  ( 0.006800000000020113740, 0.02039999999999508873, 0.000000000000000000 ) ) ;
#396 = FACE_OUTER_BOUND ( 'NONE', #106, .T. ) ;
#397 = VERTEX_POINT ( 'NONE', #132 ) ;
#398 = CARTESIAN_POINT ( 'NONE',  ( -399.3904807309522198, 0.3135999998040119863, 0.01359999999999999924 ) ) ;
#399 = AXIS2_PLACEMENT_3D ( 'NONE', #3, #1077, #1070 ) ;
#400 = VERTEX_POINT ( 'NONE', #817 ) ;
#401 = EDGE_CURVE ( 'NONE', #1249, #63, #642, .T. ) ;
#402 = AXIS2_PLACEMENT_3D ( 'NONE', #581, #986, #997 ) ;
#403 = CARTESIAN_POINT ( 'NONE',  ( -394.8354037324331216, -296.1112527993238928, 0.000000000000000000 ) ) ;
#404 = LINE ( 'NONE', #913, #453 ) ;
#405 = ORIENTED_EDGE ( 'NONE', *, *, #2, .F. ) ;
#406 = VERTEX_POINT ( 'NONE', #1116 ) ;
#407 = CARTESIAN_POINT ( 'NONE',  ( 0.3796000000000390173, 0.3000000000000113687, 0.01359999999999999924 ) ) ;
#408 = PRODUCT_DEFINITION ( 'UNKNOWN', '', #286, #1162 ) ;
#409 = CARTESIAN_POINT ( 'NONE',  ( 0.7999999999999535261, 0.3067999999999999616, 0.000000000000000000 ) ) ;
#410 = ORIENTED_EDGE ( 'NONE', *, *, #288, .T. ) ;
#411 = CARTESIAN_POINT ( 'NONE',  ( 0.000000000000000000, 0.000000000000000000, 0.000000000000000000 ) ) ;
#412 = EDGE_LOOP ( 'NONE', ( #18, #292, #1062, #1279 ) ) ;
#413 = CIRCLE ( 'NONE', #392, 0.0008500000000000174083 ) ;
#414 = CARTESIAN_POINT ( 'NONE',  ( 0.3931999999999788997, 0.01359999999999672582, 0.000000000000000000 ) ) ;
#415 = FACE_BOUND ( 'NONE', #463, .T. ) ;
#416 = DIRECTION ( 'NONE',  ( -1.000000000000000000, 0.000000000000000000, 0.000000000000000000 ) ) ;
#417 = VERTEX_POINT ( 'NONE', #512 ) ;
#418 = ADVANCED_FACE ( 'NONE', ( #615 ), #1108, .F. ) ;
#419 =( NAMED_UNIT ( * ) SI_UNIT ( $, .STERADIAN. ) SOLID_ANGLE_UNIT ( ) );
#420 = ORIENTED_EDGE ( 'NONE', *, *, #1206, .F. ) ;
#421 = LINE ( 'NONE', #738, #713 ) ;
#422 = FACE_OUTER_BOUND ( 'NONE', #650, .T. ) ;
#423 = VECTOR ( 'NONE', #298, 1.000000000000000000 ) ;
#424 = DIRECTION ( 'NONE',  ( -1.000000000000000000, 7.203197266126848044E-15, 0.000000000000000000 ) ) ;
#425 = ORIENTED_EDGE ( 'NONE', *, *, #510, .F. ) ;
#426 = EDGE_CURVE ( 'NONE', #241, #1057, #22, .T. ) ;
#427 = PERSON_AND_ORGANIZATION ( #847, #855 ) ;
#428 = ORIENTED_EDGE ( 'NONE', *, *, #851, .T. ) ;
#429 = LINE ( 'NONE', #829, #315 ) ;
#430 = FACE_BOUND ( 'NONE', #1016, .T. ) ;
#431 = LINE ( 'NONE', #1013, #980 ) ;
#432 = AXIS2_PLACEMENT_3D ( 'NONE', #1045, #937, #1115 ) ;
#433 = ORIENTED_EDGE ( 'NONE', *, *, #1286, .F. ) ;
#434 = COORDINATED_UNIVERSAL_TIME_OFFSET ( 5, 0, .BEHIND. ) ;
#435 = DIRECTION ( 'NONE',  ( 0.000000000000000000, 0.000000000000000000, 1.000000000000000000 ) ) ;
#436 = FACE_BOUND ( 'NONE', #1051, .T. ) ;
#437 = DIRECTION ( 'NONE',  ( -1.224510672670707798E-13, -1.000000000000000000, 0.000000000000000000 ) ) ;
#438 = ORIENTED_EDGE ( 'NONE', *, *, #1174, .T. ) ;
#439 = DATE_AND_TIME ( #736, #164 ) ;
#440 = CARTESIAN_POINT ( 'NONE',  ( 0.0008499999999535279033, 0.006799999999997863309, 0.01359999999999999924 ) ) ;
#441 = EDGE_CURVE ( 'NONE', #718, #565, #336, .T. ) ;
#442 = FACE_BOUND ( 'NONE', #499, .T. ) ;
#443 = CARTESIAN_POINT ( 'NONE',  ( -0.006799999999995663680, 0.01359999999999672582, 0.01359999999999999924 ) ) ;
#444 = VECTOR ( 'NONE', #72, 1.000000000000000000 ) ;
#445 = VERTEX_POINT ( 'NONE', #39 ) ;
#446 = AXIS2_PLACEMENT_3D ( 'NONE', #553, #270, #668 ) ;
#447 = FACE_BOUND ( 'NONE', #1272, .T. ) ;
#448 = LINE ( 'NONE', #149, #16 ) ;
#449 = EDGE_LOOP ( 'NONE', ( #643, #549 ) ) ;
#450 = VERTEX_POINT ( 'NONE', #522 ) ;
#451 = VECTOR ( 'NONE', #1142, 1.000000000000000000 ) ;
#452 = FACE_BOUND ( 'NONE', #449, .T. ) ;
#453 = VECTOR ( 'NONE', #804, 1.000000000000000000 ) ;
#454 = DIRECTION ( 'NONE',  ( -0.000000000000000000, -0.000000000000000000, -1.000000000000000000 ) ) ;
#455 = CARTESIAN_POINT ( 'NONE',  ( 0.006800000000020112872, 0.02040000000000426195, 0.01359999999999999924 ) ) ;
#456 = AXIS2_PLACEMENT_3D ( 'NONE', #215, #740, #914 ) ;
#457 = ORIENTED_EDGE ( 'NONE', *, *, #891, .F. ) ;
#458 = EDGE_CURVE ( 'NONE', #1171, #468, #1025, .T. ) ;
#459 = EDGE_CURVE ( 'NONE', #282, #1213, #144, .T. ) ;
#460 = LINE ( 'NONE', #260, #654 ) ;
#461 = LINE ( 'NONE', #1246, #389 ) ;
#462 = CARTESIAN_POINT ( 'NONE',  ( -0.4067999999999756255, 0.000000000000000000, 0.01359999999999999924 ) ) ;
#463 = EDGE_LOOP ( 'NONE', ( #514, #769 ) ) ;
#464 = EDGE_CURVE ( 'NONE', #975, #468, #316, .T. ) ;
#465 = LINE ( 'NONE', #1140, #193 ) ;
#466 = CARTESIAN_POINT ( 'NONE',  ( -399.3904807308115323, 0.01359999999789351932, 0.000000000000000000 ) ) ;
#467 = LINE ( 'NONE', #568, #391 ) ;
#468 = VERTEX_POINT ( 'NONE', #621 ) ;
#469 = DIRECTION ( 'NONE',  ( -0.7999999999564190167, -0.6000000000581079407, 0.000000000000000000 ) ) ;
#470 = EDGE_CURVE ( 'NONE', #876, #1171, #1022, .T. ) ;
#471 = CARTESIAN_POINT ( 'NONE',  ( -399.3904807308728095, 0.01359999991359472915, 0.01359999999999999924 ) ) ;
#472 = ORIENTED_EDGE ( 'NONE', *, *, #288, .F. ) ;
#473 = EDGE_LOOP ( 'NONE', ( #784, #350 ) ) ;
#474 = DIRECTION ( 'NONE',  ( 0.000000000000000000, 0.000000000000000000, 1.000000000000000000 ) ) ;
#475 = CARTESIAN_POINT ( 'NONE',  ( 0.8008499999999535435, 0.3067999999999999616, 0.000000000000000000 ) ) ;
#476 = EDGE_CURVE ( 'NONE', #681, #58, #346, .T. ) ;
#477 = PLANE ( 'NONE',  #1248 ) ;
#478 = VERTEX_POINT ( 'NONE', #1229 ) ;
#479 = AXIS2_PLACEMENT_3D ( 'NONE', #116, #212, #220 ) ;
#480 = PLANE ( 'NONE',  #53 ) ;
#481 = ORIENTED_EDGE ( 'NONE', *, *, #596, .T. ) ;
#482 = CARTESIAN_POINT ( 'NONE',  ( -0.006800000082648693933, -290.0378168016017071, 0.000000000000000000 ) ) ;
#483 = CARTESIAN_POINT ( 'NONE',  ( -0.3796000000023695975, 0.01360000000005356924, 0.01359999999999999924 ) ) ;
#484 = CC_DESIGN_PERSON_AND_ORGANIZATION_ASSIGNMENT ( #243, #639, ( #252 ) ) ;
#485 = EDGE_LOOP ( 'NONE', ( #985, #299, #339, #729 ) ) ;
#486 = CARTESIAN_POINT ( 'NONE',  ( 0.8008499999999535435, 0.3067999999999999616, 0.01359999999999999924 ) ) ;
#487 = EDGE_LOOP ( 'NONE', ( #675, #878, #326, #364 ) ) ;
#488 = DIRECTION ( 'NONE',  ( -0.000000000000000000, -0.000000000000000000, -1.000000000000000000 ) ) ;
#489 = DIRECTION ( 'NONE',  ( -0.000000000000000000, -0.000000000000000000, -1.000000000000000000 ) ) ;
#490 = VERTEX_POINT ( 'NONE', #30 ) ;
#491 = AXIS2_PLACEMENT_3D ( 'NONE', #677, #262, #1164 ) ;
#492 = EDGE_CURVE ( 'NONE', #584, #801, #120, .T. ) ;
#493 = EDGE_CURVE ( 'NONE', #372, #233, #535, .T. ) ;
#494 = DIRECTION ( 'NONE',  ( -0.000000000000000000, 0.000000000000000000, -1.000000000000000000 ) ) ;
#495 = ADVANCED_FACE ( 'NONE', ( #938 ), #46, .T. ) ;
#496 = ORIENTED_EDGE ( 'NONE', *, *, #963, .F. ) ;
#497 = DIRECTION ( 'NONE',  ( 1.000000000000000000, 1.489033026589601422E-16, -0.000000000000000000 ) ) ;
#498 = CYLINDRICAL_SURFACE ( 'NONE', #307, 0.0008500000000000174083 ) ;
#499 = EDGE_LOOP ( 'NONE', ( #905, #957 ) ) ;
#500 = CC_DESIGN_PERSON_AND_ORGANIZATION_ASSIGNMENT ( #727, #531, ( #624 ) ) ;
#501 = PERSON_AND_ORGANIZATION ( #847, #855 ) ;
#502 = AXIS2_PLACEMENT_3D ( 'NONE', #44, #435, #835 ) ;
#503 = ORIENTED_EDGE ( 'NONE', *, *, #470, .F. ) ;
#504 = VECTOR ( 'NONE', #488, 1.000000000000000000 ) ;
#505 = CARTESIAN_POINT ( 'NONE',  ( -4.647212664621076371E-14, 0.006799999999997863309, 0.01359999999999999924 ) ) ;
#506 = CARTESIAN_POINT ( 'NONE',  ( -0.006799999999995670619, 0.2932000000441646881, 0.01359999999999999924 ) ) ;
#507 = ORIENTED_EDGE ( 'NONE', *, *, #319, .T. ) ;
#508 = EDGE_LOOP ( 'NONE', ( #611, #1052, #163, #770 ) ) ;
#509 = LINE ( 'NONE', #124, #1110 ) ;
#510 = EDGE_CURVE ( 'NONE', #742, #490, #950, .T. ) ;
#511 = DIRECTION ( 'NONE',  ( -0.6000000000580312243, 0.7999999999564767483, 0.000000000000000000 ) ) ;
#512 = CARTESIAN_POINT ( 'NONE',  ( 0.3796000000000390173, 0.3000000000000113687, 0.01359999999999999924 ) ) ;
#513 = AXIS2_PLACEMENT_3D ( 'NONE', #51, #437, #837 ) ;
#514 = ORIENTED_EDGE ( 'NONE', *, *, #232, .T. ) ;
#515 = VECTOR ( 'NONE', #859, 1.000000000000000000 ) ;
#516 =( LENGTH_UNIT ( ) NAMED_UNIT ( * ) SI_UNIT ( $, .METRE. ) );
#517 = CC_DESIGN_SECURITY_CLASSIFICATION ( #252, ( #286 ) ) ;
#518 = VERTEX_POINT ( 'NONE', #873 ) ;
#519 = CARTESIAN_POINT ( 'NONE',  ( -399.3904807308078944, 0.01360000000289574018, 0.000000000000000000 ) ) ;
#520 = AXIS2_PLACEMENT_3D ( 'NONE', #388, #207, #6 ) ;
#521 = LINE ( 'NONE', #732, #857 ) ;
#522 = CARTESIAN_POINT ( 'NONE',  ( -0.006799999999986011678, 0.3135999999996101906, 0.000000000000000000 ) ) ;
#523 = ADVANCED_FACE ( 'NONE', ( #1269 ), #745, .F. ) ;
#524 = ORIENTED_EDGE ( 'NONE', *, *, #554, .F. ) ;
#525 = EDGE_LOOP ( 'NONE', ( #357, #1179 ) ) ;
#526 = APPROVAL_DATE_TIME ( #1226, #1086 ) ;
#527 = CARTESIAN_POINT ( 'NONE',  ( -394.6914037104858721, -296.3032528276401081, 0.01359999999999999924 ) ) ;
#528 = CARTESIAN_POINT ( 'NONE',  ( 0.4000000000000000222, 0.3067999999999999616, 0.000000000000000000 ) ) ;
#529 = DIRECTION ( 'NONE',  ( -1.209839334104054653E-16, 1.000000000000000000, 0.000000000000000000 ) ) ;
#530 = ORIENTED_EDGE ( 'NONE', *, *, #493, .T. ) ;
#531 = PERSON_AND_ORGANIZATION_ROLE ( 'design_owner' ) ;
#532 = APPROVAL_STATUS ( 'not_yet_approved' ) ;
#533 = DIRECTION ( 'NONE',  ( 1.000000000000000000, 0.000000000000000000, -0.000000000000000000 ) ) ;
#534 = CARTESIAN_POINT ( 'NONE',  ( 0.000000000000000000, 0.000000000000000000, 0.000000000000000000 ) ) ;
#535 = LINE ( 'NONE', #724, #181 ) ;
#536 = VERTEX_POINT ( 'NONE', #954 ) ;
#537 = PERSON_AND_ORGANIZATION ( #847, #855 ) ;
#538 = ADVANCED_FACE ( 'NONE', ( #348 ), #1261, .F. ) ;
#539 = CALENDAR_DATE ( 2025, 3, 9 ) ;
#540 = DIRECTION ( 'NONE',  ( -0.000000000000000000, -0.000000000000000000, -1.000000000000000000 ) ) ;
#541 = DIRECTION ( 'NONE',  ( 0.000000000000000000, -0.000000000000000000, 1.000000000000000000 ) ) ;
#542 = CARTESIAN_POINT ( 'NONE',  ( 0.0008499999999535279033, 0.006799999999997863309, 0.01359999999999999924 ) ) ;
#543 = VERTEX_POINT ( 'NONE', #858 ) ;
#544 = ADVANCED_FACE ( 'NONE', ( #69 ), #56, .F. ) ;
#545 = FACE_BOUND ( 'NONE', #550, .T. ) ;
#546 = LINE ( 'NONE', #816, #751 ) ;
#547 = DIRECTION ( 'NONE',  ( 0.7999999999564190167, 0.6000000000581079407, 0.000000000000000000 ) ) ;
#548 = AXIS2_PLACEMENT_3D ( 'NONE', #958, #750, #856 ) ;
#549 = ORIENTED_EDGE ( 'NONE', *, *, #1165, .F. ) ;
#550 = EDGE_LOOP ( 'NONE', ( #761, #699 ) ) ;
#551 = VECTOR ( 'NONE', #1028, 1.000000000000000000 ) ;
#552 = LINE ( 'NONE', #953, #989 ) ;
#553 = CARTESIAN_POINT ( 'NONE',  ( -0.3999999999395992822, 0.006799999999999970998, 0.01359999999999999924 ) ) ;
#554 = EDGE_CURVE ( 'NONE', #801, #397, #368, .T. ) ;
#555 = DIRECTION ( 'NONE',  ( -1.000000000000000000, 1.224510672670707798E-13, 0.000000000000000000 ) ) ;
#556 = EDGE_CURVE ( 'NONE', #225, #103, #261, .T. ) ;
#557 = ORIENTED_EDGE ( 'NONE', *, *, #940, .F. ) ;
#558 = VECTOR ( 'NONE', #967, 1.000000000000000000 ) ;
#559 = PLANE ( 'NONE',  #548 ) ;
#560 = VECTOR ( 'NONE', #1154, 1.000000000000000000 ) ;
#561 = CARTESIAN_POINT ( 'NONE',  ( -394.9794037105104962, -295.9192528276640246, 0.01359999999999999924 ) ) ;
#562 = CC_DESIGN_APPROVAL ( #1086, ( #252 ) ) ;
#563 = ORIENTED_EDGE ( 'NONE', *, *, #195, .T. ) ;
#564 = EDGE_CURVE ( 'NONE', #586, #536, #61, .T. ) ;
#565 = VERTEX_POINT ( 'NONE', #663 ) ;
#566 = LINE ( 'NONE', #757, #1237 ) ;
#567 = CARTESIAN_POINT ( 'NONE',  ( 0.4008500000000000396, 0.3067999999999999616, 0.01359999999999999924 ) ) ;
#568 = CARTESIAN_POINT ( 'NONE',  ( -394.9794037105104962, -295.9192528276640246, 0.000000000000000000 ) ) ;
#569 = VECTOR ( 'NONE', #244, 1.000000000000000000 ) ;
#570 = ORIENTED_EDGE ( 'NONE', *, *, #1030, .T. ) ;
#571 = AXIS2_PLACEMENT_3D ( 'NONE', #189, #605, #1003 ) ;
#572 = EDGE_CURVE ( 'NONE', #584, #707, #574, .T. ) ;
#573 = DIRECTION ( 'NONE',  ( 1.000000000000000000, 1.632680918418112539E-14, -0.000000000000000000 ) ) ;
#574 = LINE ( 'NONE', #960, #451 ) ;
#575 = CARTESIAN_POINT ( 'NONE',  ( 0.7999999999999535261, 0.3067999999999999616, 0.000000000000000000 ) ) ;
#576 = EDGE_LOOP ( 'NONE', ( #828, #369, #138, #1209 ) ) ;
#577 = EDGE_CURVE ( 'NONE', #586, #1096, #448, .T. ) ;
#578 = DIRECTION ( 'NONE',  ( 1.000000000000000000, 0.000000000000000000, -0.000000000000000000 ) ) ;
#579 = VECTOR ( 'NONE', #454, 1.000000000000000000 ) ;
#580 = ORIENTED_EDGE ( 'NONE', *, *, #1037, .F. ) ;
#581 = CARTESIAN_POINT ( 'NONE',  ( 0.0001072899773000169504, 0.3067999999999999616, 0.000000000000000000 ) ) ;
#582 = ORIENTED_EDGE ( 'NONE', *, *, #459, .F. ) ;
#583 = AXIS2_PLACEMENT_3D ( 'NONE', #231, #1235, #23 ) ;
#584 = VERTEX_POINT ( 'NONE', #1146 ) ;
#585 = DIRECTION ( 'NONE',  ( -1.000000000000000000, 0.000000000000000000, 0.000000000000000000 ) ) ;
#586 = VERTEX_POINT ( 'NONE', #849 ) ;
#587 = DIRECTION ( 'NONE',  ( 0.000000000000000000, 0.000000000000000000, 1.000000000000000000 ) ) ;
#588 = DIRECTION ( 'NONE',  ( 1.000000000000000000, 0.000000000000000000, 0.000000000000000000 ) ) ;
#589 = ORIENTED_EDGE ( 'NONE', *, *, #834, .T. ) ;
#590 = CIRCLE ( 'NONE', #32, 0.0008500000000000174083 ) ;
#591 = FACE_OUTER_BOUND ( 'NONE', #1284, .T. ) ;
#592 = CARTESIAN_POINT ( 'NONE',  ( 0.3991500000000000048, 0.3067999999999999616, 0.01359999999999999924 ) ) ;
#593 = CARTESIAN_POINT ( 'NONE',  ( 0.4067999999999582506, 0.000000000000000000, 0.01359999999999999924 ) ) ;
#594 = EDGE_CURVE ( 'NONE', #665, #103, #1059, .T. ) ;
#595 = ORIENTED_EDGE ( 'NONE', *, *, #375, .T. ) ;
#596 = EDGE_CURVE ( 'NONE', #417, #35, #648, .T. ) ;
#597 = DIRECTION ( 'NONE',  ( 1.000000000000000000, 0.000000000000000000, 0.000000000000000000 ) ) ;
#598 = ORIENTED_EDGE ( 'NONE', *, *, #1095, .T. ) ;
#599 = DIRECTION ( 'NONE',  ( 0.000000000000000000, 0.000000000000000000, 1.000000000000000000 ) ) ;
#600 = CARTESIAN_POINT ( 'NONE',  ( -0.4067999999999756255, -290.0378168014880202, 0.01359999999999999924 ) ) ;
#601 = EDGE_LOOP ( 'NONE', ( #145, #778, #915, #133 ) ) ;
#602 = EDGE_CURVE ( 'NONE', #1042, #565, #461, .T. ) ;
#603 = COORDINATED_UNIVERSAL_TIME_OFFSET ( 5, 0, .BEHIND. ) ;
#604 = ORIENTED_EDGE ( 'NONE', *, *, #1095, .F. ) ;
#605 = DIRECTION ( 'NONE',  ( -1.000000000000000000, -0.000000000000000000, 0.000000000000000000 ) ) ;
#606 = DIRECTION ( 'NONE',  ( 1.000000000000000000, 0.000000000000000000, 0.000000000000000000 ) ) ;
#607 = ORIENTED_EDGE ( 'NONE', *, *, #239, .F. ) ;
#608 = CC_DESIGN_DATE_AND_TIME_ASSIGNMENT ( #439, #1219, ( #252 ) ) ;
#609 = EDGE_CURVE ( 'NONE', #1057, #1068, #653, .T. ) ;
#610 = VECTOR ( 'NONE', #1244, 1.000000000000000000 ) ;
#611 = ORIENTED_EDGE ( 'NONE', *, *, #1119, .F. ) ;
#612 = AXIS2_PLACEMENT_3D ( 'NONE', #283, #788, #1191 ) ;
#613 = CARTESIAN_POINT ( 'NONE',  ( -394.8272437324328621, -296.1221327993241630, 0.01359999999999999924 ) ) ;
#614 = DIRECTION ( 'NONE',  ( 1.000000000000000000, -7.203197266126848044E-15, 0.000000000000000000 ) ) ;
#615 = FACE_OUTER_BOUND ( 'NONE', #324, .T. ) ;
#616 = ORIENTED_EDGE ( 'NONE', *, *, #666, .F. ) ;
#617 = VERTEX_POINT ( 'NONE', #161 ) ;
#618 = EDGE_CURVE ( 'NONE', #186, #742, #73, .T. ) ;
#619 = FACE_OUTER_BOUND ( 'NONE', #576, .T. ) ;
#620 = DIRECTION ( 'NONE',  ( 1.000000000000000000, 0.000000000000000000, -0.000000000000000000 ) ) ;
#621 = CARTESIAN_POINT ( 'NONE',  ( 0.0008499999999535279033, 0.006799999999997863309, 0.000000000000000000 ) ) ;
#622 = VECTOR ( 'NONE', #767, 1.000000000000000000 ) ;
#623 = EDGE_LOOP ( 'NONE', ( #410, #1189, #457, #563 ) ) ;
#624 = PRODUCT ( 'TrussDesignAssign', 'TrussDesignAssign', '', ( #819 ) ) ;
#625 = LINE ( 'NONE', #1126, #1204 ) ;
#626 = VECTOR ( 'NONE', #121, 1.000000000000000000 ) ;
#627 = ORIENTED_EDGE ( 'NONE', *, *, #441, .F. ) ;
#628 = AXIS2_PLACEMENT_3D ( 'NONE', #1136, #221, #245 ) ;
#629 = DIRECTION ( 'NONE',  ( -1.000000000000000000, -4.898042755666812601E-13, 0.000000000000000000 ) ) ;
#630 = CARTESIAN_POINT ( 'NONE',  ( -399.3904807307744704, 0.3000000000490103957, 0.01359999999999999924 ) ) ;
#631 = DIRECTION ( 'NONE',  ( 0.000000000000000000, 0.000000000000000000, 1.000000000000000000 ) ) ;
#632 = ORIENTED_EDGE ( 'NONE', *, *, #1000, .T. ) ;
#633 = ORIENTED_EDGE ( 'NONE', *, *, #564, .F. ) ;
#634 = PLANE ( 'NONE',  #479 ) ;
#635 = CARTESIAN_POINT ( 'NONE',  ( -399.3904807308099976, 0.000000000000000000, 0.01359999999999999924 ) ) ;
#636 = CARTESIAN_POINT ( 'NONE',  ( 0.0001072899773000169504, 0.3067999999999999616, 0.000000000000000000 ) ) ;
#637 = ORIENTED_EDGE ( 'NONE', *, *, #940, .T. ) ;
#638 = EDGE_CURVE ( 'NONE', #1083, #742, #758, .T. ) ;
#639 = PERSON_AND_ORGANIZATION_ROLE ( 'classification_officer' ) ;
#640 = LINE ( 'NONE', #1039, #152 ) ;
#641 = FACE_BOUND ( 'NONE', #1010, .T. ) ;
#642 = LINE ( 'NONE', #1041, #1081 ) ;
#643 = ORIENTED_EDGE ( 'NONE', *, *, #803, .F. ) ;
#644 = EDGE_CURVE ( 'NONE', #801, #584, #1172, .T. ) ;
#645 = AXIS2_PLACEMENT_3D ( 'NONE', #411, #806, #304 ) ;
#646 = FACE_BOUND ( 'NONE', #1182, .T. ) ;
#647 = CARTESIAN_POINT ( 'NONE',  ( -0.006799999999995663680, 0.01359999999999672582, 0.01359999999999999924 ) ) ;
#648 = LINE ( 'NONE', #355, #747 ) ;
#649 = CIRCLE ( 'NONE', #159, 0.0008500000000000174083 ) ;
#650 = EDGE_LOOP ( 'NONE', ( #182, #428, #305, #1026, #394, #931, #303, #79, #734, #671 ) ) ;
#651 = ADVANCED_FACE ( 'NONE', ( #78 ), #1046, .T. ) ;
#652 = FACE_BOUND ( 'NONE', #386, .T. ) ;
#653 = LINE ( 'NONE', #567, #558 ) ;
#654 = VECTOR ( 'NONE', #657, 1.000000000000000000 ) ;
#655 = ORIENTED_EDGE ( 'NONE', *, *, #169, .T. ) ;
#656 = ORIENTED_EDGE ( 'NONE', *, *, #556, .T. ) ;
#657 = DIRECTION ( 'NONE',  ( 1.000000000000000000, 1.489033026589601422E-16, -0.000000000000000000 ) ) ;
#658 = EDGE_CURVE ( 'NONE', #1042, #417, #888, .T. ) ;
#659 = CARTESIAN_POINT ( 'NONE',  ( 0.4000000000000000222, 0.3067999999999999616, 0.01359999999999999924 ) ) ;
#660 = ORIENTED_EDGE ( 'NONE', *, *, #476, .T. ) ;
#661 = ORIENTED_EDGE ( 'NONE', *, *, #1157, .T. ) ;
#662 = DIRECTION ( 'NONE',  ( 0.000000000000000000, 0.000000000000000000, 1.000000000000000000 ) ) ;
#663 = CARTESIAN_POINT ( 'NONE',  ( 0.006800000000020079913, 0.3000000000000113687, 0.000000000000000000 ) ) ;
#664 = CARTESIAN_POINT ( 'NONE',  ( 0.8008499999999535435, 0.3067999999999999616, 0.01359999999999999924 ) ) ;
#665 = VERTEX_POINT ( 'NONE', #1177 ) ;
#666 = EDGE_CURVE ( 'NONE', #478, #718, #701, .T. ) ;
#667 = LINE ( 'NONE', #848, #610 ) ;
#668 = DIRECTION ( 'NONE',  ( 1.000000000000000000, 0.000000000000000000, 0.000000000000000000 ) ) ;
#669 = FACE_OUTER_BOUND ( 'NONE', #267, .T. ) ;
#670 = CIRCLE ( 'NONE', #839, 0.0008500000000000174083 ) ;
#671 = ORIENTED_EDGE ( 'NONE', *, *, #48, .T. ) ;
#672 = EDGE_CURVE ( 'NONE', #617, #445, #1282, .T. ) ;
#673 = VECTOR ( 'NONE', #156, 1.000000000000000000 ) ;
#674 = CARTESIAN_POINT ( 'NONE',  ( 0.4000000000000000222, 0.3067999999999999616, 0.01359999999999999924 ) ) ;
#675 = ORIENTED_EDGE ( 'NONE', *, *, #48, .F. ) ;
#676 = LINE ( 'NONE', #1184, #1238 ) ;
#677 = CARTESIAN_POINT ( 'NONE',  ( 0.4000000000000000222, 0.006800000000000368250, 0.01359999999999999924 ) ) ;
#678 = ORIENTED_EDGE ( 'NONE', *, *, #865, .T. ) ;
#679 = CARTESIAN_POINT ( 'NONE',  ( -4.647212664621076371E-14, 0.006799999999997863309, 0.01359999999999999924 ) ) ;
#680 = VECTOR ( 'NONE', #222, 1.000000000000000000 ) ;
#681 = VERTEX_POINT ( 'NONE', #387 ) ;
#682 = DIRECTION ( 'NONE',  ( 1.000000000000000000, 0.000000000000000000, 0.000000000000000000 ) ) ;
#683 = CIRCLE ( 'NONE', #123, 0.0008500000000000174083 ) ;
#684 = PLANE ( 'NONE',  #687 ) ;
#685 = AXIS2_PLACEMENT_3D ( 'NONE', #824, #922, #416 ) ;
#686 = ORIENTED_EDGE ( 'NONE', *, *, #987, .F. ) ;
#687 = AXIS2_PLACEMENT_3D ( 'NONE', #889, #201, #14 ) ;
#688 = CARTESIAN_POINT ( 'NONE',  ( -0.0008500000000464722188, 0.006799999999997863309, 0.000000000000000000 ) ) ;
#689 = VERTEX_POINT ( 'NONE', #194 ) ;
#690 = EDGE_CURVE ( 'NONE', #241, #832, #1276, .T. ) ;
#691 = CARTESIAN_POINT ( 'NONE',  ( 0.7999999999999535261, 0.3067999999999999616, 0.01359999999999999924 ) ) ;
#692 = DIRECTION ( 'NONE',  ( 0.000000000000000000, 0.000000000000000000, 1.000000000000000000 ) ) ;
#693 = EDGE_LOOP ( 'NONE', ( #11, #787, #1274, #420, #279, #438, #580, #1263, #507, #557 ) ) ;
#694 = DIRECTION ( 'NONE',  ( -1.632680918418112539E-14, 1.000000000000000000, 0.000000000000000000 ) ) ;
#695 = EDGE_LOOP ( 'NONE', ( #352, #1090, #868, #87 ) ) ;
#696 = DIRECTION ( 'NONE',  ( -1.000000000000000000, 0.000000000000000000, 0.000000000000000000 ) ) ;
#697 = ADVANCED_FACE ( 'NONE', ( #899 ), #5, .F. ) ;
#698 = CARTESIAN_POINT ( 'NONE',  ( -4.647212664621076371E-14, 0.006799999999997863309, 0.000000000000000000 ) ) ;
#699 = ORIENTED_EDGE ( 'NONE', *, *, #1190, .F. ) ;
#700 = LINE ( 'NONE', #886, #966 ) ;
#701 = LINE ( 'NONE', #403, #1007 ) ;
#702 = DIRECTION ( 'NONE',  ( 0.000000000000000000, -1.000000000000000000, 0.000000000000000000 ) ) ;
#703 = ORIENTED_EDGE ( 'NONE', *, *, #458, .T. ) ;
#704 = EDGE_CURVE ( 'NONE', #372, #689, #676, .T. ) ;
#705 = PERSON_AND_ORGANIZATION_ROLE ( 'creator' ) ;
#706 = AXIS2_PLACEMENT_3D ( 'NONE', #1203, #1192, #614 ) ;
#707 = VERTEX_POINT ( 'NONE', #290 ) ;
#708 = CARTESIAN_POINT ( 'NONE',  ( -0.0008500000000464722188, 0.006799999999997863309, 0.01359999999999999924 ) ) ;
#709 = CARTESIAN_POINT ( 'NONE',  ( 0.4068000000001461558, 0.02040000000135933078, 0.01359999999999999924 ) ) ;
#710 = EDGE_LOOP ( 'NONE', ( #219, #1, #530, #258 ) ) ;
#711 = EDGE_CURVE ( 'NONE', #150, #490, #979, .T. ) ;
#712 = DATE_AND_TIME ( #210, #1024 ) ;
#713 = VECTOR ( 'NONE', #936, 1.000000000000000000 ) ;
#714 = ORIENTED_EDGE ( 'NONE', *, *, #768, .T. ) ;
#715 = DIRECTION ( 'NONE',  ( -1.000000000000000000, 7.203197266126848044E-15, 0.000000000000000000 ) ) ;
#716 = FACE_OUTER_BOUND ( 'NONE', #807, .T. ) ;
#717 = CARTESIAN_POINT ( 'NONE',  ( 0.006800000000055206328, -290.0378168014879634, 0.000000000000000000 ) ) ;
#718 = VERTEX_POINT ( 'NONE', #395 ) ;
#719 = CARTESIAN_POINT ( 'NONE',  ( -0.0007427100226999800749, 0.3067999999999999616, 0.01359999999999999924 ) ) ;
#720 = ORIENTED_EDGE ( 'NONE', *, *, #690, .F. ) ;
#721 = COORDINATED_UNIVERSAL_TIME_OFFSET ( 5, 0, .BEHIND. ) ;
#722 = CARTESIAN_POINT ( 'NONE',  ( 0.006800000000055206328, -290.0378168014879634, 0.01359999999999999924 ) ) ;
#723 = LINE ( 'NONE', #830, #67 ) ;
#724 = CARTESIAN_POINT ( 'NONE',  ( 0.4067999999999756255, -290.0378168014880202, 0.01359999999999999924 ) ) ;
#725 = ORIENTED_EDGE ( 'NONE', *, *, #43, .F. ) ;
#726 = AXIS2_PLACEMENT_3D ( 'NONE', #296, #1186, #1082 ) ;
#727 = PERSON_AND_ORGANIZATION ( #847, #855 ) ;
#728 = APPROVAL_PERSON_ORGANIZATION ( #501, #115, #10 ) ;
#729 = ORIENTED_EDGE ( 'NONE', *, *, #101, .T. ) ;
#730 = DIRECTION ( 'NONE',  ( -4.898042755666812601E-13, 1.000000000000000000, 0.000000000000000000 ) ) ;
#731 = EDGE_CURVE ( 'NONE', #1236, #1231, #104, .T. ) ;
#732 = CARTESIAN_POINT ( 'NONE',  ( -399.3904807309522198, 0.3135999998040119863, 0.000000000000000000 ) ) ;
#733 = DIRECTION ( 'NONE',  ( 0.000000000000000000, 0.000000000000000000, 1.000000000000000000 ) ) ;
#734 = ORIENTED_EDGE ( 'NONE', *, *, #672, .T. ) ;
#735 = PERSON_AND_ORGANIZATION ( #847, #855 ) ;
#736 = CALENDAR_DATE ( 2025, 3, 9 ) ;
#737 = AXIS2_PLACEMENT_3D ( 'NONE', #321, #815, #1227 ) ;
#738 = CARTESIAN_POINT ( 'NONE',  ( -399.3904807308115323, 0.01359999999789351932, 0.01359999999999999924 ) ) ;
#739 = LINE ( 'NONE', #1211, #287 ) ;
#740 = DIRECTION ( 'NONE',  ( 0.000000000000000000, 0.000000000000000000, 1.000000000000000000 ) ) ;
#741 = ADVANCED_FACE ( 'NONE', ( #893 ), #295, .F. ) ;
#742 = VERTEX_POINT ( 'NONE', #1099 ) ;
#743 = CARTESIAN_POINT ( 'NONE',  ( 0.8022666666064424135, 0.3000000000000063727, 0.01359999999999999924 ) ) ;
#744 = CARTESIAN_POINT ( 'NONE',  ( 0.4000000000000000222, 0.006800000000000368250, 0.000000000000000000 ) ) ;
#745 = PLANE ( 'NONE',  #852 ) ;
#746 = ORIENTED_EDGE ( 'NONE', *, *, #906, .T. ) ;
#747 = VECTOR ( 'NONE', #973, 1.000000000000000000 ) ;
#748 = ADVANCED_FACE ( 'NONE', ( #1290 ), #380, .F. ) ;
#749 = LOCAL_TIME ( 23, 42, 19.00000000000000000, #434 ) ;
#750 = DIRECTION ( 'NONE',  ( -1.000000000000000000, 2.846987389516033907E-13, 0.000000000000000000 ) ) ;
#751 = VECTOR ( 'NONE', #314, 1.000000000000000000 ) ;
#752 = DIRECTION ( 'NONE',  ( 0.000000000000000000, 0.000000000000000000, 1.000000000000000000 ) ) ;
#753 = VECTOR ( 'NONE', #1094, 1.000000000000000000 ) ;
#754 = ORIENTED_EDGE ( 'NONE', *, *, #155, .T. ) ;
#755 = ORIENTED_EDGE ( 'NONE', *, *, #2, .T. ) ;
#756 = EDGE_CURVE ( 'NONE', #832, #1068, #54, .T. ) ;
#757 = CARTESIAN_POINT ( 'NONE',  ( 0.8067999999999528882, 0.3136000000000302990, 0.01359999999999999924 ) ) ;
#758 = LINE ( 'NONE', #466, #673 ) ;
#759 = VECTOR ( 'NONE', #1128, 1.000000000000000000 ) ;
#760 = ORIENTED_EDGE ( 'NONE', *, *, #1069, .T. ) ;
#761 = ORIENTED_EDGE ( 'NONE', *, *, #476, .F. ) ;
#762 = CARTESIAN_POINT ( 'NONE',  ( -394.8272437324328621, -296.1221327993241630, 0.01359999999999999924 ) ) ;
#763 = DIRECTION ( 'NONE',  ( -0.000000000000000000, -0.000000000000000000, -1.000000000000000000 ) ) ;
#764 = LINE ( 'NONE', #863, #328 ) ;
#765 = ORIENTED_EDGE ( 'NONE', *, *, #812, .F. ) ;
#766 = DIRECTION ( 'NONE',  ( 0.000000000000000000, -1.000000000000000000, 0.000000000000000000 ) ) ;
#767 = DIRECTION ( 'NONE',  ( 0.8000000000000004885, 0.5999999999999994227, -0.000000000000000000 ) ) ;
#768 = EDGE_CURVE ( 'NONE', #1096, #197, #242, .T. ) ;
#769 = ORIENTED_EDGE ( 'NONE', *, *, #76, .T. ) ;
#770 = ORIENTED_EDGE ( 'NONE', *, *, #76, .F. ) ;
#771 = APPLICATION_CONTEXT ( 'configuration controlled 3d designs of mechanical parts and assemblies' ) ;
#772 = DIRECTION ( 'NONE',  ( 5.272107559733450248E-15, -1.000000000000000000, 0.000000000000000000 ) ) ;
#773 = ORIENTED_EDGE ( 'NONE', *, *, #963, .T. ) ;
#774 = LINE ( 'NONE', #1018, #777 ) ;
#775 = LINE ( 'NONE', #647, #551 ) ;
#776 = CC_DESIGN_DATE_AND_TIME_ASSIGNMENT ( #311, #107, ( #408 ) ) ;
#777 = VECTOR ( 'NONE', #808, 1.000000000000000000 ) ;
#778 = ORIENTED_EDGE ( 'NONE', *, *, #302, .T. ) ;
#779 = AXIS2_PLACEMENT_3D ( 'NONE', #200, #599, #682 ) ;
#780 = CARTESIAN_POINT ( 'NONE',  ( -399.3904807308115323, 0.01359999999789351932, 0.01359999999999999924 ) ) ;
#781 = VERTEX_POINT ( 'NONE', #475 ) ;
#782 = DIRECTION ( 'NONE',  ( 2.846987389516033907E-13, 1.000000000000000000, -0.000000000000000000 ) ) ;
#783 = CARTESIAN_POINT ( 'NONE',  ( 0.3931999999999788997, 0.2932000000000698492, 0.000000000000000000 ) ) ;
#784 = ORIENTED_EDGE ( 'NONE', *, *, #756, .T. ) ;
#785 = EDGE_CURVE ( 'NONE', #168, #450, #373, .T. ) ;
#786 = DIRECTION ( 'NONE',  ( -1.000000000000000000, -1.209839334104054653E-16, 0.000000000000000000 ) ) ;
#787 = ORIENTED_EDGE ( 'NONE', *, *, #337, .F. ) ;
#788 = DIRECTION ( 'NONE',  ( 0.6000000000580255621, -0.7999999999564808562, 0.000000000000000000 ) ) ;
#789 = AXIS2_PLACEMENT_3D ( 'NONE', #356, #1056, #1073 ) ;
#790 = DIRECTION ( 'NONE',  ( -0.000000000000000000, -0.000000000000000000, -1.000000000000000000 ) ) ;
#791 = CC_DESIGN_APPROVAL ( #1242, ( #408 ) ) ;
#792 = AXIS2_PLACEMENT_3D ( 'NONE', #636, #733, #831 ) ;
#793 = ORIENTED_EDGE ( 'NONE', *, *, #871, .F. ) ;
#794 = ADVANCED_FACE ( 'NONE', ( #1196 ), #300, .T. ) ;
#795 = DIRECTION ( 'NONE',  ( -9.306456414717465676E-18, -1.000000000000000000, 0.000000000000000000 ) ) ;
#796 = EDGE_LOOP ( 'NONE', ( #524, #113, #1166, #1155 ) ) ;
#797 = CARTESIAN_POINT ( 'NONE',  ( 0.8068000000331494448, -290.0378168014422613, 0.000000000000000000 ) ) ;
#798 = CARTESIAN_POINT ( 'NONE',  ( 0.7795999999421496796, 0.3000000000000113687, 0.01359999999999999924 ) ) ;
#799 = ORIENTED_EDGE ( 'NONE', *, *, #1259, .T. ) ;
#800 = DIRECTION ( 'NONE',  ( 1.000000000000000000, 4.898042755666812601E-13, -0.000000000000000000 ) ) ;
#801 = VERTEX_POINT ( 'NONE', #109 ) ;
#802 = DIRECTION ( 'NONE',  ( 1.000000000000000000, 0.000000000000000000, -0.000000000000000000 ) ) ;
#803 = EDGE_CURVE ( 'NONE', #876, #975, #8, .T. ) ;
#804 = DIRECTION ( 'NONE',  ( -0.000000000000000000, -0.000000000000000000, -1.000000000000000000 ) ) ;
#805 = EDGE_LOOP ( 'NONE', ( #686, #1176, #1143, #247 ) ) ;
#806 = DIRECTION ( 'NONE',  ( 0.000000000000000000, 0.000000000000000000, 1.000000000000000000 ) ) ;
#807 = EDGE_LOOP ( 'NONE', ( #760, #320, #909, #661 ) ) ;
#808 = DIRECTION ( 'NONE',  ( -0.000000000000000000, 1.000000000000000000, 0.000000000000000000 ) ) ;
#809 = CARTESIAN_POINT ( 'NONE',  ( -0.4067999999999756255, 0.000000000000000000, 0.000000000000000000 ) ) ;
#810 = EDGE_CURVE ( 'NONE', #158, #518, #774, .T. ) ;
#811 = ORIENTED_EDGE ( 'NONE', *, *, #609, .T. ) ;
#812 = EDGE_CURVE ( 'NONE', #382, #1247, #1135, .T. ) ;
#813 = DIRECTION ( 'NONE',  ( -0.000000000000000000, -0.000000000000000000, -1.000000000000000000 ) ) ;
#814 = ORIENTED_EDGE ( 'NONE', *, *, #1119, .T. ) ;
#815 = DIRECTION ( 'NONE',  ( -0.000000000000000000, -0.000000000000000000, -1.000000000000000000 ) ) ;
#816 = CARTESIAN_POINT ( 'NONE',  ( 0.8022666666064424135, 0.3000000000000063727, 0.01359999999999999924 ) ) ;
#817 = CARTESIAN_POINT ( 'NONE',  ( -0.4067999999999756255, 0.01359999999999672582, 0.01359999999999999924 ) ) ;
#818 = ORIENTED_EDGE ( 'NONE', *, *, #756, .F. ) ;
#819 = MECHANICAL_CONTEXT ( 'NONE', #1103, 'mechanical' ) ;
#820 = VECTOR ( 'NONE', #1049, 1.000000000000000000 ) ;
#821 = EDGE_LOOP ( 'NONE', ( #981, #1074, #846, #896 ) ) ;
#822 = LINE ( 'NONE', #334, #759 ) ;
#823 = DIRECTION ( 'NONE',  ( -1.000000000000000000, 1.224510672670707798E-13, 0.000000000000000000 ) ) ;
#824 = CARTESIAN_POINT ( 'NONE',  ( -4.647212664621076371E-14, 0.006799999999997863309, 0.01359999999999999924 ) ) ;
#825 = ORIENTED_EDGE ( 'NONE', *, *, #310, .T. ) ;
#826 = APPROVAL_ROLE ( '' ) ;
#827 = EDGE_CURVE ( 'NONE', #294, #898, #822, .T. ) ;
#828 = ORIENTED_EDGE ( 'NONE', *, *, #577, .F. ) ;
#829 = CARTESIAN_POINT ( 'NONE',  ( -0.006799999999998362910, -290.0378168014880202, 0.01359999999999999924 ) ) ;
#830 = CARTESIAN_POINT ( 'NONE',  ( 0.4008500000000000396, 0.006800000000000368250, 0.01359999999999999924 ) ) ;
#831 = DIRECTION ( 'NONE',  ( 1.000000000000000000, 0.000000000000000000, 0.000000000000000000 ) ) ;
#832 = VERTEX_POINT ( 'NONE', #1202 ) ;
#833 = CALENDAR_DATE ( 2025, 3, 9 ) ;
#834 = EDGE_CURVE ( 'NONE', #910, #225, #911, .T. ) ;
#835 = DIRECTION ( 'NONE',  ( 1.000000000000000000, 0.000000000000000000, 0.000000000000000000 ) ) ;
#836 = DIRECTION ( 'NONE',  ( -1.000000000000000000, 0.000000000000000000, -0.000000000000000000 ) ) ;
#837 = DIRECTION ( 'NONE',  ( 1.000000000000000000, -1.224510672670707798E-13, 0.000000000000000000 ) ) ;
#838 = ORIENTED_EDGE ( 'NONE', *, *, #812, .T. ) ;
#839 = AXIS2_PLACEMENT_3D ( 'NONE', #942, #662, #947 ) ;
#840 = DIRECTION ( 'NONE',  ( 0.000000000000000000, 0.000000000000000000, -1.000000000000000000 ) ) ;
#841 = PRODUCT_RELATED_PRODUCT_CATEGORY ( 'detail', '', ( #624 ) ) ;
#842 = PLANE ( 'NONE',  #384 ) ;
#843 = VECTOR ( 'NONE', #993, 1.000000000000000000 ) ;
#844 = CYLINDRICAL_SURFACE ( 'NONE', #583, 0.0008499999999999970253 ) ;
#845 = ADVANCED_FACE ( 'NONE', ( #1011 ), #634, .F. ) ;
#846 = ORIENTED_EDGE ( 'NONE', *, *, #865, .F. ) ;
#847 = PERSON ( 'UNSPECIFIED', 'UNSPECIFIED', 'UNSPECIFIED', ('UNSPECIFIED'), ('UNSPECIFIED'), ('UNSPECIFIED') ) ;
#848 = CARTESIAN_POINT ( 'NONE',  ( -399.3904807308728095, 0.01359999991359472915, 0.01359999999999999924 ) ) ;
#849 = CARTESIAN_POINT ( 'NONE',  ( 0.0009572899773000139757, 0.3067999999999999616, 0.01359999999999999924 ) ) ;
#850 = ORIENTED_EDGE ( 'NONE', *, *, #810, .F. ) ;
#851 = EDGE_CURVE ( 'NONE', #1247, #543, #236, .T. ) ;
#852 = AXIS2_PLACEMENT_3D ( 'NONE', #561, #867, #547 ) ;
#853 = ORIENTED_EDGE ( 'NONE', *, *, #556, .F. ) ;
#854 = VECTOR ( 'NONE', #180, 1.000000000000000000 ) ;
#855 = ORGANIZATION ( 'UNSPECIFIED', 'UNSPECIFIED', '' ) ;
#856 = DIRECTION ( 'NONE',  ( -2.846987389516033907E-13, -1.000000000000000000, 0.000000000000000000 ) ) ;
#857 = VECTOR ( 'NONE', #1129, 1.000000000000000000 ) ;
#858 = CARTESIAN_POINT ( 'NONE',  ( 0.4067999999999582506, 0.000000000000000000, 0.000000000000000000 ) ) ;
#859 = DIRECTION ( 'NONE',  ( 0.7999999999564765263, 0.6000000000580312243, -0.000000000000000000 ) ) ;
#860 = ORIENTED_EDGE ( 'NONE', *, *, #602, .F. ) ;
#861 = LINE ( 'NONE', #360, #820 ) ;
#862 = DIRECTION ( 'NONE',  ( -0.000000000000000000, -0.000000000000000000, -1.000000000000000000 ) ) ;
#863 = CARTESIAN_POINT ( 'NONE',  ( -0.006799999999986011678, 0.3135999999996101906, 0.01359999999999999924 ) ) ;
#864 = ORIENTED_EDGE ( 'NONE', *, *, #401, .F. ) ;
#865 = EDGE_CURVE ( 'NONE', #390, #186, #421, .T. ) ;
#866 = CARTESIAN_POINT ( 'NONE',  ( 0.4067999999999756255, -290.0378168014880202, 0.000000000000000000 ) ) ;
#867 = DIRECTION ( 'NONE',  ( 0.6000000000581079407, -0.7999999999564190167, 0.000000000000000000 ) ) ;
#868 = ORIENTED_EDGE ( 'NONE', *, *, #933, .F. ) ;
#869 = ORIENTED_EDGE ( 'NONE', *, *, #1206, .T. ) ;
#870 = FACE_OUTER_BOUND ( 'NONE', #485, .T. ) ;
#871 = EDGE_CURVE ( 'NONE', #150, #390, #429, .T. ) ;
#872 = LOCAL_TIME ( 23, 42, 19.00000000000000000, #603 ) ;
#873 = CARTESIAN_POINT ( 'NONE',  ( -0.4067999999999756255, 0.01359999999999672582, 0.000000000000000000 ) ) ;
#874 = CARTESIAN_POINT ( 'NONE',  ( -0.4022666666670033919, 0.01360000000000972237, 0.000000000000000000 ) ) ;
#875 = VECTOR ( 'NONE', #702, 1.000000000000000000 ) ;
#876 = VERTEX_POINT ( 'NONE', #708 ) ;
#877 = CARTESIAN_POINT ( 'NONE',  ( 0.4068000000046936293, -290.0378168014814833, 0.01359999999999999924 ) ) ;
#878 = ORIENTED_EDGE ( 'NONE', *, *, #101, .F. ) ;
#879 = CARTESIAN_POINT ( 'NONE',  ( -399.3904807308100544, 0.2999999999999545253, 0.01359999999999999924 ) ) ;
#880 = CC_DESIGN_PERSON_AND_ORGANIZATION_ASSIGNMENT ( #537, #140, ( #286 ) ) ;
#881 = LINE ( 'NONE', #974, #854 ) ;
#882 = EDGE_CURVE ( 'NONE', #1213, #665, #1033, .T. ) ;
#883 = VECTOR ( 'NONE', #715, 1.000000000000000000 ) ;
#884 = EDGE_LOOP ( 'NONE', ( #1127, #765, #637, #598 ) ) ;
#885 = ADVANCED_FACE ( 'NONE', ( #619 ), #1106, .F. ) ;
#886 = CARTESIAN_POINT ( 'NONE',  ( -394.9794037105104962, -295.9192528276640246, 0.01359999999999999924 ) ) ;
#887 = ORIENTED_EDGE ( 'NONE', *, *, #1174, .F. ) ;
#888 = LINE ( 'NONE', #879, #969 ) ;
#889 = CARTESIAN_POINT ( 'NONE',  ( -399.3904807308100544, 0.2999999999999545253, 0.01359999999999999924 ) ) ;
#890 = ORIENTED_EDGE ( 'NONE', *, *, #176, .T. ) ;
#891 = EDGE_CURVE ( 'NONE', #689, #233, #130, .T. ) ;
#892 = CARTESIAN_POINT ( 'NONE',  ( 0.4067999999999756255, 0.3000000000000113687, 0.01359999999999999924 ) ) ;
#893 = FACE_OUTER_BOUND ( 'NONE', #508, .T. ) ;
#894 = FACE_OUTER_BOUND ( 'NONE', #695, .T. ) ;
#895 = AXIS2_PLACEMENT_3D ( 'NONE', #1084, #786, #1280 ) ;
#896 = ORIENTED_EDGE ( 'NONE', *, *, #254, .T. ) ;
#897 = CARTESIAN_POINT ( 'NONE',  ( -4.647212664621076371E-14, 0.006799999999997863309, 0.01359999999999999924 ) ) ;
#898 = VERTEX_POINT ( 'NONE', #37 ) ;
#899 = FACE_OUTER_BOUND ( 'NONE', #623, .T. ) ;
#900 = PLANE ( 'NONE',  #706 ) ;
#901 = EDGE_LOOP ( 'NONE', ( #122, #1148, #793, #977 ) ) ;
#902 = VECTOR ( 'NONE', #795, 1.000000000000000000 ) ;
#903 = AXIS2_PLACEMENT_3D ( 'NONE', #505, #587, #907 ) ;
#904 = APPROVAL_STATUS ( 'not_yet_approved' ) ;
#905 = ORIENTED_EDGE ( 'NONE', *, *, #933, .T. ) ;
#906 = EDGE_CURVE ( 'NONE', #35, #1042, #28, .T. ) ;
#907 = DIRECTION ( 'NONE',  ( 1.000000000000000000, 0.000000000000000000, 0.000000000000000000 ) ) ;
#908 = CARTESIAN_POINT ( 'NONE',  ( 0.02039999999999508526, 0.01360000000002512151, 0.000000000000000000 ) ) ;
#909 = ORIENTED_EDGE ( 'NONE', *, *, #704, .F. ) ;
#910 = VERTEX_POINT ( 'NONE', #414 ) ;
#911 = LINE ( 'NONE', #519, #883 ) ;
#912 = VECTOR ( 'NONE', #137, 1.000000000000000000 ) ;
#913 = CARTESIAN_POINT ( 'NONE',  ( 0.8067999999999674321, 0.3000000000000113687, 0.01359999999999999924 ) ) ;
#914 = DIRECTION ( 'NONE',  ( 1.000000000000000000, 0.000000000000000000, 0.000000000000000000 ) ) ;
#915 = ORIENTED_EDGE ( 'NONE', *, *, #327, .F. ) ;
#916 = AXIS2_PLACEMENT_3D ( 'NONE', #1268, #578, #494 ) ;
#917 = CIRCLE ( 'NONE', #792, 0.0008499999999999970253 ) ;
#918 = CARTESIAN_POINT ( 'NONE',  ( -0.4022666666670033919, 0.01360000000000972237, 0.01359999999999999924 ) ) ;
#919 = ORIENTED_EDGE ( 'NONE', *, *, #108, .T. ) ;
#920 = LINE ( 'NONE', #1232, #569 ) ;
#921 = DIRECTION ( 'NONE',  ( 1.000000000000000000, 0.000000000000000000, 0.000000000000000000 ) ) ;
#922 = DIRECTION ( 'NONE',  ( -0.000000000000000000, -0.000000000000000000, -1.000000000000000000 ) ) ;
#923 = EDGE_LOOP ( 'NONE', ( #1023, #811, #818, #720 ) ) ;
#924 = ADVANCED_FACE ( 'NONE', ( #329 ), #227, .T. ) ;
#925 = EDGE_CURVE ( 'NONE', #158, #543, #509, .T. ) ;
#926 = VECTOR ( 'NONE', #198, 1.000000000000000000 ) ;
#927 = ORIENTED_EDGE ( 'NONE', *, *, #596, .F. ) ;
#928 = CARTESIAN_POINT ( 'NONE',  ( 0.4067999999999581950, 0.003400000000397085387, 0.01359999999999999924 ) ) ;
#929 = DIRECTION ( 'NONE',  ( 1.000000000000000000, 0.000000000000000000, 0.000000000000000000 ) ) ;
#930 = DIRECTION ( 'NONE',  ( 0.000000000000000000, 0.000000000000000000, 1.000000000000000000 ) ) ;
#931 = ORIENTED_EDGE ( 'NONE', *, *, #83, .F. ) ;
#932 = MANIFOLD_SOLID_BREP ( 'Boss-Extrude1', #65 ) ;
#933 = EDGE_CURVE ( 'NONE', #707, #397, #1275, .T. ) ;
#934 = APPLICATION_PROTOCOL_DEFINITION ( 'international standard', 'config_control_design', 1994, #771 ) ;
#935 = VECTOR ( 'NONE', #335, 1.000000000000000000 ) ;
#936 = DIRECTION ( 'NONE',  ( -1.000000000000000000, -5.272107559733450248E-15, 0.000000000000000000 ) ) ;
#937 = DIRECTION ( 'NONE',  ( -0.6000000000581379167, 0.7999999999563967013, 0.000000000000000000 ) ) ;
#938 = FACE_OUTER_BOUND ( 'NONE', #487, .T. ) ;
#939 = ORIENTED_EDGE ( 'NONE', *, *, #1250, .F. ) ;
#940 = EDGE_CURVE ( 'NONE', #382, #94, #920, .T. ) ;
#941 = SHAPE_DEFINITION_REPRESENTATION ( #33, #1253 ) ;
#942 = CARTESIAN_POINT ( 'NONE',  ( 0.4000000000000000222, 0.006800000000000368250, 0.01359999999999999924 ) ) ;
#943 = PLANE ( 'NONE',  #1144 ) ;
#944 = DIRECTION ( 'NONE',  ( 1.000000000000000000, 0.000000000000000000, 0.000000000000000000 ) ) ;
#945 = EDGE_LOOP ( 'NONE', ( #9, #268, #425 ) ) ;
#946 = AXIS2_PLACEMENT_3D ( 'NONE', #780, #772, #274 ) ;
#947 = DIRECTION ( 'NONE',  ( 1.000000000000000000, 0.000000000000000000, 0.000000000000000000 ) ) ;
#948 = EDGE_CURVE ( 'NONE', #235, #263, #640, .T. ) ;
#949 = DIRECTION ( 'NONE',  ( 1.000000000000000000, 0.000000000000000000, -0.000000000000000000 ) ) ;
#950 = LINE ( 'NONE', #1153, #1121 ) ;
#951 = ORIENTED_EDGE ( 'NONE', *, *, #155, .F. ) ;
#952 = ORIENTED_EDGE ( 'NONE', *, *, #319, .F. ) ;
#953 = CARTESIAN_POINT ( 'NONE',  ( 0.4067999999999582506, 0.000000000000000000, 0.01359999999999999924 ) ) ;
#954 = CARTESIAN_POINT ( 'NONE',  ( -0.0007427100226999800749, 0.3067999999999999616, 0.01359999999999999924 ) ) ;
#955 = DIRECTION ( 'NONE',  ( 0.5999999999999987566, -0.8000000000000009326, 0.000000000000000000 ) ) ;
#956 = VECTOR ( 'NONE', #862, 1.000000000000000000 ) ;
#957 = ORIENTED_EDGE ( 'NONE', *, *, #1197, .T. ) ;
#958 = CARTESIAN_POINT ( 'NONE',  ( -0.006800000082648693933, -290.0378168016017071, 0.01359999999999999924 ) ) ;
#959 = CIRCLE ( 'NONE', #628, 0.0008500000000000174083 ) ;
#960 = CARTESIAN_POINT ( 'NONE',  ( -0.4008499999395992996, 0.006799999999999970998, 0.01359999999999999924 ) ) ;
#961 = DIRECTION ( 'NONE',  ( 0.000000000000000000, 0.000000000000000000, 1.000000000000000000 ) ) ;
#962 = ORIENTED_EDGE ( 'NONE', *, *, #602, .T. ) ;
#963 = EDGE_CURVE ( 'NONE', #417, #478, #12, .T. ) ;
#964 = EDGE_CURVE ( 'NONE', #233, #1257, #313, .T. ) ;
#965 = LINE ( 'NONE', #165, #444 ) ;
#966 = VECTOR ( 'NONE', #469, 1.000000000000000000 ) ;
#967 = DIRECTION ( 'NONE',  ( -0.000000000000000000, -0.000000000000000000, -1.000000000000000000 ) ) ;
#968 = DIRECTION ( 'NONE',  ( 1.000000000000000000, -9.306456414717464135E-18, 0.000000000000000000 ) ) ;
#969 = VECTOR ( 'NONE', #497, 1.000000000000000000 ) ;
#970 = ORIENTED_EDGE ( 'NONE', *, *, #666, .T. ) ;
#971 = EDGE_CURVE ( 'NONE', #235, #27, #670, .T. ) ;
#972 = DIRECTION ( 'NONE',  ( 0.000000000000000000, 0.000000000000000000, 1.000000000000000000 ) ) ;
#973 = DIRECTION ( 'NONE',  ( -0.8000000000000009326, -0.5999999999999987566, 0.000000000000000000 ) ) ;
#974 = CARTESIAN_POINT ( 'NONE',  ( 0.7991499999999535087, 0.3067999999999999616, 0.01359999999999999924 ) ) ;
#975 = VERTEX_POINT ( 'NONE', #440 ) ;
#976 = PLANE ( 'NONE',  #895 ) ;
#977 = ORIENTED_EDGE ( 'NONE', *, *, #711, .T. ) ;
#978 = EDGE_CURVE ( 'NONE', #1236, #617, #566, .T. ) ;
#979 = LINE ( 'NONE', #1072, #216 ) ;
#980 = VECTOR ( 'NONE', #1137, 1.000000000000000000 ) ;
#981 = ORIENTED_EDGE ( 'NONE', *, *, #638, .T. ) ;
#982 = VECTOR ( 'NONE', #110, 1.000000000000000000 ) ;
#983 = EDGE_LOOP ( 'NONE', ( #1205, #627, #616 ) ) ;
#984 = FACE_OUTER_BOUND ( 'NONE', #309, .T. ) ;
#985 = ORIENTED_EDGE ( 'NONE', *, *, #672, .F. ) ;
#986 = DIRECTION ( 'NONE',  ( 0.000000000000000000, 0.000000000000000000, 1.000000000000000000 ) ) ;
#987 = EDGE_CURVE ( 'NONE', #518, #63, #1239, .T. ) ;
#988 = CARTESIAN_POINT ( 'NONE',  ( 0.3931999999999788997, -290.0378168014880202, 0.000000000000000000 ) ) ;
#989 = VECTOR ( 'NONE', #60, 1.000000000000000000 ) ;
#990 = ORIENTED_EDGE ( 'NONE', *, *, #459, .T. ) ;
#991 = DIRECTION ( 'NONE',  ( 1.000000000000000000, 1.142876642996158112E-13, -0.000000000000000000 ) ) ;
#992 = ORIENTED_EDGE ( 'NONE', *, *, #458, .F. ) ;
#993 = DIRECTION ( 'NONE',  ( 1.142876642996158112E-13, -1.000000000000000000, 0.000000000000000000 ) ) ;
#994 = CARTESIAN_POINT ( 'NONE',  ( -0.4067999999999756255, 0.000000000000000000, 0.01359999999999999924 ) ) ;
#995 = ORIENTED_EDGE ( 'NONE', *, *, #594, .T. ) ;
#996 = DIRECTION ( 'NONE',  ( 1.000000000000000000, 0.000000000000000000, 0.000000000000000000 ) ) ;
#997 = DIRECTION ( 'NONE',  ( 1.000000000000000000, 0.000000000000000000, 0.000000000000000000 ) ) ;
#998 = CARTESIAN_POINT ( 'NONE',  ( -0.006799999999998362910, 0.3102000000451425876, 0.000000000000000000 ) ) ;
#999 = EDGE_LOOP ( 'NONE', ( #1243, #151, #217 ) ) ;
#1000 = EDGE_CURVE ( 'NONE', #186, #150, #965, .T. ) ;
#1001 = CALENDAR_DATE ( 2025, 3, 9 ) ;
#1002 = ORIENTED_EDGE ( 'NONE', *, *, #361, .F. ) ;
#1003 = DIRECTION ( 'NONE',  ( 0.000000000000000000, 0.000000000000000000, 1.000000000000000000 ) ) ;
#1004 = PLANE ( 'NONE',  #1287 ) ;
#1005 = EDGE_LOOP ( 'NONE', ( #850, #951, #285, #1125 ) ) ;
#1006 = VECTOR ( 'NONE', #68, 1.000000000000000000 ) ;
#1007 = VECTOR ( 'NONE', #98, 1.000000000000000000 ) ;
#1008 = CC_DESIGN_PERSON_AND_ORGANIZATION_ASSIGNMENT ( #735, #705, ( #408 ) ) ;
#1009 = DATE_AND_TIME ( #833, #749 ) ;
#1010 = EDGE_LOOP ( 'NONE', ( #1085, #570, #472 ) ) ;
#1011 = FACE_OUTER_BOUND ( 'NONE', #1032, .T. ) ;
#1012 = LINE ( 'NONE', #988, #875 ) ;
#1013 = CARTESIAN_POINT ( 'NONE',  ( 0.006800000000020113740, 0.02039999999999508873, 0.01359999999999999924 ) ) ;
#1014 = EDGE_LOOP ( 'NONE', ( #746, #1267, #481 ) ) ;
#1015 = PERSON_AND_ORGANIZATION_ROLE ( 'creator' ) ;
#1016 = EDGE_LOOP ( 'NONE', ( #595, #714 ) ) ;
#1017 = CC_DESIGN_PERSON_AND_ORGANIZATION_ASSIGNMENT ( #218, #1015, ( #286 ) ) ;
#1018 = CARTESIAN_POINT ( 'NONE',  ( -0.4067999999999756255, -290.0378168014880202, 0.000000000000000000 ) ) ;
#1019 = AXIS2_PLACEMENT_3D ( 'NONE', #1265, #763, #62 ) ;
#1020 = EDGE_CURVE ( 'NONE', #665, #282, #465, .T. ) ;
#1021 = FACE_BOUND ( 'NONE', #983, .T. ) ;
#1022 = LINE ( 'NONE', #1035, #912 ) ;
#1023 = ORIENTED_EDGE ( 'NONE', *, *, #426, .T. ) ;
#1024 = LOCAL_TIME ( 23, 42, 19.00000000000000000, #1104 ) ;
#1025 = CIRCLE ( 'NONE', #456, 0.0008500000000000000611 ) ;
#1026 = ORIENTED_EDGE ( 'NONE', *, *, #810, .T. ) ;
#1027 = CARTESIAN_POINT ( 'NONE',  ( 0.4068000000046936293, -290.0378168014814833, 0.000000000000000000 ) ) ;
#1028 = DIRECTION ( 'NONE',  ( -0.000000000000000000, -0.000000000000000000, -1.000000000000000000 ) ) ;
#1029 = CARTESIAN_POINT ( 'NONE',  ( 0.4067999999999756255, 0.3000000000000113687, 0.01359999999999999924 ) ) ;
#1030 = EDGE_CURVE ( 'NONE', #406, #1257, #1161, .T. ) ;
#1031 = ORIENTED_EDGE ( 'NONE', *, *, #971, .F. ) ;
#1032 = EDGE_LOOP ( 'NONE', ( #199, #604, #952, #754 ) ) ;
#1033 = LINE ( 'NONE', #613, #1048 ) ;
#1034 = DIRECTION ( 'NONE',  ( 0.000000000000000000, 0.000000000000000000, 1.000000000000000000 ) ) ;
#1035 = CARTESIAN_POINT ( 'NONE',  ( -0.0008500000000464722188, 0.006799999999997863309, 0.01359999999999999924 ) ) ;
#1036 = VERTEX_POINT ( 'NONE', #743 ) ;
#1037 = EDGE_CURVE ( 'NONE', #400, #1249, #667, .T. ) ;
#1038 = COORDINATED_UNIVERSAL_TIME_OFFSET ( 5, 0, .BEHIND. ) ;
#1039 = CARTESIAN_POINT ( 'NONE',  ( 0.3991500000000000048, 0.006800000000000368250, 0.01359999999999999924 ) ) ;
#1040 = LINE ( 'NONE', #630, #1185 ) ;
#1041 = CARTESIAN_POINT ( 'NONE',  ( -0.4022666666670033919, 0.01360000000000972237, 0.01359999999999999924 ) ) ;
#1042 = VERTEX_POINT ( 'NONE', #249 ) ;
#1043 = EDGE_CURVE ( 'NONE', #565, #478, #460, .T. ) ;
#1044 = FACE_BOUND ( 'NONE', #1014, .T. ) ;
#1045 = CARTESIAN_POINT ( 'NONE',  ( -394.9712437104984133, -295.9301328276780509, 0.01359999999999999924 ) ) ;
#1046 = PLANE ( 'NONE',  #340 ) ;
#1047 = ORIENTED_EDGE ( 'NONE', *, *, #108, .F. ) ;
#1048 = VECTOR ( 'NONE', #1120, 1.000000000000000000 ) ;
#1049 = DIRECTION ( 'NONE',  ( 1.000000000000000000, 0.000000000000000000, -0.000000000000000000 ) ) ;
#1050 = CARTESIAN_POINT ( 'NONE',  ( -0.3796000000023695975, 0.01360000000005356924, 0.01359999999999999924 ) ) ;
#1051 = EDGE_LOOP ( 'NONE', ( #191, #919 ) ) ;
#1052 = ORIENTED_EDGE ( 'NONE', *, *, #1190, .T. ) ;
#1053 = FACE_OUTER_BOUND ( 'NONE', #693, .T. ) ;
#1054 = DIRECTION ( 'NONE',  ( -0.000000000000000000, -0.000000000000000000, -1.000000000000000000 ) ) ;
#1055 = ADVANCED_FACE ( 'NONE', ( #1053, #646, #447, #1044, #1264, #652, #147, #452, #1260, #545, #365 ), #160, .F. ) ;
#1056 = DIRECTION ( 'NONE',  ( -0.000000000000000000, -0.000000000000000000, -1.000000000000000000 ) ) ;
#1057 = VERTEX_POINT ( 'NONE', #55 ) ;
#1058 = CARTESIAN_POINT ( 'NONE',  ( -399.3904807308728095, 0.01359999991359472915, 0.000000000000000000 ) ) ;
#1059 = LINE ( 'NONE', #251, #956 ) ;
#1060 = DIRECTION ( 'NONE',  ( 9.306456414717464135E-18, 1.000000000000000000, 0.000000000000000000 ) ) ;
#1061 = ADVANCED_FACE ( 'NONE', ( #347 ), #559, .T. ) ;
#1062 = ORIENTED_EDGE ( 'NONE', *, *, #1000, .F. ) ;
#1063 = PLANE ( 'NONE',  #259 ) ;
#1064 = AXIS2_PLACEMENT_3D ( 'NONE', #1288, #972, #597 ) ;
#1065 = CARTESIAN_POINT ( 'NONE',  ( -0.3991499999395992648, 0.006799999999999970998, 0.01359999999999999924 ) ) ;
#1066 = CARTESIAN_POINT ( 'NONE',  ( -394.8354037324331216, -296.1112527993238928, 0.01359999999999999924 ) ) ;
#1067 = VECTOR ( 'NONE', #1163, 1.000000000000000000 ) ;
#1068 = VERTEX_POINT ( 'NONE', #1145 ) ;
#1069 = EDGE_CURVE ( 'NONE', #406, #1223, #861, .T. ) ;
#1070 = DIRECTION ( 'NONE',  ( 1.000000000000000000, 0.000000000000000000, 0.000000000000000000 ) ) ;
#1071 = ORIENTED_EDGE ( 'NONE', *, *, #209, .F. ) ;
#1072 = CARTESIAN_POINT ( 'NONE',  ( -0.006799999999995661078, 0.2932000000442371856, 0.01359999999999999924 ) ) ;
#1073 = DIRECTION ( 'NONE',  ( -1.000000000000000000, 0.000000000000000000, 0.000000000000000000 ) ) ;
#1074 = ORIENTED_EDGE ( 'NONE', *, *, #618, .F. ) ;
#1075 = AXIS2_PLACEMENT_3D ( 'NONE', #1130, #1222, #323 ) ;
#1076 = ADVANCED_FACE ( 'NONE', ( #154 ), #1063, .F. ) ;
#1077 = DIRECTION ( 'NONE',  ( 0.000000000000000000, 0.000000000000000000, 1.000000000000000000 ) ) ;
#1078 = EDGE_LOOP ( 'NONE', ( #332, #1225 ) ) ;
#1079 = LOCAL_TIME ( 23, 42, 19.00000000000000000, #721 ) ;
#1080 = DIRECTION ( 'NONE',  ( -0.000000000000000000, -0.000000000000000000, -1.000000000000000000 ) ) ;
#1081 = VECTOR ( 'NONE', #343, 1.000000000000000000 ) ;
#1082 = DIRECTION ( 'NONE',  ( 1.000000000000000000, 0.000000000000000000, 0.000000000000000000 ) ) ;
#1083 = VERTEX_POINT ( 'NONE', #1156 ) ;
#1084 = CARTESIAN_POINT ( 'NONE',  ( 0.006800000000055206328, -290.0378168014879634, 0.01359999999999999924 ) ) ;
#1085 = ORIENTED_EDGE ( 'NONE', *, *, #1069, .F. ) ;
#1086 = APPROVAL ( #532, 'UNSPECIFIED' ) ;
#1087 = DIRECTION ( 'NONE',  ( -0.000000000000000000, -0.000000000000000000, -1.000000000000000000 ) ) ;
#1088 = DIRECTION ( 'NONE',  ( 1.000000000000000000, 0.000000000000000000, 0.000000000000000000 ) ) ;
#1089 = AXIS2_PLACEMENT_3D ( 'NONE', #1210, #730, #629 ) ;
#1090 = ORIENTED_EDGE ( 'NONE', *, *, #554, .T. ) ;
#1091 = CARTESIAN_POINT ( 'NONE',  ( 0.7795999999421496796, 0.3000000000000113687, 0.000000000000000000 ) ) ;
#1092 = ORIENTED_EDGE ( 'NONE', *, *, #310, .F. ) ;
#1093 = CARTESIAN_POINT ( 'NONE',  ( 0.4000000000000000222, 0.3067999999999999616, 0.01359999999999999924 ) ) ;
#1094 = DIRECTION ( 'NONE',  ( -0.000000000000000000, -0.000000000000000000, -1.000000000000000000 ) ) ;
#1095 = EDGE_CURVE ( 'NONE', #94, #543, #552, .T. ) ;
#1096 = VERTEX_POINT ( 'NONE', #354 ) ;
#1097 = FACE_OUTER_BOUND ( 'NONE', #821, .T. ) ;
#1098 = EDGE_LOOP ( 'NONE', ( #1031, #1092 ) ) ;
#1099 = CARTESIAN_POINT ( 'NONE',  ( -0.3796000000023695975, 0.01360000000005268106, -0.000000000000000000 ) ) ;
#1100 = DIRECTION ( 'NONE',  ( 0.000000000000000000, 0.000000000000000000, 1.000000000000000000 ) ) ;
#1101 = EDGE_LOOP ( 'NONE', ( #4, #864, #887, #253 ) ) ;
#1102 = EDGE_CURVE ( 'NONE', #490, #1083, #1273, .T. ) ;
#1103 = APPLICATION_CONTEXT ( 'configuration controlled 3d designs of mechanical parts and assemblies' ) ;
#1104 = COORDINATED_UNIVERSAL_TIME_OFFSET ( 5, 0, .BEHIND. ) ;
#1105 = VERTEX_POINT ( 'NONE', #378 ) ;
#1106 = CYLINDRICAL_SURFACE ( 'NONE', #737, 0.0008499999999999970253 ) ;
#1107 = CARTESIAN_POINT ( 'NONE',  ( 0.3991500000000000048, 0.006800000000000368250, 0.01359999999999999924 ) ) ;
#1108 = CYLINDRICAL_SURFACE ( 'NONE', #685, 0.0008500000000000000611 ) ;
#1109 = ORIENTED_EDGE ( 'NONE', *, *, #827, .T. ) ;
#1110 = VECTOR ( 'NONE', #533, 1.000000000000000000 ) ;
#1111 = APPROVAL_DATE_TIME ( #712, #115 ) ;
#1112 = ADVANCED_FACE ( 'NONE', ( #870 ), #480, .T. ) ;
#1113 = ORIENTED_EDGE ( 'NONE', *, *, #232, .F. ) ;
#1114 = DIRECTION ( 'NONE',  ( -0.7999999999564808562, -0.6000000000580256732, 0.000000000000000000 ) ) ;
#1115 = DIRECTION ( 'NONE',  ( -0.7999999999563967013, -0.6000000000581379167, 0.000000000000000000 ) ) ;
#1116 = CARTESIAN_POINT ( 'NONE',  ( 0.4067999999999756255, 0.3000000000000113687, 0.000000000000000000 ) ) ;
#1117 = ORIENTED_EDGE ( 'NONE', *, *, #441, .T. ) ;
#1118 = ORIENTED_EDGE ( 'NONE', *, *, #871, .T. ) ;
#1119 = EDGE_CURVE ( 'NONE', #58, #781, #293, .T. ) ;
#1120 = DIRECTION ( 'NONE',  ( 0.8000000000000004885, 0.5999999999999994227, -0.000000000000000000 ) ) ;
#1121 = VECTOR ( 'NONE', #362, 1.000000000000000000 ) ;
#1122 = PLANE ( 'NONE',  #432 ) ;
#1123 = DIRECTION ( 'NONE',  ( 0.000000000000000000, -1.000000000000000000, 0.000000000000000000 ) ) ;
#1124 = AXIS2_PLACEMENT_3D ( 'NONE', #374, #968, #1060 ) ;
#1125 = ORIENTED_EDGE ( 'NONE', *, *, #1270, .T. ) ;
#1126 = CARTESIAN_POINT ( 'NONE',  ( 0.3931999999999788997, 0.01359999999999672582, 0.01359999999999999924 ) ) ;
#1127 = ORIENTED_EDGE ( 'NONE', *, *, #851, .F. ) ;
#1128 = DIRECTION ( 'NONE',  ( 2.846987389516033907E-13, 1.000000000000000000, -0.000000000000000000 ) ) ;
#1129 = DIRECTION ( 'NONE',  ( 1.000000000000000000, 4.898042755666812601E-13, -0.000000000000000000 ) ) ;
#1130 = CARTESIAN_POINT ( 'NONE',  ( -0.3999999999395992822, 0.006799999999999970998, 0.01359999999999999924 ) ) ;
#1131 = ORIENTED_EDGE ( 'NONE', *, *, #280, .F. ) ;
#1132 = CIRCLE ( 'NONE', #1064, 0.0008500000000000174083 ) ;
#1133 = SECURITY_CLASSIFICATION_LEVEL ( 'unclassified' ) ;
#1134 = VECTOR ( 'NONE', #782, 1.000000000000000000 ) ;
#1135 = LINE ( 'NONE', #928, #111 ) ;
#1136 = CARTESIAN_POINT ( 'NONE',  ( 0.4000000000000000222, 0.006800000000000368250, 0.01359999999999999924 ) ) ;
#1137 = DIRECTION ( 'NONE',  ( -0.000000000000000000, -0.000000000000000000, -1.000000000000000000 ) ) ;
#1138 = ORIENTED_EDGE ( 'NONE', *, *, #375, .F. ) ;
#1139 = ADVANCED_FACE ( 'NONE', ( #96 ), #393, .T. ) ;
#1140 = CARTESIAN_POINT ( 'NONE',  ( 0.3931999999999788997, -290.0378168014880202, 0.01359999999999999924 ) ) ;
#1141 = DIRECTION ( 'NONE',  ( -0.7999999999564808562, -0.6000000000580256732, 0.000000000000000000 ) ) ;
#1142 = DIRECTION ( 'NONE',  ( -0.000000000000000000, -0.000000000000000000, -1.000000000000000000 ) ) ;
#1143 = ORIENTED_EDGE ( 'NONE', *, *, #1037, .T. ) ;
#1144 = AXIS2_PLACEMENT_3D ( 'NONE', #250, #949, #148 ) ;
#1145 = CARTESIAN_POINT ( 'NONE',  ( 0.4008500000000000396, 0.3067999999999999616, 0.000000000000000000 ) ) ;
#1146 = CARTESIAN_POINT ( 'NONE',  ( -0.4008499999395992996, 0.006799999999999970998, 0.01359999999999999924 ) ) ;
#1147 = CARTESIAN_POINT ( 'NONE',  ( -0.006799999999998362910, 0.3102000000451425876, 0.01359999999999999924 ) ) ;
#1148 = ORIENTED_EDGE ( 'NONE', *, *, #254, .F. ) ;
#1149 = ADVANCED_FACE ( 'NONE', ( #1097 ), #281, .F. ) ;
#1150 = AXIS2_PLACEMENT_3D ( 'NONE', #269, #840, #1255 ) ;
#1151 = DIRECTION ( 'NONE',  ( 1.000000000000000000, 2.165853281167054930E-13, -0.000000000000000000 ) ) ;
#1152 = EDGE_CURVE ( 'NONE', #1057, #241, #590, .T. ) ;
#1153 = CARTESIAN_POINT ( 'NONE',  ( -394.9712437104984133, -295.9301328276780509, 0.000000000000000000 ) ) ;
#1154 = DIRECTION ( 'NONE',  ( -0.000000000000000000, -0.000000000000000000, -1.000000000000000000 ) ) ;
#1155 = ORIENTED_EDGE ( 'NONE', *, *, #1197, .F. ) ;
#1156 = CARTESIAN_POINT ( 'NONE',  ( -0.006799999999995663680, 0.01359999999999672582, 0.000000000000000000 ) ) ;
#1157 = EDGE_CURVE ( 'NONE', #372, #406, #192, .T. ) ;
#1158 = DIRECTION ( 'NONE',  ( -1.000000000000000000, 0.000000000000000000, 0.000000000000000000 ) ) ;
#1159 = DIRECTION ( 'NONE',  ( 1.000000000000000000, 0.000000000000000000, 0.000000000000000000 ) ) ;
#1160 = EDGE_LOOP ( 'NONE', ( #363, #312, #853 ) ) ;
#1161 = LINE ( 'NONE', #866, #1169 ) ;
#1162 = DESIGN_CONTEXT ( 'detailed design', #771, 'design' ) ;
#1163 = DIRECTION ( 'NONE',  ( -0.000000000000000000, -0.000000000000000000, -1.000000000000000000 ) ) ;
#1164 = DIRECTION ( 'NONE',  ( -1.000000000000000000, 0.000000000000000000, 0.000000000000000000 ) ) ;
#1165 = EDGE_CURVE ( 'NONE', #975, #876, #358, .T. ) ;
#1166 = ORIENTED_EDGE ( 'NONE', *, *, #572, .T. ) ;
#1167 = DIRECTION ( 'NONE',  ( 0.000000000000000000, 0.000000000000000000, 1.000000000000000000 ) ) ;
#1168 = ORIENTED_EDGE ( 'NONE', *, *, #948, .T. ) ;
#1169 = VECTOR ( 'NONE', #341, 1.000000000000000000 ) ;
#1170 = DIRECTION ( 'NONE',  ( 1.142876642996158112E-13, -1.000000000000000000, 0.000000000000000000 ) ) ;
#1171 = VERTEX_POINT ( 'NONE', #688 ) ;
#1172 = CIRCLE ( 'NONE', #446, 0.0008500000000000174083 ) ;
#1173 = ORIENTED_EDGE ( 'NONE', *, *, #93, .F. ) ;
#1174 = EDGE_CURVE ( 'NONE', #294, #1249, #700, .T. ) ;
#1175 = DIRECTION ( 'NONE',  ( 1.000000000000000000, 0.000000000000000000, 0.000000000000000000 ) ) ;
#1176 = ORIENTED_EDGE ( 'NONE', *, *, #1270, .F. ) ;
#1177 = CARTESIAN_POINT ( 'NONE',  ( 0.3931999999999788997, 0.2932000000000125062, 0.01359999999999999924 ) ) ;
#1178 = CARTESIAN_POINT ( 'NONE',  ( 0.0001072899773000169504, 0.3067999999999999616, 0.01359999999999999924 ) ) ;
#1179 = ORIENTED_EDGE ( 'NONE', *, *, #644, .F. ) ;
#1180 = AXIS2_PLACEMENT_3D ( 'NONE', #659, #256, #1158 ) ;
#1181 = CARTESIAN_POINT ( 'NONE',  ( 0.02039999999999508873, 0.01359999999999672582, 0.01359999999999999924 ) ) ;
#1182 = EDGE_LOOP ( 'NONE', ( #1193, #990, #376 ) ) ;
#1183 = VECTOR ( 'NONE', #800, 1.000000000000000000 ) ;
#1184 = CARTESIAN_POINT ( 'NONE',  ( -399.3904807308099976, 0.3000000000000113687, 0.01359999999999999924 ) ) ;
#1185 = VECTOR ( 'NONE', #823, 1.000000000000000000 ) ;
#1186 = DIRECTION ( 'NONE',  ( 0.000000000000000000, 0.000000000000000000, 1.000000000000000000 ) ) ;
#1187 = EDGE_LOOP ( 'NONE', ( #119, #114, #1109, #755 ) ) ;
#1188 = PLANE ( 'NONE',  #916 ) ;
#1189 = ORIENTED_EDGE ( 'NONE', *, *, #964, .F. ) ;
#1190 = EDGE_CURVE ( 'NONE', #58, #681, #338, .T. ) ;
#1191 = DIRECTION ( 'NONE',  ( 0.7999999999564808562, 0.6000000000580255621, 0.000000000000000000 ) ) ;
#1192 = DIRECTION ( 'NONE',  ( -7.203197266126848044E-15, -1.000000000000000000, 0.000000000000000000 ) ) ;
#1193 = ORIENTED_EDGE ( 'NONE', *, *, #1020, .T. ) ;
#1194 = CARTESIAN_POINT ( 'NONE',  ( 0.4067999999999581950, 0.003400000000397085387, 0.000000000000000000 ) ) ;
#1195 = ORIENTED_EDGE ( 'NONE', *, *, #882, .F. ) ;
#1196 = FACE_OUTER_BOUND ( 'NONE', #1005, .T. ) ;
#1197 = EDGE_CURVE ( 'NONE', #397, #707, #1132, .T. ) ;
#1198 = FACE_OUTER_BOUND ( 'NONE', #344, .T. ) ;
#1199 = ORIENTED_EDGE ( 'NONE', *, *, #1250, .T. ) ;
#1200 = DIRECTION ( 'NONE',  ( 0.7999999999564765263, 0.6000000000580312243, -0.000000000000000000 ) ) ;
#1201 = EDGE_LOOP ( 'NONE', ( #799, #1002, #725, #838 ) ) ;
#1202 = CARTESIAN_POINT ( 'NONE',  ( 0.3991500000000000048, 0.3067999999999999616, 0.000000000000000000 ) ) ;
#1203 = CARTESIAN_POINT ( 'NONE',  ( -399.3904807308078944, 0.01360000000289574018, 0.01359999999999999924 ) ) ;
#1204 = VECTOR ( 'NONE', #234, 1.000000000000000000 ) ;
#1205 = ORIENTED_EDGE ( 'NONE', *, *, #1043, .F. ) ;
#1206 = EDGE_CURVE ( 'NONE', #898, #1236, #102, .T. ) ;
#1207 = VECTOR ( 'NONE', #489, 1.000000000000000000 ) ;
#1208 = APPLICATION_PROTOCOL_DEFINITION ( 'international standard', 'config_control_design', 1994, #1103 ) ;
#1209 = ORIENTED_EDGE ( 'NONE', *, *, #768, .F. ) ;
#1210 = CARTESIAN_POINT ( 'NONE',  ( -399.3904807309522198, 0.3135999998040119863, 0.01359999999999999924 ) ) ;
#1211 = CARTESIAN_POINT ( 'NONE',  ( -394.6914037104858721, -296.3032528276401081, 0.000000000000000000 ) ) ;
#1212 = CARTESIAN_POINT ( 'NONE',  ( -399.3904807308078944, 0.01360000000289574018, 0.01359999999999999924 ) ) ;
#1213 = VERTEX_POINT ( 'NONE', #1181 ) ;
#1214 = VECTOR ( 'NONE', #1114, 0.9999999999999998890 ) ;
#1215 = ADVANCED_FACE ( 'NONE', ( #591 ), #177, .F. ) ;
#1216 = CARTESIAN_POINT ( 'NONE',  ( 0.4068000000001461558, 0.02040000000135933078, 0.000000000000000000 ) ) ;
#1217 = ADVANCED_FACE ( 'NONE', ( #371 ), #1188, .T. ) ;
#1218 = EDGE_LOOP ( 'NONE', ( #890, #939, #31, #995 ) ) ;
#1219 = DATE_TIME_ROLE ( 'classification_date' ) ;
#1220 = DIRECTION ( 'NONE',  ( 1.632680918418112539E-14, -1.000000000000000000, 0.000000000000000000 ) ) ;
#1221 = CARTESIAN_POINT ( 'NONE',  ( -399.3904807308099976, 0.3000000000000113687, 0.01359999999999999924 ) ) ;
#1222 = DIRECTION ( 'NONE',  ( 0.000000000000000000, 0.000000000000000000, 1.000000000000000000 ) ) ;
#1223 = VERTEX_POINT ( 'NONE', #1091 ) ;
#1224 = CARTESIAN_POINT ( 'NONE',  ( -0.4067999999999756255, 0.01359999999999672582, 0.01359999999999999924 ) ) ;
#1225 = ORIENTED_EDGE ( 'NONE', *, *, #1152, .F. ) ;
#1226 = DATE_AND_TIME ( #539, #1079 ) ;
#1227 = DIRECTION ( 'NONE',  ( -1.000000000000000000, 0.000000000000000000, 0.000000000000000000 ) ) ;
#1228 = FACE_BOUND ( 'NONE', #1160, .T. ) ;
#1229 = CARTESIAN_POINT ( 'NONE',  ( 0.3796000000000389618, 0.3000000000000174194, -0.000000000000000000 ) ) ;
#1230 = VECTOR ( 'NONE', #555, 1.000000000000000000 ) ;
#1231 = VERTEX_POINT ( 'NONE', #289 ) ;
#1232 = CARTESIAN_POINT ( 'NONE',  ( 0.4068000000046936293, -290.0378168014814833, 0.01359999999999999924 ) ) ;
#1233 = ADVANCED_FACE ( 'NONE', ( #984 ), #976, .F. ) ;
#1234 = CARTESIAN_POINT ( 'NONE',  ( 0.3931999999999788997, 0.01359999999999672582, 0.01359999999999999924 ) ) ;
#1235 = DIRECTION ( 'NONE',  ( -0.000000000000000000, -0.000000000000000000, -1.000000000000000000 ) ) ;
#1236 = VERTEX_POINT ( 'NONE', #77 ) ;
#1237 = VECTOR ( 'NONE', #49, 1.000000000000000000 ) ;
#1238 = VECTOR ( 'NONE', #802, 1.000000000000000000 ) ;
#1239 = LINE ( 'NONE', #1058, #170 ) ;
#1240 = DIRECTION ( 'NONE',  ( 0.000000000000000000, 0.000000000000000000, -1.000000000000000000 ) ) ;
#1241 = FACE_OUTER_BOUND ( 'NONE', #202, .T. ) ;
#1242 = APPROVAL ( #41, 'UNSPECIFIED' ) ;
#1243 = ORIENTED_EDGE ( 'NONE', *, *, #493, .F. ) ;
#1244 = DIRECTION ( 'NONE',  ( 1.000000000000000000, 2.165853281167054930E-13, -0.000000000000000000 ) ) ;
#1245 = VECTOR ( 'NONE', #424, 1.000000000000000000 ) ;
#1246 = CARTESIAN_POINT ( 'NONE',  ( 0.006800000000020079913, 0.3000000000000113687, 0.01359999999999999924 ) ) ;
#1247 = VERTEX_POINT ( 'NONE', #1194 ) ;
#1248 = AXIS2_PLACEMENT_3D ( 'NONE', #1066, #955, #174 ) ;
#1249 = VERTEX_POINT ( 'NONE', #918 ) ;
#1250 = EDGE_CURVE ( 'NONE', #282, #910, #625, .T. ) ;
#1251 =( GEOMETRIC_REPRESENTATION_CONTEXT ( 3 ) GLOBAL_UNCERTAINTY_ASSIGNED_CONTEXT ( ( #366 ) ) GLOBAL_UNIT_ASSIGNED_CONTEXT ( ( #516, #26, #419 ) ) REPRESENTATION_CONTEXT ( 'NONE', 'WORKASPACE' ) );
#1252 = AXIS2_PLACEMENT_3D ( 'NONE', #246, #631, #944 ) ;
#1253 = ADVANCED_BREP_SHAPE_REPRESENTATION ( 'TrussDesignAssign', ( #932, #645 ), #1251 ) ;
#1254 = AXIS2_PLACEMENT_3D ( 'NONE', #1178, #1100, #606 ) ;
#1255 = DIRECTION ( 'NONE',  ( -1.000000000000000000, 0.000000000000000000, -0.000000000000000000 ) ) ;
#1256 = DIRECTION ( 'NONE',  ( -0.000000000000000000, -0.000000000000000000, -1.000000000000000000 ) ) ;
#1257 = VERTEX_POINT ( 'NONE', #1216 ) ;
#1258 = VERTEX_POINT ( 'NONE', #203 ) ;
#1259 = EDGE_CURVE ( 'NONE', #1247, #1258, #17, .T. ) ;
#1260 = FACE_BOUND ( 'NONE', #1098, .T. ) ;
#1261 = CYLINDRICAL_SURFACE ( 'NONE', #1019, 0.0008500000000000174083 ) ;
#1262 = CARTESIAN_POINT ( 'NONE',  ( -399.3904807307744704, 0.3000000000490103957, 0.000000000000000000 ) ) ;
#1263 = ORIENTED_EDGE ( 'NONE', *, *, #187, .F. ) ;
#1264 = FACE_BOUND ( 'NONE', #999, .T. ) ;
#1265 = CARTESIAN_POINT ( 'NONE',  ( 0.4000000000000000222, 0.006800000000000368250, 0.01359999999999999924 ) ) ;
#1266 = DIRECTION ( 'NONE',  ( -0.7999999999564190167, -0.6000000000581079407, 0.000000000000000000 ) ) ;
#1267 = ORIENTED_EDGE ( 'NONE', *, *, #658, .T. ) ;
#1268 = CARTESIAN_POINT ( 'NONE',  ( 0.4067999999999756255, -290.0378168014880202, 0.01359999999999999924 ) ) ;
#1269 = FACE_OUTER_BOUND ( 'NONE', #1101, .T. ) ;
#1270 = EDGE_CURVE ( 'NONE', #400, #518, #325, .T. ) ;
#1271 = FACE_OUTER_BOUND ( 'NONE', #601, .T. ) ;
#1272 = EDGE_LOOP ( 'NONE', ( #1118, #678, #632 ) ) ;
#1273 = LINE ( 'NONE', #385, #902 ) ;
#1274 = ORIENTED_EDGE ( 'NONE', *, *, #731, .F. ) ;
#1275 = CIRCLE ( 'NONE', #502, 0.0008500000000000174083 ) ;
#1276 = LINE ( 'NONE', #592, #504 ) ;
#1277 = CARTESIAN_POINT ( 'NONE',  ( -394.6832437104829410, -296.3141328276422541, 0.01359999999999999924 ) ) ;
#1278 = CIRCLE ( 'NONE', #153, 0.0008500000000000174083 ) ;
#1279 = ORIENTED_EDGE ( 'NONE', *, *, #618, .T. ) ;
#1280 = DIRECTION ( 'NONE',  ( 1.209839334104054653E-16, -1.000000000000000000, 0.000000000000000000 ) ) ;
#1281 = ORIENTED_EDGE ( 'NONE', *, *, #367, .T. ) ;
#1282 = LINE ( 'NONE', #797, #112 ) ;
#1283 = FACE_OUTER_BOUND ( 'NONE', #1201, .T. ) ;
#1284 = EDGE_LOOP ( 'NONE', ( #223, #178, #40, #273 ) ) ;
#1285 = AXIS2_PLACEMENT_3D ( 'NONE', #331, #930, #127 ) ;
#1286 = EDGE_CURVE ( 'NONE', #536, #197, #34, .T. ) ;
#1287 = AXIS2_PLACEMENT_3D ( 'NONE', #20, #511, #284 ) ;
#1288 = CARTESIAN_POINT ( 'NONE',  ( -0.3999999999395992822, 0.006799999999999970998, 0.000000000000000000 ) ) ;
#1289 = EDGE_LOOP ( 'NONE', ( #1131, #405, #869, #317 ) ) ;
#1290 = FACE_OUTER_BOUND ( 'NONE', #71, .T. ) ;
#1291 = LINE ( 'NONE', #798, #753 ) ;
ENDSEC;
END-ISO-10303-21;
