ISO-10303-21;
HEADER;
FILE_DESCRIPTION (( 'STEP AP203' ),
    '1' );
FILE_NAME ('DesignSomethingSmallPT2.STEP',
    '2025-09-05T23:01:20',
    ( '' ),
    ( '' ),
    'SwSTEP 2.0',
    'SolidWorks 2025',
    '' );
FILE_SCHEMA (( 'CONFIG_CONTROL_DESIGN' ));
ENDSEC;

DATA;
#1 = CARTESIAN_POINT ( 'NONE',  ( 0.5249999999999996891, 1.059915870975855157, -0.1250000000000000278 ) ) ;
#2 = VERTEX_POINT ( 'NONE', #141 ) ;
#3 = PERSON_AND_ORGANIZATION_ROLE ( 'design_owner' ) ;
#4 = VECTOR ( 'NONE', #231, 39.37007874015748143 ) ;
#5 = ORIENTED_EDGE ( 'NONE', *, *, #349, .F. ) ;
#6 = CARTESIAN_POINT ( 'NONE',  ( -0.5549479735599393004, 0.3500000000000000333, 0.1250000000000000278 ) ) ;
#7 = ORIENTED_EDGE ( 'NONE', *, *, #566, .T. ) ;
#8 = FACE_OUTER_BOUND ( 'NONE', #208, .T. ) ;
#9 = PERSON_AND_ORGANIZATION_ROLE ( 'classification_officer' ) ;
#10 = ORIENTED_EDGE ( 'NONE', *, *, #267, .F. ) ;
#11 = PERSON_AND_ORGANIZATION_ROLE ( 'design_supplier' ) ;
#12 = LINE ( 'NONE', #139, #739 ) ;
#13 = ORIENTED_EDGE ( 'NONE', *, *, #125, .F. ) ;
#14 = EDGE_CURVE ( 'NONE', #493, #321, #318, .T. ) ;
#15 = APPROVAL ( #494, 'UNSPECIFIED' ) ;
#16 = VECTOR ( 'NONE', #103, 39.37007874015748143 ) ;
#17 = ORIENTED_EDGE ( 'NONE', *, *, #214, .T. ) ;
#18 = DIRECTION ( 'NONE',  ( -6.829619984160661744E-17, 0.000000000000000000, -1.000000000000000000 ) ) ;
#19 = DIRECTION ( 'NONE',  ( -0.9659258262890699775, 0.2588190451025144667, 0.000000000000000000 ) ) ;
#20 = ORIENTED_EDGE ( 'NONE', *, *, #214, .F. ) ;
#21 = DIRECTION ( 'NONE',  ( 0.2588190451025148553, 0.9659258262890698665, 0.000000000000000000 ) ) ;
#22 = VECTOR ( 'NONE', #643, 39.37007874015748143 ) ;
#23 = CARTESIAN_POINT ( 'NONE',  ( 0.5249999999999999112, 1.059915870975855157, 0.1249999999999999167 ) ) ;
#24 = APPROVAL_PERSON_ORGANIZATION ( #64, #247, #67 ) ;
#25 = ORIENTED_EDGE ( 'NONE', *, *, #459, .F. ) ;
#26 = CARTESIAN_POINT ( 'NONE',  ( 0.08500000000000003386, 1.500000000000000222, 0.1249999999999999584 ) ) ;
#27 = PRODUCT_RELATED_PRODUCT_CATEGORY ( 'detail', '', ( #487 ) ) ;
#28 = DIRECTION ( 'NONE',  ( -0.000000000000000000, -1.000000000000000000, -0.000000000000000000 ) ) ;
#29 = ORIENTED_EDGE ( 'NONE', *, *, #155, .T. ) ;
#30 = CARTESIAN_POINT ( 'NONE',  ( -0.08500000000000001998, 1.500000000000000222, -0.1249999999999999306 ) ) ;
#31 = VECTOR ( 'NONE', #675, 39.37007874015748143 ) ;
#32 = FACE_OUTER_BOUND ( 'NONE', #461, .T. ) ;
#33 = CARTESIAN_POINT ( 'NONE',  ( 0.7500000000000001110, 0.000000000000000000, -0.1250000000000000555 ) ) ;
#34 = ORIENTED_EDGE ( 'NONE', *, *, #537, .F. ) ;
#35 = PLANE ( 'NONE',  #491 ) ;
#36 = CARTESIAN_POINT ( 'NONE',  ( 0.5249999999999999112, 1.220373372422044911, 0.1249999999999999167 ) ) ;
#37 = SECURITY_CLASSIFICATION ( '', '', #605 ) ;
#38 = VERTEX_POINT ( 'NONE', #678 ) ;
#39 = DIRECTION ( 'NONE',  ( 1.000000000000000000, 0.000000000000000000, 0.000000000000000000 ) ) ;
#40 = AXIS2_PLACEMENT_3D ( 'NONE', #539, #47, #71 ) ;
#41 = CARTESIAN_POINT ( 'NONE',  ( 0.08500000000000003386, 1.059915870975855379, 0.1249999999999999584 ) ) ;
#42 = ORIENTED_EDGE ( 'NONE', *, *, #373, .T. ) ;
#43 = LINE ( 'NONE', #84, #763 ) ;
#44 = PLANE ( 'NONE',  #769 ) ;
#45 = ORIENTED_EDGE ( 'NONE', *, *, #519, .T. ) ;
#46 = FACE_OUTER_BOUND ( 'NONE', #771, .T. ) ;
#47 = DIRECTION ( 'NONE',  ( 0.000000000000000000, -1.000000000000000000, 0.000000000000000000 ) ) ;
#48 = EDGE_CURVE ( 'NONE', #55, #265, #320, .T. ) ;
#49 = EDGE_CURVE ( 'NONE', #716, #521, #206, .T. ) ;
#50 = CARTESIAN_POINT ( 'NONE',  ( 0.08500000000000001998, 1.500000000000000222, -0.1249999999999999584 ) ) ;
#51 = EDGE_LOOP ( 'NONE', ( #695, #679, #133, #229, #534, #17, #283, #308, #721, #42, #699, #271, #198, #70, #556, #672, #428, #524, #357, #290 ) ) ;
#52 = VECTOR ( 'NONE', #89, 39.37007874015748143 ) ;
#53 = AXIS2_PLACEMENT_3D ( 'NONE', #322, #457, #209 ) ;
#54 = FACE_OUTER_BOUND ( 'NONE', #479, .T. ) ;
#55 = VERTEX_POINT ( 'NONE', #615 ) ;
#56 = ADVANCED_FACE ( 'NONE', ( #202 ), #552, .F. ) ;
#57 = ORIENTED_EDGE ( 'NONE', *, *, #767, .T. ) ;
#58 = ORIENTED_EDGE ( 'NONE', *, *, #736, .T. ) ;
#59 =( CONVERSION_BASED_UNIT ( 'INCH', #530 ) LENGTH_UNIT ( ) NAMED_UNIT ( #740 ) );
#60 = DIRECTION ( 'NONE',  ( -1.000000000000000000, 0.000000000000000000, 2.048885995248200865E-16 ) ) ;
#61 = AXIS2_PLACEMENT_3D ( 'NONE', #238, #220, #455 ) ;
#62 = ORIENTED_EDGE ( 'NONE', *, *, #404, .F. ) ;
#63 = CARTESIAN_POINT ( 'NONE',  ( 0.000000000000000000, 0.3500000000000000333, -0.1250000000000000555 ) ) ;
#64 = PERSON_AND_ORGANIZATION ( #262, #324 ) ;
#65 = LINE ( 'NONE', #735, #451 ) ;
#66 = EDGE_LOOP ( 'NONE', ( #729, #145, #118, #29 ) ) ;
#67 = APPROVAL_ROLE ( '' ) ;
#68 = EDGE_CURVE ( 'NONE', #485, #338, #503, .T. ) ;
#69 = PRODUCT_DEFINITION ( 'UNKNOWN', '', #128, #75 ) ;
#70 = ORIENTED_EDGE ( 'NONE', *, *, #187, .T. ) ;
#71 = DIRECTION ( 'NONE',  ( 0.000000000000000000, -0.000000000000000000, -1.000000000000000000 ) ) ;
#72 = PERSON_AND_ORGANIZATION ( #262, #324 ) ;
#73 = DIRECTION ( 'NONE',  ( 0.000000000000000000, 0.000000000000000000, 1.000000000000000000 ) ) ;
#74 = ORIENTED_EDGE ( 'NONE', *, *, #703, .T. ) ;
#75 = DESIGN_CONTEXT ( 'detailed design', #127, 'design' ) ;
#76 = VECTOR ( 'NONE', #686, 39.37007874015748143 ) ;
#77 = DATE_AND_TIME ( #192, #301 ) ;
#78 = PLANE ( 'NONE',  #525 ) ;
#79 = DIRECTION ( 'NONE',  ( 0.000000000000000000, 0.000000000000000000, 1.000000000000000000 ) ) ;
#80 = AXIS2_PLACEMENT_3D ( 'NONE', #216, #742, #278 ) ;
#81 = PLANE ( 'NONE',  #264 ) ;
#82 = CARTESIAN_POINT ( 'NONE',  ( -0.5149999999999997913, 1.059915870975855157, 0.1250000000000001110 ) ) ;
#83 = ORIENTED_EDGE ( 'NONE', *, *, #658, .F. ) ;
#84 = CARTESIAN_POINT ( 'NONE',  ( 0.5249999999999999112, 1.059915870975855157, 0.1249999999999999167 ) ) ;
#85 = LINE ( 'NONE', #444, #76 ) ;
#86 = VECTOR ( 'NONE', #359, 39.37007874015748143 ) ;
#87 = CARTESIAN_POINT ( 'NONE',  ( 0.5249999999999996891, 1.220373372422044911, 0.1349999999999999256 ) ) ;
#88 = VERTEX_POINT ( 'NONE', #501 ) ;
#89 = DIRECTION ( 'NONE',  ( 1.000000000000000000, -0.000000000000000000, 0.000000000000000000 ) ) ;
#90 = AXIS2_PLACEMENT_3D ( 'NONE', #610, #616, #73 ) ;
#91 = ORIENTED_EDGE ( 'NONE', *, *, #348, .F. ) ;
#92 = ORIENTED_EDGE ( 'NONE', *, *, #467, .T. ) ;
#93 = DIRECTION ( 'NONE',  ( 1.000000000000000000, 0.000000000000000000, -2.048885995248199879E-16 ) ) ;
#94 = VECTOR ( 'NONE', #292, 39.37007874015748143 ) ;
#95 = EDGE_CURVE ( 'NONE', #485, #305, #379, .T. ) ;
#96 = DIRECTION ( 'NONE',  ( 0.000000000000000000, 0.000000000000000000, 1.000000000000000000 ) ) ;
#97 = EDGE_CURVE ( 'NONE', #591, #493, #259, .T. ) ;
#98 = VERTEX_POINT ( 'NONE', #82 ) ;
#99 = CARTESIAN_POINT ( 'NONE',  ( -0.08500000000000001998, 1.500000000000000222, -0.1249999999999999306 ) ) ;
#100 = CARTESIAN_POINT ( 'NONE',  ( 0.5249999999999996891, 1.059915870975855157, -0.1250000000000000278 ) ) ;
#101 = LOCAL_TIME ( 19, 1, 20.00000000000000000, #665 ) ;
#102 = ORIENTED_EDGE ( 'NONE', *, *, #311, .T. ) ;
#103 = DIRECTION ( 'NONE',  ( -2.048885995248199879E-16, 0.000000000000000000, -1.000000000000000000 ) ) ;
#104 = DIRECTION ( 'NONE',  ( -0.000000000000000000, -1.000000000000000000, -0.000000000000000000 ) ) ;
#105 = VECTOR ( 'NONE', #378, 39.37007874015748143 ) ;
#106 = CARTESIAN_POINT ( 'NONE',  ( -0.08500000000000001998, 1.220373372422044911, -0.1249999999999999306 ) ) ;
#107 = VERTEX_POINT ( 'NONE', #746 ) ;
#108 = CC_DESIGN_PERSON_AND_ORGANIZATION_ASSIGNMENT ( #543, #419, ( #128 ) ) ;
#109 =( LENGTH_UNIT ( ) NAMED_UNIT ( * ) SI_UNIT ( $, .METRE. ) );
#110 = DIRECTION ( 'NONE',  ( 0.000000000000000000, -0.000000000000000000, -1.000000000000000000 ) ) ;
#111 = ORIENTED_EDGE ( 'NONE', *, *, #396, .T. ) ;
#112 = CARTESIAN_POINT ( 'NONE',  ( 0.08500000000000001998, 1.500000000000000222, -0.1249999999999999584 ) ) ;
#113 = DIRECTION ( 'NONE',  ( -6.829619984160661744E-17, 0.000000000000000000, -1.000000000000000000 ) ) ;
#114 = CARTESIAN_POINT ( 'NONE',  ( 0.08500000000000003386, 1.220373372422044911, 0.1249999999999999584 ) ) ;
#115 = ORIENTED_EDGE ( 'NONE', *, *, #418, .F. ) ;
#116 = CARTESIAN_POINT ( 'NONE',  ( 0.08500000000000004774, 1.454448637286710255, 0.1250000000000000278 ) ) ;
#117 = AXIS2_PLACEMENT_3D ( 'NONE', #752, #439, #222 ) ;
#118 = ORIENTED_EDGE ( 'NONE', *, *, #323, .F. ) ;
#119 = APPLICATION_PROTOCOL_DEFINITION ( 'international standard', 'config_control_design', 1994, #617 ) ;
#120 = CARTESIAN_POINT ( 'NONE',  ( 0.08500000000000001998, 1.059915870975855157, -0.1249999999999999584 ) ) ;
#121 = DIRECTION ( 'NONE',  ( 0.000000000000000000, -1.000000000000000000, 0.000000000000000000 ) ) ;
#122 = ORIENTED_EDGE ( 'NONE', *, *, #683, .T. ) ;
#123 = PLANE ( 'NONE',  #714 ) ;
#124 = ORIENTED_EDGE ( 'NONE', *, *, #454, .T. ) ;
#125 = EDGE_CURVE ( 'NONE', #456, #299, #555, .T. ) ;
#126 = DATE_TIME_ROLE ( 'classification_date' ) ;
#127 = APPLICATION_CONTEXT ( 'configuration controlled 3d designs of mechanical parts and assemblies' ) ;
#128 = PRODUCT_DEFINITION_FORMATION_WITH_SPECIFIED_SOURCE ( 'ANY', '', #487, .NOT_KNOWN. ) ;
#129 = AXIS2_PLACEMENT_3D ( 'NONE', #99, #632, #332 ) ;
#130 = ORIENTED_EDGE ( 'NONE', *, *, #658, .T. ) ;
#131 = ADVANCED_FACE ( 'NONE', ( #211 ), #263, .T. ) ;
#132 = EDGE_CURVE ( 'NONE', #747, #299, #450, .T. ) ;
#133 = ORIENTED_EDGE ( 'NONE', *, *, #372, .T. ) ;
#134 = APPROVAL_DATE_TIME ( #138, #15 ) ;
#135 = PLANE ( 'NONE',  #638 ) ;
#136 = APPROVAL ( #613, 'UNSPECIFIED' ) ;
#137 = ORIENTED_EDGE ( 'NONE', *, *, #334, .T. ) ;
#138 = DATE_AND_TIME ( #416, #201 ) ;
#139 = CARTESIAN_POINT ( 'NONE',  ( 0.5549479735599391894, 0.3500000000000000333, -0.1250000000000000555 ) ) ;
#140 = ADVANCED_FACE ( 'NONE', ( #682 ), #148, .T. ) ;
#141 = CARTESIAN_POINT ( 'NONE',  ( 0.5249999999999996891, 1.220373372422044911, -0.1250000000000000555 ) ) ;
#142 = VECTOR ( 'NONE', #644, 39.37007874015748143 ) ;
#143 = CARTESIAN_POINT ( 'NONE',  ( -0.4720055420679786229, 1.220373372422044911, 0.1349999999999999256 ) ) ;
#144 = VECTOR ( 'NONE', #630, 39.37007874015748143 ) ;
#145 = ORIENTED_EDGE ( 'NONE', *, *, #97, .F. ) ;
#146 = DIRECTION ( 'NONE',  ( 2.048885995248199879E-16, 0.000000000000000000, 1.000000000000000000 ) ) ;
#147 = DIRECTION ( 'NONE',  ( 2.731847993664264205E-16, 0.000000000000000000, 1.000000000000000000 ) ) ;
#148 = PLANE ( 'NONE',  #237 ) ;
#149 = ORIENTED_EDGE ( 'NONE', *, *, #459, .T. ) ;
#150 = CARTESIAN_POINT ( 'NONE',  ( -0.08500000000000001998, 1.500000000000000222, -0.1249999999999999306 ) ) ;
#151 = CARTESIAN_POINT ( 'NONE',  ( 0.7500000000000001110, 0.000000000000000000, 0.1250000000000000278 ) ) ;
#152 = CARTESIAN_POINT ( 'NONE',  ( -0.7500000000000001110, 0.2500000000000000000, 0.1250000000000000278 ) ) ;
#153 = ORIENTED_EDGE ( 'NONE', *, *, #373, .F. ) ;
#154 = CARTESIAN_POINT ( 'NONE',  ( -0.5149999999999997913, 1.059915870975855157, -0.1249999999999998335 ) ) ;
#155 = EDGE_CURVE ( 'NONE', #607, #321, #330, .T. ) ;
#156 = CC_DESIGN_PERSON_AND_ORGANIZATION_ASSIGNMENT ( #298, #3, ( #487 ) ) ;
#157 = LINE ( 'NONE', #389, #670 ) ;
#158 = ORIENTED_EDGE ( 'NONE', *, *, #311, .F. ) ;
#159 = CARTESIAN_POINT ( 'NONE',  ( -0.7500000000000001110, 0.2500000000000000000, 0.1250000000000000278 ) ) ;
#160 = CARTESIAN_POINT ( 'NONE',  ( 0.5249999999999996891, 1.220373372422044911, -0.1250000000000000555 ) ) ;
#161 = CARTESIAN_POINT ( 'NONE',  ( -0.08499999999999983957, 1.220373372422044911, -0.1249999999999999306 ) ) ;
#162 = DIRECTION ( 'NONE',  ( -1.000000000000000000, 0.000000000000000000, 2.048885995248200865E-16 ) ) ;
#163 = ORIENTED_EDGE ( 'NONE', *, *, #424, .F. ) ;
#164 = LINE ( 'NONE', #522, #611 ) ;
#165 = VECTOR ( 'NONE', #697, 39.37007874015748143 ) ;
#166 = DIRECTION ( 'NONE',  ( -0.000000000000000000, -1.000000000000000000, -0.000000000000000000 ) ) ;
#167 = ORIENTED_EDGE ( 'NONE', *, *, #765, .T. ) ;
#168 = CC_DESIGN_DATE_AND_TIME_ASSIGNMENT ( #726, #126, ( #37 ) ) ;
#169 = CARTESIAN_POINT ( 'NONE',  ( 0.000000000000000000, 0.3500000000000000333, -0.1250000000000000555 ) ) ;
#170 = CARTESIAN_POINT ( 'NONE',  ( -0.7500000000000001110, 0.000000000000000000, -0.1250000000000000555 ) ) ;
#171 = DIRECTION ( 'NONE',  ( 0.000000000000000000, 0.000000000000000000, 1.000000000000000000 ) ) ;
#172 = CARTESIAN_POINT ( 'NONE',  ( -0.08499999999999997835, 0.3500000000000000333, -0.1250000000000000555 ) ) ;
#173 = ORIENTED_EDGE ( 'NONE', *, *, #765, .F. ) ;
#174 = ORIENTED_EDGE ( 'NONE', *, *, #48, .F. ) ;
#175 = AXIS2_PLACEMENT_3D ( 'NONE', #717, #288, #646 ) ;
#176 = LINE ( 'NONE', #713, #477 ) ;
#177 = CARTESIAN_POINT ( 'NONE',  ( 0.4820055420679786318, 1.059915870975855157, -0.1250000000000000555 ) ) ;
#178 = ORIENTED_EDGE ( 'NONE', *, *, #634, .F. ) ;
#179 = DIRECTION ( 'NONE',  ( -0.2588190451025148553, -0.9659258262890698665, 0.000000000000000000 ) ) ;
#180 = ADVANCED_FACE ( 'NONE', ( #507 ), #687, .F. ) ;
#181 = EDGE_LOOP ( 'NONE', ( #442, #383, #397, #91 ) ) ;
#182 = LINE ( 'NONE', #580, #727 ) ;
#183 = VERTEX_POINT ( 'NONE', #33 ) ;
#184 = EDGE_CURVE ( 'NONE', #38, #553, #157, .T. ) ;
#185 = CARTESIAN_POINT ( 'NONE',  ( 0.08500000000000018652, 1.059915870975855157, -0.1249999999999999445 ) ) ;
#186 = COORDINATED_UNIVERSAL_TIME_OFFSET ( 5, 0, .BEHIND. ) ;
#187 = EDGE_CURVE ( 'NONE', #553, #544, #333, .T. ) ;
#188 = DIRECTION ( 'NONE',  ( 0.000000000000000000, 0.000000000000000000, 1.000000000000000000 ) ) ;
#189 = VECTOR ( 'NONE', #575, 39.37007874015748143 ) ;
#190 = ORIENTED_EDGE ( 'NONE', *, *, #241, .F. ) ;
#191 = DIRECTION ( 'NONE',  ( -0.000000000000000000, -1.000000000000000000, -0.000000000000000000 ) ) ;
#192 = CALENDAR_DATE ( 2025, 5, 9 ) ;
#193 = DIRECTION ( 'NONE',  ( 0.000000000000000000, 1.000000000000000000, -0.000000000000000000 ) ) ;
#194 = AXIS2_PLACEMENT_3D ( 'NONE', #100, #702, #110 ) ;
#195 = ORIENTED_EDGE ( 'NONE', *, *, #634, .T. ) ;
#196 = CARTESIAN_POINT ( 'NONE',  ( -0.08499999999999996447, 0.3500000000000000333, 0.1250000000000000278 ) ) ;
#197 = ADVANCED_FACE ( 'NONE', ( #430 ), #44, .T. ) ;
#198 = ORIENTED_EDGE ( 'NONE', *, *, #683, .F. ) ;
#199 = APPROVAL_DATE_TIME ( #77, #136 ) ;
#200 = CARTESIAN_POINT ( 'NONE',  ( -0.08499999999999996447, 1.500000000000000222, 0.1250000000000000278 ) ) ;
#201 = LOCAL_TIME ( 19, 1, 20.00000000000000000, #673 ) ;
#202 = FACE_OUTER_BOUND ( 'NONE', #642, .T. ) ;
#203 = MANIFOLD_SOLID_BREP ( 'Cut-Extrude2', #270 ) ;
#204 = AXIS2_PLACEMENT_3D ( 'NONE', #255, #674, #319 ) ;
#205 = ORIENTED_EDGE ( 'NONE', *, *, #187, .F. ) ;
#206 = LINE ( 'NONE', #618, #296 ) ;
#207 = EDGE_CURVE ( 'NONE', #688, #766, #770, .T. ) ;
#208 = EDGE_LOOP ( 'NONE', ( #221, #619, #115, #517 ) ) ;
#209 = DIRECTION ( 'NONE',  ( 0.000000000000000000, 0.000000000000000000, 1.000000000000000000 ) ) ;
#210 = DIRECTION ( 'NONE',  ( 1.000000000000000000, -0.000000000000000000, 0.000000000000000000 ) ) ;
#211 = FACE_OUTER_BOUND ( 'NONE', #213, .T. ) ;
#212 = EDGE_CURVE ( 'NONE', #766, #265, #286, .T. ) ;
#213 = EDGE_LOOP ( 'NONE', ( #759, #406, #603, #497 ) ) ;
#214 = EDGE_CURVE ( 'NONE', #484, #591, #520, .T. ) ;
#215 = FACE_OUTER_BOUND ( 'NONE', #66, .T. ) ;
#216 = CARTESIAN_POINT ( 'NONE',  ( 0.7500000000000001110, 0.2500000000000000000, -0.1250000000000000555 ) ) ;
#217 = EDGE_LOOP ( 'NONE', ( #153, #712, #111, #178 ) ) ;
#218 = CARTESIAN_POINT ( 'NONE',  ( -0.08499999999999997835, 0.3500000000000000333, 1.741553095960969589E-17 ) ) ;
#219 = VECTOR ( 'NONE', #388, 39.37007874015748143 ) ;
#220 = DIRECTION ( 'NONE',  ( 0.000000000000000000, 1.000000000000000000, -0.000000000000000000 ) ) ;
#221 = ORIENTED_EDGE ( 'NONE', *, *, #254, .T. ) ;
#222 = DIRECTION ( 'NONE',  ( 0.000000000000000000, 0.000000000000000000, -1.000000000000000000 ) ) ;
#223 = CARTESIAN_POINT ( 'NONE',  ( 0.5249999999999996891, 1.059915870975855157, -0.1250000000000000278 ) ) ;
#224 = VERTEX_POINT ( 'NONE', #464 ) ;
#225 = DIRECTION ( 'NONE',  ( -2.731847993664263711E-16, -0.000000000000000000, -1.000000000000000000 ) ) ;
#226 = PLANE ( 'NONE',  #194 ) ;
#227 =( GEOMETRIC_REPRESENTATION_CONTEXT ( 3 ) GLOBAL_UNCERTAINTY_ASSIGNED_CONTEXT ( ( #431 ) ) GLOBAL_UNIT_ASSIGNED_CONTEXT ( ( #59, #772, #462 ) ) REPRESENTATION_CONTEXT ( 'NONE', 'WORKASPACE' ) );
#228 = CC_DESIGN_SECURITY_CLASSIFICATION ( #37, ( #128 ) ) ;
#229 = ORIENTED_EDGE ( 'NONE', *, *, #212, .F. ) ;
#230 = CARTESIAN_POINT ( 'NONE',  ( 0.1969978518070781837, -0.003747309625707955817, 0.1250000000000000278 ) ) ;
#231 = DIRECTION ( 'NONE',  ( -0.9659258262890698665, 0.2588190451025149108, 0.000000000000000000 ) ) ;
#232 = AXIS2_PLACEMENT_3D ( 'NONE', #582, #758, #350 ) ;
#233 = PLANE ( 'NONE',  #339 ) ;
#234 = FACE_OUTER_BOUND ( 'NONE', #360, .T. ) ;
#235 = ORIENTED_EDGE ( 'NONE', *, *, #212, .T. ) ;
#236 = CARTESIAN_POINT ( 'NONE',  ( -0.5549479735599394115, 0.2500000000000000000, -0.1250000000000000555 ) ) ;
#237 = AXIS2_PLACEMENT_3D ( 'NONE', #690, #382, #326 ) ;
#238 = CARTESIAN_POINT ( 'NONE',  ( 0.5249999999999996891, 1.220373372422044911, -0.1250000000000000555 ) ) ;
#239 = ORIENTED_EDGE ( 'NONE', *, *, #125, .T. ) ;
#240 = ADVANCED_FACE ( 'NONE', ( #400 ), #226, .T. ) ;
#241 = EDGE_CURVE ( 'NONE', #704, #88, #410, .T. ) ;
#242 = CARTESIAN_POINT ( 'NONE',  ( 0.000000000000000000, 0.2500000000000000000, 0.000000000000000000 ) ) ;
#243 = EDGE_LOOP ( 'NONE', ( #466, #542, #294, #5 ) ) ;
#244 = PRODUCT_DEFINITION_SHAPE ( 'NONE', 'NONE',  #69 ) ;
#245 = DIRECTION ( 'NONE',  ( 1.000000000000000000, -0.000000000000000000, 0.000000000000000000 ) ) ;
#246 = VERTEX_POINT ( 'NONE', #585 ) ;
#247 = APPROVAL ( #257, 'UNSPECIFIED' ) ;
#248 = ORIENTED_EDGE ( 'NONE', *, *, #483, .F. ) ;
#249 = CYLINDRICAL_SURFACE ( 'NONE', #411, 0.1250000000000000278 ) ;
#250 = LINE ( 'NONE', #667, #105 ) ;
#251 = VERTEX_POINT ( 'NONE', #395 ) ;
#252 = CALENDAR_DATE ( 2025, 5, 9 ) ;
#253 = VERTEX_POINT ( 'NONE', #172 ) ;
#254 = EDGE_CURVE ( 'NONE', #107, #704, #516, .T. ) ;
#255 = CARTESIAN_POINT ( 'NONE',  ( 0.5549479735599391894, 0.2500000000000000000, -2.048885995248197414E-16 ) ) ;
#256 = VERTEX_POINT ( 'NONE', #641 ) ;
#257 = APPROVAL_STATUS ( 'not_yet_approved' ) ;
#258 = DIRECTION ( 'NONE',  ( 0.000000000000000000, 0.000000000000000000, 1.000000000000000000 ) ) ;
#259 = LINE ( 'NONE', #36, #284 ) ;
#260 = ORIENTED_EDGE ( 'NONE', *, *, #684, .T. ) ;
#261 = CARTESIAN_POINT ( 'NONE',  ( 0.4820055420679786318, 1.059915870975855157, 0.1250000000000000278 ) ) ;
#262 = PERSON ( 'UNSPECIFIED', 'UNSPECIFIED', 'UNSPECIFIED', ('UNSPECIFIED'), ('UNSPECIFIED'), ('UNSPECIFIED') ) ;
#263 = PLANE ( 'NONE',  #80 ) ;
#264 = AXIS2_PLACEMENT_3D ( 'NONE', #660, #495, #21 ) ;
#265 = VERTEX_POINT ( 'NONE', #114 ) ;
#266 = CARTESIAN_POINT ( 'NONE',  ( 0.08500000000000004774, 1.454448637286710255, -0.1249999999999999584 ) ) ;
#267 = EDGE_CURVE ( 'NONE', #328, #256, #701, .T. ) ;
#268 = DIRECTION ( 'NONE',  ( -0.000000000000000000, -0.000000000000000000, -1.000000000000000000 ) ) ;
#269 = ADVANCED_FACE ( 'NONE', ( #54 ), #523, .T. ) ;
#270 = CLOSED_SHELL ( 'NONE', ( #625, #197, #508, #426, #131, #295, #180, #402, #757, #325, #447, #600, #527, #564, #486, #730, #240, #269, #624, #140, #504, #56 ) ) ;
#271 = ORIENTED_EDGE ( 'NONE', *, *, #418, .T. ) ;
#272 = LINE ( 'NONE', #169, #432 ) ;
#273 = PLANE ( 'NONE',  #626 ) ;
#274 = CARTESIAN_POINT ( 'NONE',  ( 0.4820055420679786318, 1.059915870975855157, 0.1349999999999999256 ) ) ;
#275 = EDGE_LOOP ( 'NONE', ( #190, #83, #369, #122 ) ) ;
#276 = CARTESIAN_POINT ( 'NONE',  ( -0.08499999999999983957, 1.220373372422044911, 0.1250000000000000278 ) ) ;
#277 = CARTESIAN_POINT ( 'NONE',  ( 0.000000000000000000, 0.3500000000000000333, 0.1250000000000000278 ) ) ;
#278 = DIRECTION ( 'NONE',  ( 0.000000000000000000, 0.000000000000000000, -1.000000000000000000 ) ) ;
#279 = ORIENTED_EDGE ( 'NONE', *, *, #510, .F. ) ;
#280 = VECTOR ( 'NONE', #179, 39.37007874015748143 ) ;
#281 = DIRECTION ( 'NONE',  ( -0.2588190451025147998, -0.9659258262890698665, -0.000000000000000000 ) ) ;
#282 = LINE ( 'NONE', #223, #303 ) ;
#283 = ORIENTED_EDGE ( 'NONE', *, *, #97, .T. ) ;
#284 = VECTOR ( 'NONE', #737, 39.37007874015748143 ) ;
#285 = LINE ( 'NONE', #511, #189 ) ;
#286 = LINE ( 'NONE', #470, #94 ) ;
#287 = ORIENTED_EDGE ( 'NONE', *, *, #566, .F. ) ;
#288 = DIRECTION ( 'NONE',  ( -0.2588190451025149108, -0.9659258262890698665, 0.000000000000000000 ) ) ;
#289 = CARTESIAN_POINT ( 'NONE',  ( -0.5549479735599393004, 0.3500000000000000333, -0.1250000000000000555 ) ) ;
#290 = ORIENTED_EDGE ( 'NONE', *, *, #684, .F. ) ;
#291 = VECTOR ( 'NONE', #577, 39.37007874015748143 ) ;
#292 = DIRECTION ( 'NONE',  ( -0.000000000000000000, -1.000000000000000000, -0.000000000000000000 ) ) ;
#293 = EDGE_CURVE ( 'NONE', #2, #55, #437, .T. ) ;
#294 = ORIENTED_EDGE ( 'NONE', *, *, #380, .T. ) ;
#295 = ADVANCED_FACE ( 'NONE', ( #234 ), #526, .T. ) ;
#296 = VECTOR ( 'NONE', #79, 39.37007874015748143 ) ;
#297 = EDGE_LOOP ( 'NONE', ( #149, #205, #354, #738 ) ) ;
#298 = PERSON_AND_ORGANIZATION ( #262, #324 ) ;
#299 = VERTEX_POINT ( 'NONE', #573 ) ;
#300 = AXIS2_PLACEMENT_3D ( 'NONE', #768, #593, #710 ) ;
#301 = LOCAL_TIME ( 19, 1, 20.00000000000000000, #433 ) ;
#302 = CARTESIAN_POINT ( 'NONE',  ( -0.5549479735599393004, 0.3500000000000000333, 0.1250000000000000278 ) ) ;
#303 = VECTOR ( 'NONE', #162, 39.37007874015748143 ) ;
#304 = CARTESIAN_POINT ( 'NONE',  ( 0.7500000000000001110, 0.000000000000000000, -0.1250000000000000555 ) ) ;
#305 = VERTEX_POINT ( 'NONE', #41 ) ;
#306 = DIRECTION ( 'NONE',  ( 1.000000000000000000, -0.000000000000000000, 0.000000000000000000 ) ) ;
#307 = LINE ( 'NONE', #506, #327 ) ;
#308 = ORIENTED_EDGE ( 'NONE', *, *, #349, .T. ) ;
#309 = CARTESIAN_POINT ( 'NONE',  ( -0.5549479735599393004, 0.3500000000000000333, 0.000000000000000000 ) ) ;
#310 = APPROVAL_DATE_TIME ( #659, #247 ) ;
#311 = EDGE_CURVE ( 'NONE', #338, #456, #282, .T. ) ;
#312 = ORIENTED_EDGE ( 'NONE', *, *, #711, .T. ) ;
#313 = SHAPE_DEFINITION_REPRESENTATION ( #244, #547 ) ;
#314 = CARTESIAN_POINT ( 'NONE',  ( 0.7500000000000001110, 0.2500000000000000000, 0.1250000000000000278 ) ) ;
#315 = VECTOR ( 'NONE', #146, 39.37007874015748143 ) ;
#316 = ORIENTED_EDGE ( 'NONE', *, *, #132, .T. ) ;
#317 = DIRECTION ( 'NONE',  ( 1.000000000000000000, 0.000000000000000000, 0.000000000000000000 ) ) ;
#318 = LINE ( 'NONE', #143, #706 ) ;
#319 = DIRECTION ( 'NONE',  ( 0.000000000000000000, 0.000000000000000000, -1.000000000000000000 ) ) ;
#320 = LINE ( 'NONE', #749, #31 ) ;
#321 = VERTEX_POINT ( 'NONE', #460 ) ;
#322 = CARTESIAN_POINT ( 'NONE',  ( 0.5249999999999996891, 1.220373372422044911, -0.1250000000000000555 ) ) ;
#323 = EDGE_CURVE ( 'NONE', #607, #591, #639, .T. ) ;
#324 = ORGANIZATION ( 'UNSPECIFIED', 'UNSPECIFIED', '' ) ;
#325 = ADVANCED_FACE ( 'NONE', ( #345 ), #233, .F. ) ;
#326 = DIRECTION ( 'NONE',  ( 0.000000000000000000, -0.000000000000000000, -1.000000000000000000 ) ) ;
#327 = VECTOR ( 'NONE', #281, 39.37007874015748854 ) ;
#328 = VERTEX_POINT ( 'NONE', #581 ) ;
#329 = CARTESIAN_POINT ( 'NONE',  ( -0.7500000000000001110, 0.000000000000000000, 0.1250000000000000278 ) ) ;
#330 = LINE ( 'NONE', #568, #576 ) ;
#331 = VECTOR ( 'NONE', #751, 39.37007874015748143 ) ;
#332 = DIRECTION ( 'NONE',  ( -2.048885995248199879E-16, 0.000000000000000000, -1.000000000000000000 ) ) ;
#333 = LINE ( 'NONE', #513, #331 ) ;
#334 = EDGE_CURVE ( 'NONE', #183, #401, #478, .T. ) ;
#335 = EDGE_LOOP ( 'NONE', ( #514, #417, #586, #158 ) ) ;
#336 = CARTESIAN_POINT ( 'NONE',  ( -0.7500000000000001110, 0.2500000000000000000, -0.1250000000000000555 ) ) ;
#337 = DIRECTION ( 'NONE',  ( -1.000000000000000000, 0.000000000000000000, -0.000000000000000000 ) ) ;
#338 = VERTEX_POINT ( 'NONE', #177 ) ;
#339 = AXIS2_PLACEMENT_3D ( 'NONE', #242, #121, #595 ) ;
#340 = DIRECTION ( 'NONE',  ( 0.9659258262890698665, -0.2588190451025149108, 0.000000000000000000 ) ) ;
#341 = VECTOR ( 'NONE', #755, 39.37007874015748143 ) ;
#342 = DIRECTION ( 'NONE',  ( -0.000000000000000000, 1.000000000000000000, -0.000000000000000000 ) ) ;
#343 = VERTEX_POINT ( 'NONE', #647 ) ;
#344 = LINE ( 'NONE', #230, #449 ) ;
#345 = FACE_OUTER_BOUND ( 'NONE', #561, .T. ) ;
#346 = DIRECTION ( 'NONE',  ( -6.829619984160661744E-17, 0.000000000000000000, -1.000000000000000000 ) ) ;
#347 = ORIENTED_EDGE ( 'NONE', *, *, #348, .T. ) ;
#348 = EDGE_CURVE ( 'NONE', #251, #650, #594, .T. ) ;
#349 = EDGE_CURVE ( 'NONE', #493, #98, #412, .T. ) ;
#350 = DIRECTION ( 'NONE',  ( 0.000000000000000000, 0.000000000000000000, 1.000000000000000000 ) ) ;
#351 = VERTEX_POINT ( 'NONE', #302 ) ;
#352 = DIRECTION ( 'NONE',  ( -0.000000000000000000, -1.000000000000000000, -0.000000000000000000 ) ) ;
#353 = VECTOR ( 'NONE', #764, 39.37007874015748143 ) ;
#354 = ORIENTED_EDGE ( 'NONE', *, *, #184, .F. ) ;
#355 = CARTESIAN_POINT ( 'NONE',  ( -0.7500000000000001110, 0.000000000000000000, -0.1250000000000000555 ) ) ;
#356 = LINE ( 'NONE', #676, #512 ) ;
#357 = ORIENTED_EDGE ( 'NONE', *, *, #368, .F. ) ;
#358 = LINE ( 'NONE', #762, #4 ) ;
#359 = DIRECTION ( 'NONE',  ( -0.000000000000000000, -1.000000000000000000, -0.000000000000000000 ) ) ;
#360 = EDGE_LOOP ( 'NONE', ( #708, #102, #239, #74, #422, #7, #474, #622, #34, #130, #408, #640, #492, #347, #528, #548, #163, #691, #57, #720 ) ) ;
#361 = DIRECTION ( 'NONE',  ( -0.000000000000000000, -1.000000000000000000, -0.000000000000000000 ) ) ;
#362 = APPROVAL_ROLE ( '' ) ;
#363 = VECTOR ( 'NONE', #113, 39.37007874015748143 ) ;
#364 = ORIENTED_EDGE ( 'NONE', *, *, #703, .F. ) ;
#365 = LINE ( 'NONE', #170, #500 ) ;
#366 = PERSON_AND_ORGANIZATION_ROLE ( 'creator' ) ;
#367 = LINE ( 'NONE', #723, #386 ) ;
#368 = EDGE_CURVE ( 'NONE', #747, #328, #745, .T. ) ;
#369 = ORIENTED_EDGE ( 'NONE', *, *, #184, .T. ) ;
#370 = DATE_AND_TIME ( #375, #434 ) ;
#371 = CARTESIAN_POINT ( 'NONE',  ( 0.000000000000000000, 0.3500000000000000333, 0.000000000000000000 ) ) ;
#372 = EDGE_CURVE ( 'NONE', #224, #265, #571, .T. ) ;
#373 = EDGE_CURVE ( 'NONE', #733, #496, #393, .T. ) ;
#374 = ORIENTED_EDGE ( 'NONE', *, *, #476, .F. ) ;
#375 = CALENDAR_DATE ( 2025, 5, 9 ) ;
#376 = VECTOR ( 'NONE', #306, 39.37007874015748143 ) ;
#377 = DIRECTION ( 'NONE',  ( -0.000000000000000000, -0.000000000000000000, -1.000000000000000000 ) ) ;
#378 = DIRECTION ( 'NONE',  ( 1.000000000000000000, 0.000000000000000000, 0.000000000000000000 ) ) ;
#379 = LINE ( 'NONE', #23, #414 ) ;
#380 = EDGE_CURVE ( 'NONE', #650, #98, #440, .T. ) ;
#381 = LINE ( 'NONE', #159, #341 ) ;
#382 = DIRECTION ( 'NONE',  ( 0.000000000000000000, -1.000000000000000000, 0.000000000000000000 ) ) ;
#383 = ORIENTED_EDGE ( 'NONE', *, *, #584, .T. ) ;
#384 = FACE_OUTER_BOUND ( 'NONE', #583, .T. ) ;
#385 = DIRECTION ( 'NONE',  ( 0.000000000000000000, 0.000000000000000000, -1.000000000000000000 ) ) ;
#386 = VECTOR ( 'NONE', #425, 39.37007874015748143 ) ;
#387 = ORIENTED_EDGE ( 'NONE', *, *, #49, .F. ) ;
#388 = DIRECTION ( 'NONE',  ( 1.000000000000000000, 0.000000000000000000, 0.000000000000000000 ) ) ;
#389 = CARTESIAN_POINT ( 'NONE',  ( -0.7500000000000001110, 0.2500000000000000000, -0.1250000000000000555 ) ) ;
#390 = LINE ( 'NONE', #26, #661 ) ;
#391 = DIRECTION ( 'NONE',  ( -1.092739197465705090E-15, 0.000000000000000000, -1.000000000000000000 ) ) ;
#392 = DIRECTION ( 'NONE',  ( -2.048885995248199879E-16, 0.000000000000000000, -1.000000000000000000 ) ) ;
#393 = LINE ( 'NONE', #637, #715 ) ;
#394 = CC_DESIGN_APPROVAL ( #247, ( #128 ) ) ;
#395 = CARTESIAN_POINT ( 'NONE',  ( -0.08500000000000001998, 1.059915870975855379, -0.1249999999999999306 ) ) ;
#396 = EDGE_CURVE ( 'NONE', #251, #253, #85, .T. ) ;
#397 = ORIENTED_EDGE ( 'NONE', *, *, #380, .F. ) ;
#398 = AXIS2_PLACEMENT_3D ( 'NONE', #707, #342, #391 ) ;
#399 = DIRECTION ( 'NONE',  ( 0.000000000000000000, -0.000000000000000000, -1.000000000000000000 ) ) ;
#400 = FACE_OUTER_BOUND ( 'NONE', #335, .T. ) ;
#401 = VERTEX_POINT ( 'NONE', #151 ) ;
#402 = ADVANCED_FACE ( 'NONE', ( #32 ), #273, .T. ) ;
#403 = CARTESIAN_POINT ( 'NONE',  ( 0.5249999999999996891, 1.220373372422044911, -0.1250000000000000555 ) ) ;
#404 = EDGE_CURVE ( 'NONE', #107, #253, #608, .T. ) ;
#405 = CARTESIAN_POINT ( 'NONE',  ( 0.08500000000000004774, 1.454448637286710255, -0.1349999999999999534 ) ) ;
#406 = ORIENTED_EDGE ( 'NONE', *, *, #549, .F. ) ;
#407 = CARTESIAN_POINT ( 'NONE',  ( -0.7500000000000001110, 0.2500000000000000000, -0.1250000000000000555 ) ) ;
#408 = ORIENTED_EDGE ( 'NONE', *, *, #254, .F. ) ;
#409 = MECHANICAL_CONTEXT ( 'NONE', #617, 'mechanical' ) ;
#410 = CIRCLE ( 'NONE', #398, 0.1250000000000000278 ) ;
#411 = AXIS2_PLACEMENT_3D ( 'NONE', #309, #664, #669 ) ;
#412 = LINE ( 'NONE', #718, #280 ) ;
#413 = ORIENTED_EDGE ( 'NONE', *, *, #592, .T. ) ;
#414 = VECTOR ( 'NONE', #621, 39.37007874015748143 ) ;
#415 = ORIENTED_EDGE ( 'NONE', *, *, #267, .T. ) ;
#416 = CALENDAR_DATE ( 2025, 5, 9 ) ;
#417 = ORIENTED_EDGE ( 'NONE', *, *, #95, .T. ) ;
#418 = EDGE_CURVE ( 'NONE', #351, #88, #463, .T. ) ;
#419 = PERSON_AND_ORGANIZATION_ROLE ( 'creator' ) ;
#420 = DIRECTION ( 'NONE',  ( 1.000000000000000000, 0.000000000000000000, -6.829619984160661744E-17 ) ) ;
#421 = CIRCLE ( 'NONE', #90, 0.1250000000000000278 ) ;
#422 = ORIENTED_EDGE ( 'NONE', *, *, #510, .T. ) ;
#423 = PLANE ( 'NONE',  #40 ) ;
#424 = EDGE_CURVE ( 'NONE', #343, #607, #182, .T. ) ;
#425 = DIRECTION ( 'NONE',  ( -2.048885995248199879E-16, 0.000000000000000000, -1.000000000000000000 ) ) ;
#426 = ADVANCED_FACE ( 'NONE', ( #597 ), #423, .F. ) ;
#427 = VECTOR ( 'NONE', #633, 39.37007874015748143 ) ;
#428 = ORIENTED_EDGE ( 'NONE', *, *, #467, .F. ) ;
#429 = APPROVAL_ROLE ( '' ) ;
#430 = FACE_OUTER_BOUND ( 'NONE', #754, .T. ) ;
#431 = UNCERTAINTY_MEASURE_WITH_UNIT (LENGTH_MEASURE( 1.000000000000000082E-05 ), #59, 'distance_accuracy_value', 'NONE');
#432 = VECTOR ( 'NONE', #245, 39.37007874015748143 ) ;
#433 = COORDINATED_UNIVERSAL_TIME_OFFSET ( 5, 0, .BEHIND. ) ;
#434 = LOCAL_TIME ( 19, 1, 20.00000000000000000, #722 ) ;
#435 = FACE_OUTER_BOUND ( 'NONE', #243, .T. ) ;
#436 = VECTOR ( 'NONE', #60, 39.37007874015748143 ) ;
#437 = LINE ( 'NONE', #160, #353 ) ;
#438 = ORIENTED_EDGE ( 'NONE', *, *, #207, .T. ) ;
#439 = DIRECTION ( 'NONE',  ( -0.000000000000000000, -1.000000000000000000, -0.000000000000000000 ) ) ;
#440 = LINE ( 'NONE', #681, #651 ) ;
#441 = CARTESIAN_POINT ( 'NONE',  ( 0.08500000000000003386, 0.3500000000000000333, -5.805176986536564270E-18 ) ) ;
#442 = ORIENTED_EDGE ( 'NONE', *, *, #489, .F. ) ;
#443 = DIRECTION ( 'NONE',  ( -0.000000000000000000, -1.000000000000000000, -0.000000000000000000 ) ) ;
#444 = CARTESIAN_POINT ( 'NONE',  ( -0.08500000000000001998, 1.500000000000000222, -0.1249999999999999306 ) ) ;
#445 = DIRECTION ( 'NONE',  ( -1.000000000000000000, 0.000000000000000000, 2.048885995248200865E-16 ) ) ;
#446 = EDGE_LOOP ( 'NONE', ( #612, #195, #62, #45 ) ) ;
#447 = ADVANCED_FACE ( 'NONE', ( #8 ), #249, .T. ) ;
#448 = CARTESIAN_POINT ( 'NONE',  ( 0.7500000000000001110, 0.2500000000000000000, -0.1250000000000000555 ) ) ;
#449 = VECTOR ( 'NONE', #579, 39.37007874015748143 ) ;
#450 = LINE ( 'NONE', #441, #144 ) ;
#451 = VECTOR ( 'NONE', #554, 39.37007874015748143 ) ;
#452 = ORIENTED_EDGE ( 'NONE', *, *, #602, .F. ) ;
#453 = CARTESIAN_POINT ( 'NONE',  ( 0.5549479735599386343, 0.2500000000000000000, 0.1250000000000000278 ) ) ;
#454 = EDGE_CURVE ( 'NONE', #688, #343, #358, .T. ) ;
#455 = DIRECTION ( 'NONE',  ( 0.000000000000000000, 0.000000000000000000, 1.000000000000000000 ) ) ;
#456 = VERTEX_POINT ( 'NONE', #185 ) ;
#457 = DIRECTION ( 'NONE',  ( 0.000000000000000000, 1.000000000000000000, -0.000000000000000000 ) ) ;
#458 = CARTESIAN_POINT ( 'NONE',  ( 0.5249999999999999112, 1.220373372422044911, 0.1249999999999999167 ) ) ;
#459 = EDGE_CURVE ( 'NONE', #246, #544, #365, .T. ) ;
#460 = CARTESIAN_POINT ( 'NONE',  ( -0.4720055420679786229, 1.220373372422044911, -0.1250000000000000555 ) ) ;
#461 = EDGE_LOOP ( 'NONE', ( #137, #374, #25, #312 ) ) ;
#462 =( NAMED_UNIT ( * ) SI_UNIT ( $, .STERADIAN. ) SOLID_ANGLE_UNIT ( ) );
#463 = LINE ( 'NONE', #6, #480 ) ;
#464 = CARTESIAN_POINT ( 'NONE',  ( 0.5249999999999996891, 1.220373372422044911, 0.1250000000000000278 ) ) ;
#465 = EDGE_CURVE ( 'NONE', #305, #456, #653, .T. ) ;
#466 = ORIENTED_EDGE ( 'NONE', *, *, #14, .T. ) ;
#467 = EDGE_CURVE ( 'NONE', #574, #521, #356, .T. ) ;
#468 = VECTOR ( 'NONE', #443, 39.37007874015748143 ) ;
#469 = FACE_OUTER_BOUND ( 'NONE', #297, .T. ) ;
#470 = CARTESIAN_POINT ( 'NONE',  ( 0.08500000000000003386, 1.500000000000000222, 0.1249999999999999584 ) ) ;
#471 = ORIENTED_EDGE ( 'NONE', *, *, #368, .T. ) ;
#472 = CARTESIAN_POINT ( 'NONE',  ( 0.08500000000000003386, 0.3500000000000000333, 0.1250000000000000278 ) ) ;
#473 = CARTESIAN_POINT ( 'NONE',  ( -0.08499999999999996447, 1.500000000000000222, 0.1249999999999997641 ) ) ;
#474 = ORIENTED_EDGE ( 'NONE', *, *, #549, .T. ) ;
#475 = LINE ( 'NONE', #403, #22 ) ;
#476 = EDGE_CURVE ( 'NONE', #544, #401, #250, .T. ) ;
#477 = VECTOR ( 'NONE', #225, 39.37007874015748143 ) ;
#478 = LINE ( 'NONE', #304, #599 ) ;
#479 = EDGE_LOOP ( 'NONE', ( #645, #663, #631, #167 ) ) ;
#480 = VECTOR ( 'NONE', #191, 39.37007874015748143 ) ;
#481 = ORIENTED_EDGE ( 'NONE', *, *, #767, .F. ) ;
#482 = AXIS2_PLACEMENT_3D ( 'NONE', #87, #19, #560 ) ;
#483 = EDGE_CURVE ( 'NONE', #574, #668, #536, .T. ) ;
#484 = VERTEX_POINT ( 'NONE', #200 ) ;
#485 = VERTEX_POINT ( 'NONE', #261 ) ;
#486 = ADVANCED_FACE ( 'NONE', ( #490 ), #135, .T. ) ;
#487 = PRODUCT ( 'DesignSomethingSmallPT2', 'DesignSomethingSmallPT2', '', ( #409 ) ) ;
#488 = CALENDAR_DATE ( 2025, 5, 9 ) ;
#489 = EDGE_CURVE ( 'NONE', #733, #251, #367, .T. ) ;
#490 = FACE_OUTER_BOUND ( 'NONE', #724, .T. ) ;
#491 = AXIS2_PLACEMENT_3D ( 'NONE', #30, #93, #392 ) ;
#492 = ORIENTED_EDGE ( 'NONE', *, *, #396, .F. ) ;
#493 = VERTEX_POINT ( 'NONE', #499 ) ;
#494 = APPROVAL_STATUS ( 'not_yet_approved' ) ;
#495 = DIRECTION ( 'NONE',  ( 0.9659258262890698665, -0.2588190451025148553, 0.000000000000000000 ) ) ;
#496 = VERTEX_POINT ( 'NONE', #196 ) ;
#497 = ORIENTED_EDGE ( 'NONE', *, *, #725, .T. ) ;
#498 = CC_DESIGN_APPROVAL ( #15, ( #69 ) ) ;
#499 = CARTESIAN_POINT ( 'NONE',  ( -0.4720055420679786229, 1.220373372422044911, 0.1250000000000001388 ) ) ;
#500 = VECTOR ( 'NONE', #604, 39.37007874015748143 ) ;
#501 = CARTESIAN_POINT ( 'NONE',  ( -0.5549479735599394115, 0.2500000000000000000, 0.1250000000000000278 ) ) ;
#502 = LINE ( 'NONE', #623, #52 ) ;
#503 = LINE ( 'NONE', #274, #654 ) ;
#504 = ADVANCED_FACE ( 'NONE', ( #435 ), #81, .F. ) ;
#505 = EDGE_LOOP ( 'NONE', ( #596, #471, #415, #364 ) ) ;
#506 = CARTESIAN_POINT ( 'NONE',  ( -0.5149999999999997913, 1.059915870975855157, -0.1250000000000000555 ) ) ;
#507 = FACE_OUTER_BOUND ( 'NONE', #51, .T. ) ;
#508 = ADVANCED_FACE ( 'NONE', ( #606 ), #728, .T. ) ;
#509 = VECTOR ( 'NONE', #656, 39.37007874015748143 ) ;
#510 = EDGE_CURVE ( 'NONE', #256, #668, #12, .T. ) ;
#511 = CARTESIAN_POINT ( 'NONE',  ( 0.5549479735599391894, 0.3500000000000000333, 0.1250000000000000278 ) ) ;
#512 = VECTOR ( 'NONE', #317, 39.37007874015748143 ) ;
#513 = CARTESIAN_POINT ( 'NONE',  ( -0.7500000000000001110, 0.2500000000000000000, 0.1250000000000000278 ) ) ;
#514 = ORIENTED_EDGE ( 'NONE', *, *, #68, .F. ) ;
#515 = CYLINDRICAL_SURFACE ( 'NONE', #117, 0.1250000000000000278 ) ;
#516 = LINE ( 'NONE', #289, #142 ) ;
#517 = ORIENTED_EDGE ( 'NONE', *, *, #519, .F. ) ;
#518 = CARTESIAN_POINT ( 'NONE',  ( -0.7500000000000001110, 0.2500000000000000000, -0.1250000000000000555 ) ) ;
#519 = EDGE_CURVE ( 'NONE', #107, #351, #421, .T. ) ;
#520 = LINE ( 'NONE', #473, #529 ) ;
#521 = VERTEX_POINT ( 'NONE', #314 ) ;
#522 = CARTESIAN_POINT ( 'NONE',  ( 0.7500000000000001110, 0.2500000000000000000, 0.1250000000000000278 ) ) ;
#523 = PLANE ( 'NONE',  #61 ) ;
#524 = ORIENTED_EDGE ( 'NONE', *, *, #592, .F. ) ;
#525 = AXIS2_PLACEMENT_3D ( 'NONE', #601, #551, #258 ) ;
#526 = PLANE ( 'NONE',  #572 ) ;
#527 = ADVANCED_FACE ( 'NONE', ( #614 ), #78, .T. ) ;
#528 = ORIENTED_EDGE ( 'NONE', *, *, #541, .F. ) ;
#529 = VECTOR ( 'NONE', #166, 39.37007874015748143 ) ;
#530 = LENGTH_MEASURE_WITH_UNIT ( LENGTH_MEASURE( 0.02539999999999999897 ), #109 );
#531 = ORIENTED_EDGE ( 'NONE', *, *, #602, .T. ) ;
#532 = DIRECTION ( 'NONE',  ( 0.000000000000000000, 0.000000000000000000, -1.000000000000000000 ) ) ;
#533 = LOCAL_TIME ( 19, 1, 20.00000000000000000, #186 ) ;
#534 = ORIENTED_EDGE ( 'NONE', *, *, #648, .F. ) ;
#535 = CARTESIAN_POINT ( 'NONE',  ( 0.000000000000000000, 0.000000000000000000, 0.000000000000000000 ) ) ;
#536 = CIRCLE ( 'NONE', #204, 0.1250000000000000278 ) ;
#537 = EDGE_CURVE ( 'NONE', #38, #246, #65, .T. ) ;
#538 = ORIENTED_EDGE ( 'NONE', *, *, #465, .F. ) ;
#539 = CARTESIAN_POINT ( 'NONE',  ( 0.000000000000000000, 0.2500000000000000000, 0.000000000000000000 ) ) ;
#540 = PERSON_AND_ORGANIZATION ( #262, #324 ) ;
#541 = EDGE_CURVE ( 'NONE', #321, #650, #307, .T. ) ;
#542 = ORIENTED_EDGE ( 'NONE', *, *, #541, .T. ) ;
#543 = PERSON_AND_ORGANIZATION ( #262, #324 ) ;
#544 = VERTEX_POINT ( 'NONE', #329 ) ;
#545 = APPLICATION_PROTOCOL_DEFINITION ( 'international standard', 'config_control_design', 1994, #127 ) ;
#546 = VECTOR ( 'NONE', #340, 39.37007874015748854 ) ;
#547 = ADVANCED_BREP_SHAPE_REPRESENTATION ( 'DesignSomethingSmallPT2', ( #203, #300 ), #227 ) ;
#548 = ORIENTED_EDGE ( 'NONE', *, *, #155, .F. ) ;
#549 = EDGE_CURVE ( 'NONE', #716, #183, #748, .T. ) ;
#550 = PERSON_AND_ORGANIZATION ( #262, #324 ) ;
#551 = DIRECTION ( 'NONE',  ( 0.000000000000000000, 1.000000000000000000, -0.000000000000000000 ) ) ;
#552 = PLANE ( 'NONE',  #482 ) ;
#553 = VERTEX_POINT ( 'NONE', #680 ) ;
#554 = DIRECTION ( 'NONE',  ( -0.000000000000000000, -1.000000000000000000, -0.000000000000000000 ) ) ;
#555 = LINE ( 'NONE', #627, #719 ) ;
#556 = ORIENTED_EDGE ( 'NONE', *, *, #476, .T. ) ;
#557 = CC_DESIGN_APPROVAL ( #136, ( #37 ) ) ;
#558 = LINE ( 'NONE', #518, #219 ) ;
#559 = VECTOR ( 'NONE', #39, 39.37007874015748143 ) ;
#560 = DIRECTION ( 'NONE',  ( -0.2588190451025144667, -0.9659258262890699775, 0.000000000000000000 ) ) ;
#561 = EDGE_LOOP ( 'NONE', ( #248, #92, #387, #287 ) ) ;
#562 = CARTESIAN_POINT ( 'NONE',  ( 0.5549479735599391894, 0.2500000000000000555, -0.1250000000000000555 ) ) ;
#563 = AXIS2_PLACEMENT_3D ( 'NONE', #152, #385, #565 ) ;
#564 = ADVANCED_FACE ( 'NONE', ( #685 ), #567, .F. ) ;
#565 = DIRECTION ( 'NONE',  ( -1.000000000000000000, 0.000000000000000000, -0.000000000000000000 ) ) ;
#566 = EDGE_CURVE ( 'NONE', #668, #716, #570, .T. ) ;
#567 = PLANE ( 'NONE',  #129 ) ;
#568 = CARTESIAN_POINT ( 'NONE',  ( 0.5249999999999996891, 1.220373372422044911, -0.1250000000000000555 ) ) ;
#569 = ORIENTED_EDGE ( 'NONE', *, *, #483, .T. ) ;
#570 = LINE ( 'NONE', #336, #559 ) ;
#571 = LINE ( 'NONE', #458, #165 ) ;
#572 = AXIS2_PLACEMENT_3D ( 'NONE', #698, #694, #337 ) ;
#573 = CARTESIAN_POINT ( 'NONE',  ( 0.08500000000000001998, 0.3500000000000003664, -0.1249999999999999584 ) ) ;
#574 = VERTEX_POINT ( 'NONE', #453 ) ;
#575 = DIRECTION ( 'NONE',  ( -0.000000000000000000, -1.000000000000000000, -0.000000000000000000 ) ) ;
#576 = VECTOR ( 'NONE', #445, 39.37007874015748143 ) ;
#577 = DIRECTION ( 'NONE',  ( 2.048885995248199879E-16, 0.000000000000000000, 1.000000000000000000 ) ) ;
#578 = ORIENTED_EDGE ( 'NONE', *, *, #207, .F. ) ;
#579 = DIRECTION ( 'NONE',  ( 0.2588190451025144667, 0.9659258262890699775, 0.000000000000000000 ) ) ;
#580 = CARTESIAN_POINT ( 'NONE',  ( -0.08500000000000001998, 1.500000000000000222, -0.1249999999999999306 ) ) ;
#581 = CARTESIAN_POINT ( 'NONE',  ( 0.5549479735599391894, 0.3500000000000000333, 0.1250000000000000278 ) ) ;
#582 = CARTESIAN_POINT ( 'NONE',  ( 0.5549479735599391894, 0.3500000000000000333, -2.048885995248197414E-16 ) ) ;
#583 = EDGE_LOOP ( 'NONE', ( #657, #743, #20, #452 ) ) ;
#584 = EDGE_CURVE ( 'NONE', #733, #98, #43, .T. ) ;
#585 = CARTESIAN_POINT ( 'NONE',  ( -0.7500000000000001110, 0.000000000000000000, -0.1250000000000000555 ) ) ;
#586 = ORIENTED_EDGE ( 'NONE', *, *, #465, .T. ) ;
#587 = CARTESIAN_POINT ( 'NONE',  ( -0.08499999999999983957, 1.059915870975855157, 0.1250000000000000278 ) ) ;
#588 = ORIENTED_EDGE ( 'NONE', *, *, #709, .F. ) ;
#589 = CC_DESIGN_PERSON_AND_ORGANIZATION_ASSIGNMENT ( #72, #11, ( #128 ) ) ;
#590 = DIRECTION ( 'NONE',  ( 1.000000000000000000, 0.000000000000000000, 0.000000000000000000 ) ) ;
#591 = VERTEX_POINT ( 'NONE', #276 ) ;
#592 = EDGE_CURVE ( 'NONE', #328, #574, #285, .T. ) ;
#593 = DIRECTION ( 'NONE',  ( 0.000000000000000000, 0.000000000000000000, 1.000000000000000000 ) ) ;
#594 = LINE ( 'NONE', #1, #436 ) ;
#595 = DIRECTION ( 'NONE',  ( 0.000000000000000000, -0.000000000000000000, -1.000000000000000000 ) ) ;
#596 = ORIENTED_EDGE ( 'NONE', *, *, #132, .F. ) ;
#597 = FACE_OUTER_BOUND ( 'NONE', #275, .T. ) ;
#598 = DATE_TIME_ROLE ( 'creation_date' ) ;
#599 = VECTOR ( 'NONE', #171, 39.37007874015748143 ) ;
#600 = ADVANCED_FACE ( 'NONE', ( #629 ), #515, .T. ) ;
#601 = CARTESIAN_POINT ( 'NONE',  ( 0.000000000000000000, 0.3500000000000000333, 0.000000000000000000 ) ) ;
#602 = EDGE_CURVE ( 'NONE', #343, #484, #696, .T. ) ;
#603 = ORIENTED_EDGE ( 'NONE', *, *, #49, .T. ) ;
#604 = DIRECTION ( 'NONE',  ( 0.000000000000000000, 0.000000000000000000, 1.000000000000000000 ) ) ;
#605 = SECURITY_CLASSIFICATION_LEVEL ( 'unclassified' ) ;
#606 = FACE_OUTER_BOUND ( 'NONE', #446, .T. ) ;
#607 = VERTEX_POINT ( 'NONE', #161 ) ;
#608 = LINE ( 'NONE', #63, #376 ) ;
#609 = PERSON_AND_ORGANIZATION ( #262, #324 ) ;
#610 = CARTESIAN_POINT ( 'NONE',  ( -0.5549479735599393004, 0.3500000000000000333, 0.000000000000000000 ) ) ;
#611 = VECTOR ( 'NONE', #352, 39.37007874015748143 ) ;
#612 = ORIENTED_EDGE ( 'NONE', *, *, #693, .T. ) ;
#613 = APPROVAL_STATUS ( 'not_yet_approved' ) ;
#614 = FACE_OUTER_BOUND ( 'NONE', #505, .T. ) ;
#615 = CARTESIAN_POINT ( 'NONE',  ( 0.08500000000000001998, 1.220373372422044911, -0.1249999999999999584 ) ) ;
#616 = DIRECTION ( 'NONE',  ( 0.000000000000000000, 1.000000000000000000, -0.000000000000000000 ) ) ;
#617 = APPLICATION_CONTEXT ( 'configuration controlled 3d designs of mechanical parts and assemblies' ) ;
#618 = CARTESIAN_POINT ( 'NONE',  ( 0.7500000000000001110, 0.2500000000000000000, -0.1250000000000000555 ) ) ;
#619 = ORIENTED_EDGE ( 'NONE', *, *, #241, .T. ) ;
#620 = DIRECTION ( 'NONE',  ( -0.000000000000000000, -1.000000000000000000, -0.000000000000000000 ) ) ;
#621 = DIRECTION ( 'NONE',  ( -1.000000000000000000, 0.000000000000000000, 2.048885995248200865E-16 ) ) ;
#622 = ORIENTED_EDGE ( 'NONE', *, *, #711, .F. ) ;
#623 = CARTESIAN_POINT ( 'NONE',  ( 0.000000000000000000, 0.3500000000000000333, 0.1250000000000000278 ) ) ;
#624 = ADVANCED_FACE ( 'NONE', ( #215 ), #744, .T. ) ;
#625 = ADVANCED_FACE ( 'NONE', ( #384 ), #35, .F. ) ;
#626 = AXIS2_PLACEMENT_3D ( 'NONE', #535, #756, #399 ) ;
#627 = CARTESIAN_POINT ( 'NONE',  ( 0.08500000000000001998, 1.500000000000000222, -0.1249999999999999584 ) ) ;
#628 = ORIENTED_EDGE ( 'NONE', *, *, #648, .T. ) ;
#629 = FACE_OUTER_BOUND ( 'NONE', #635, .T. ) ;
#630 = DIRECTION ( 'NONE',  ( -6.829619984160661744E-17, 0.000000000000000000, -1.000000000000000000 ) ) ;
#631 = ORIENTED_EDGE ( 'NONE', *, *, #372, .F. ) ;
#632 = DIRECTION ( 'NONE',  ( 1.000000000000000000, 0.000000000000000000, -2.048885995248199879E-16 ) ) ;
#633 = DIRECTION ( 'NONE',  ( -0.000000000000000000, -0.000000000000000000, 1.000000000000000000 ) ) ;
#634 = EDGE_CURVE ( 'NONE', #496, #253, #636, .T. ) ;
#635 = EDGE_LOOP ( 'NONE', ( #413, #569, #279, #10 ) ) ;
#636 = LINE ( 'NONE', #218, #16 ) ;
#637 = CARTESIAN_POINT ( 'NONE',  ( -0.08499999999999996447, 1.500000000000000222, 0.1249999999999997641 ) ) ;
#638 = AXIS2_PLACEMENT_3D ( 'NONE', #731, #420, #18 ) ;
#639 = LINE ( 'NONE', #106, #291 ) ;
#640 = ORIENTED_EDGE ( 'NONE', *, *, #404, .T. ) ;
#641 = CARTESIAN_POINT ( 'NONE',  ( 0.5549479735599391894, 0.3500000000000000333, -0.1250000000000000555 ) ) ;
#642 = EDGE_LOOP ( 'NONE', ( #655, #58, #173, #588 ) ) ;
#643 = DIRECTION ( 'NONE',  ( 0.2588190451025145222, 0.9659258262890699775, -0.000000000000000000 ) ) ;
#644 = DIRECTION ( 'NONE',  ( -0.000000000000000000, -1.000000000000000000, -0.000000000000000000 ) ) ;
#645 = ORIENTED_EDGE ( 'NONE', *, *, #293, .T. ) ;
#646 = DIRECTION ( 'NONE',  ( 0.9659258262890698665, -0.2588190451025149108, 0.000000000000000000 ) ) ;
#647 = CARTESIAN_POINT ( 'NONE',  ( -0.08500000000000001998, 1.500000000000000222, -0.1249999999999999306 ) ) ;
#648 = EDGE_CURVE ( 'NONE', #484, #766, #692, .T. ) ;
#649 = CC_DESIGN_PERSON_AND_ORGANIZATION_ASSIGNMENT ( #609, #366, ( #69 ) ) ;
#650 = VERTEX_POINT ( 'NONE', #154 ) ;
#651 = VECTOR ( 'NONE', #147, 39.37007874015748143 ) ;
#652 = LINE ( 'NONE', #355, #509 ) ;
#653 = LINE ( 'NONE', #120, #363 ) ;
#654 = VECTOR ( 'NONE', #377, 39.37007874015748143 ) ;
#655 = ORIENTED_EDGE ( 'NONE', *, *, #68, .T. ) ;
#656 = DIRECTION ( 'NONE',  ( 1.000000000000000000, 0.000000000000000000, 0.000000000000000000 ) ) ;
#657 = ORIENTED_EDGE ( 'NONE', *, *, #424, .T. ) ;
#658 = EDGE_CURVE ( 'NONE', #38, #704, #558, .T. ) ;
#659 = DATE_AND_TIME ( #252, #101 ) ;
#660 = CARTESIAN_POINT ( 'NONE',  ( -0.5149999999999997913, 1.059915870975855157, 0.1349999999999999256 ) ) ;
#661 = VECTOR ( 'NONE', #620, 39.37007874015748143 ) ;
#662 = APPROVAL_PERSON_ORGANIZATION ( #550, #136, #362 ) ;
#663 = ORIENTED_EDGE ( 'NONE', *, *, #48, .T. ) ;
#664 = DIRECTION ( 'NONE',  ( -0.000000000000000000, -1.000000000000000000, -0.000000000000000000 ) ) ;
#665 = COORDINATED_UNIVERSAL_TIME_OFFSET ( 5, 0, .BEHIND. ) ;
#666 = AXIS2_PLACEMENT_3D ( 'NONE', #371, #193, #188 ) ;
#667 = CARTESIAN_POINT ( 'NONE',  ( -0.7500000000000001110, 0.000000000000000000, 0.1250000000000000278 ) ) ;
#668 = VERTEX_POINT ( 'NONE', #562 ) ;
#669 = DIRECTION ( 'NONE',  ( 0.000000000000000000, 0.000000000000000000, -1.000000000000000000 ) ) ;
#670 = VECTOR ( 'NONE', #96, 39.37007874015748143 ) ;
#671 = DIRECTION ( 'NONE',  ( -0.000000000000000000, -1.000000000000000000, -0.000000000000000000 ) ) ;
#672 = ORIENTED_EDGE ( 'NONE', *, *, #725, .F. ) ;
#673 = COORDINATED_UNIVERSAL_TIME_OFFSET ( 5, 0, .BEHIND. ) ;
#674 = DIRECTION ( 'NONE',  ( -0.000000000000000000, 1.000000000000000000, -0.000000000000000000 ) ) ;
#675 = DIRECTION ( 'NONE',  ( 6.829619984160661744E-17, 0.000000000000000000, 1.000000000000000000 ) ) ;
#676 = CARTESIAN_POINT ( 'NONE',  ( -0.7500000000000001110, 0.2500000000000000000, 0.1250000000000000278 ) ) ;
#677 = VECTOR ( 'NONE', #210, 39.37007874015748143 ) ;
#678 = CARTESIAN_POINT ( 'NONE',  ( -0.7500000000000001110, 0.2500000000000000000, -0.1250000000000000555 ) ) ;
#679 = ORIENTED_EDGE ( 'NONE', *, *, #709, .T. ) ;
#680 = CARTESIAN_POINT ( 'NONE',  ( -0.7500000000000001110, 0.2500000000000000000, 0.1250000000000000278 ) ) ;
#681 = CARTESIAN_POINT ( 'NONE',  ( -0.5149999999999997913, 1.059915870975855157, -0.1249999999999998335 ) ) ;
#682 = FACE_OUTER_BOUND ( 'NONE', #181, .T. ) ;
#683 = EDGE_CURVE ( 'NONE', #553, #88, #381, .T. ) ;
#684 = EDGE_CURVE ( 'NONE', #305, #747, #390, .T. ) ;
#685 = FACE_OUTER_BOUND ( 'NONE', #217, .T. ) ;
#686 = DIRECTION ( 'NONE',  ( -0.000000000000000000, -1.000000000000000000, -0.000000000000000000 ) ) ;
#687 = PLANE ( 'NONE',  #563 ) ;
#688 = VERTEX_POINT ( 'NONE', #266 ) ;
#689 = CARTESIAN_POINT ( 'NONE',  ( -0.08499999999999996447, 1.500000000000000222, 0.1250000000000000278 ) ) ;
#690 = CARTESIAN_POINT ( 'NONE',  ( 0.5249999999999996891, 1.059915870975855157, -0.1250000000000000278 ) ) ;
#691 = ORIENTED_EDGE ( 'NONE', *, *, #454, .F. ) ;
#692 = LINE ( 'NONE', #689, #546 ) ;
#693 = EDGE_CURVE ( 'NONE', #351, #496, #502, .T. ) ;
#694 = DIRECTION ( 'NONE',  ( 0.000000000000000000, 0.000000000000000000, -1.000000000000000000 ) ) ;
#695 = ORIENTED_EDGE ( 'NONE', *, *, #95, .F. ) ;
#696 = LINE ( 'NONE', #150, #315 ) ;
#697 = DIRECTION ( 'NONE',  ( -1.000000000000000000, 0.000000000000000000, 2.048885995248200865E-16 ) ) ;
#698 = CARTESIAN_POINT ( 'NONE',  ( -0.7500000000000001110, 0.2500000000000000000, -0.1250000000000000555 ) ) ;
#699 = ORIENTED_EDGE ( 'NONE', *, *, #693, .F. ) ;
#700 = PLANE ( 'NONE',  #175 ) ;
#701 = CIRCLE ( 'NONE', #232, 0.1250000000000000278 ) ;
#702 = DIRECTION ( 'NONE',  ( 0.000000000000000000, -1.000000000000000000, 0.000000000000000000 ) ) ;
#703 = EDGE_CURVE ( 'NONE', #299, #256, #272, .T. ) ;
#704 = VERTEX_POINT ( 'NONE', #236 ) ;
#705 = LINE ( 'NONE', #112, #86 ) ;
#706 = VECTOR ( 'NONE', #268, 39.37007874015748143 ) ;
#707 = CARTESIAN_POINT ( 'NONE',  ( -0.5549479735599393004, 0.2500000000000000000, 0.000000000000000000 ) ) ;
#708 = ORIENTED_EDGE ( 'NONE', *, *, #736, .F. ) ;
#709 = EDGE_CURVE ( 'NONE', #485, #224, #344, .T. ) ;
#710 = DIRECTION ( 'NONE',  ( 1.000000000000000000, 0.000000000000000000, 0.000000000000000000 ) ) ;
#711 = EDGE_CURVE ( 'NONE', #246, #183, #652, .T. ) ;
#712 = ORIENTED_EDGE ( 'NONE', *, *, #489, .T. ) ;
#713 = CARTESIAN_POINT ( 'NONE',  ( 0.5249999999999996891, 1.220373372422044911, -0.1250000000000000555 ) ) ;
#714 = AXIS2_PLACEMENT_3D ( 'NONE', #407, #590, #532 ) ;
#715 = VECTOR ( 'NONE', #104, 39.37007874015748143 ) ;
#716 = VERTEX_POINT ( 'NONE', #761 ) ;
#717 = CARTESIAN_POINT ( 'NONE',  ( -0.08499999999999996447, 1.500000000000000222, -0.1349999999999999534 ) ) ;
#718 = CARTESIAN_POINT ( 'NONE',  ( -0.7332209827992871576, 0.2455040758912811483, 0.1250000000000000278 ) ) ;
#719 = VECTOR ( 'NONE', #28, 39.37007874015748143 ) ;
#720 = ORIENTED_EDGE ( 'NONE', *, *, #293, .F. ) ;
#721 = ORIENTED_EDGE ( 'NONE', *, *, #584, .F. ) ;
#722 = COORDINATED_UNIVERSAL_TIME_OFFSET ( 5, 0, .BEHIND. ) ;
#723 = CARTESIAN_POINT ( 'NONE',  ( -0.08500000000000001998, 1.059915870975855157, -0.1249999999999999306 ) ) ;
#724 = EDGE_LOOP ( 'NONE', ( #538, #260, #316, #13 ) ) ;
#725 = EDGE_CURVE ( 'NONE', #521, #401, #164, .T. ) ;
#726 = DATE_AND_TIME ( #488, #533 ) ;
#727 = VECTOR ( 'NONE', #361, 39.37007874015748143 ) ;
#728 = PLANE ( 'NONE',  #666 ) ;
#729 = ORIENTED_EDGE ( 'NONE', *, *, #14, .F. ) ;
#730 = ADVANCED_FACE ( 'NONE', ( #46 ), #700, .F. ) ;
#731 = CARTESIAN_POINT ( 'NONE',  ( 0.08500000000000001998, 1.500000000000000222, -0.1249999999999999584 ) ) ;
#732 = CC_DESIGN_DATE_AND_TIME_ASSIGNMENT ( #370, #598, ( #69 ) ) ;
#733 = VERTEX_POINT ( 'NONE', #587 ) ;
#734 = PERSON_AND_ORGANIZATION ( #262, #324 ) ;
#735 = CARTESIAN_POINT ( 'NONE',  ( -0.7500000000000001110, 0.2500000000000000000, -0.1250000000000000555 ) ) ;
#736 = EDGE_CURVE ( 'NONE', #338, #2, #475, .T. ) ;
#737 = DIRECTION ( 'NONE',  ( -1.000000000000000000, 0.000000000000000000, 2.048885995248200865E-16 ) ) ;
#738 = ORIENTED_EDGE ( 'NONE', *, *, #537, .T. ) ;
#739 = VECTOR ( 'NONE', #671, 39.37007874015748143 ) ;
#740 = DIMENSIONAL_EXPONENTS ( 1.000000000000000000, 0.000000000000000000, 0.000000000000000000, 0.000000000000000000, 0.000000000000000000, 0.000000000000000000, 0.000000000000000000 ) ;
#741 = CC_DESIGN_PERSON_AND_ORGANIZATION_ASSIGNMENT ( #734, #9, ( #37 ) ) ;
#742 = DIRECTION ( 'NONE',  ( 1.000000000000000000, 0.000000000000000000, 0.000000000000000000 ) ) ;
#743 = ORIENTED_EDGE ( 'NONE', *, *, #323, .T. ) ;
#744 = PLANE ( 'NONE',  #53 ) ;
#745 = LINE ( 'NONE', #277, #677 ) ;
#746 = CARTESIAN_POINT ( 'NONE',  ( -0.5549479735599393004, 0.3500000000000000333, -0.1250000000000000555 ) ) ;
#747 = VERTEX_POINT ( 'NONE', #472 ) ;
#748 = LINE ( 'NONE', #448, #468 ) ;
#749 = CARTESIAN_POINT ( 'NONE',  ( 0.08500000000000001998, 1.220373372422044911, -0.1249999999999999584 ) ) ;
#750 = DIRECTION ( 'NONE',  ( -1.000000000000000000, 0.000000000000000000, 2.048885995248200865E-16 ) ) ;
#751 = DIRECTION ( 'NONE',  ( -0.000000000000000000, -1.000000000000000000, -0.000000000000000000 ) ) ;
#752 = CARTESIAN_POINT ( 'NONE',  ( 0.5549479735599391894, 0.3500000000000000333, -2.048885995248197414E-16 ) ) ;
#753 = DIRECTION ( 'NONE',  ( 1.000000000000000000, 0.000000000000000000, -6.829619984160661744E-17 ) ) ;
#754 = EDGE_LOOP ( 'NONE', ( #174, #481, #438, #235 ) ) ;
#755 = DIRECTION ( 'NONE',  ( 1.000000000000000000, 0.000000000000000000, 0.000000000000000000 ) ) ;
#756 = DIRECTION ( 'NONE',  ( 0.000000000000000000, -1.000000000000000000, 0.000000000000000000 ) ) ;
#757 = ADVANCED_FACE ( 'NONE', ( #469 ), #123, .F. ) ;
#758 = DIRECTION ( 'NONE',  ( 0.000000000000000000, 1.000000000000000000, -0.000000000000000000 ) ) ;
#759 = ORIENTED_EDGE ( 'NONE', *, *, #334, .F. ) ;
#760 = APPROVAL_PERSON_ORGANIZATION ( #540, #15, #429 ) ;
#761 = CARTESIAN_POINT ( 'NONE',  ( 0.7500000000000001110, 0.2500000000000000000, -0.1250000000000000555 ) ) ;
#762 = CARTESIAN_POINT ( 'NONE',  ( -0.3929534467583344903, 1.582515877365274548, -0.1250000000000000555 ) ) ;
#763 = VECTOR ( 'NONE', #750, 39.37007874015748143 ) ;
#764 = DIRECTION ( 'NONE',  ( -1.000000000000000000, 0.000000000000000000, 2.048885995248200865E-16 ) ) ;
#765 = EDGE_CURVE ( 'NONE', #224, #2, #176, .T. ) ;
#766 = VERTEX_POINT ( 'NONE', #116 ) ;
#767 = EDGE_CURVE ( 'NONE', #688, #55, #705, .T. ) ;
#768 = CARTESIAN_POINT ( 'NONE',  ( 0.000000000000000000, 0.000000000000000000, 0.000000000000000000 ) ) ;
#769 = AXIS2_PLACEMENT_3D ( 'NONE', #50, #753, #346 ) ;
#770 = LINE ( 'NONE', #405, #427 ) ;
#771 = EDGE_LOOP ( 'NONE', ( #124, #531, #628, #578 ) ) ;
#772 =( NAMED_UNIT ( * ) PLANE_ANGLE_UNIT ( ) SI_UNIT ( $, .RADIAN. ) );
ENDSEC;
END-ISO-10303-21;
